<?xml version="1.0" encoding="UTF-8" standalone="no"?>
<svg xmlns:ffdec="https://www.free-decompiler.com/flash" xmlns:xlink="http://www.w3.org/1999/xlink" ffdec:objectType="frame" height="285.65px" width="388.5px" xmlns="http://www.w3.org/2000/svg">
  <g transform="matrix(1.0, 0.0, 0.0, 1.0, 100.95, 15.75)">
    <use ffdec:characterId="734" height="279.05" transform="matrix(1.0, 0.0, 0.0, 1.0, -90.9, 56.0)" width="388.5" xlink:href="#sprite0"/>
    <use ffdec:characterId="736" height="150.6" transform="matrix(0.5874, 1.0175, -1.0175, 0.5874, 141.25, 158.75)" width="150.45" xlink:href="#sprite1"/>
  </g>
  <defs>
    <g id="sprite0">
      <use ffdec:characterId="733" height="279.05" transform="matrix(1.0, 0.0, 0.0, 1.0, 0.0, 0.0)" width="388.5" xlink:href="#shape0"/>
    </g>
    <g id="shape0">
      <path d="M366.0 -14.0 Q369.9 -14.05 372.85 -11.35 375.8 -8.7 376.1 -4.75 380.25 50.05 377.0 103.75 L377.0 103.8 Q374.15 149.25 363.2 190.95 362.4 193.75 360.3 195.75 358.15 197.7 355.3 198.25 302.55 207.8 242.15 207.25 181.7 206.7 116.75 191.6 113.5 190.85 111.4 188.3 109.2 185.7 109.05 182.45 106.15 132.75 94.7 73.75 L14.3 73.75 7.75 73.2 Q3.35 72.7 -0.25 70.15 -10.55 62.2 -10.0 50.55 -9.85 40.85 -6.7 32.0 -3.8 23.65 0.6 16.5 L0.65 16.45 Q3.95 10.9 9.45 4.25 14.2 -1.5 17.85 -4.25 L17.9 -4.3 Q24.65 -9.55 32.7 -9.95 L33.2 -10.0 295.9 -13.15 Q292.25 -23.5 292.0 -33.1 291.5 -46.7 297.75 -57.35 302.6 -65.65 310.1 -69.4 314.15 -71.4 318.55 -71.7 323.1 -72.05 327.1 -70.45 332.3 -68.35 337.6 -62.05 345.0 -53.15 348.85 -41.4 352.5 -30.25 352.5 -18.1 L352.4 -13.85 366.0 -14.0 M332.35 -17.0 Q332.35 -26.45 329.6 -34.8 326.65 -43.9 320.8 -50.3 319.8 -51.5 318.85 -51.5 317.8 -51.45 316.95 -50.1 311.75 -42.95 311.75 -32.2 311.7 -27.95 312.6 -22.8 L314.6 -13.55 314.65 -13.35 332.3 -13.6 332.35 -17.0 M358.2 38.65 L357.7 22.6 357.6 20.25 357.2 13.1 356.95 8.95 356.85 7.05 356.8 6.65 356.8 6.15 349.1 6.25 348.8 7.35 348.65 7.85 Q346.8 14.15 344.05 20.6 345.55 23.4 345.7 26.6 345.85 30.2 344.15 33.55 342.45 36.9 339.45 38.9 336.45 40.95 332.7 41.25 328.9 41.55 325.65 40.05 322.35 38.55 320.15 35.5 L319.3 34.2 319.3 34.15 318.75 33.15 317.65 29.95 317.5 28.85 Q317.05 25.3 318.5 21.8 319.95 18.3 322.75 16.05 324.55 14.65 326.65 13.95 L328.65 7.3 328.75 6.9 328.85 6.45 322.9 6.55 293.1 6.9 208.4 7.9 170.9 8.35 75.7 9.5 33.7 10.0 Q31.8 10.2 30.15 11.5 L29.85 11.75 Q27.7 13.55 24.85 17.0 20.4 22.35 17.75 26.8 L17.7 26.9 Q15.95 29.7 14.5 32.85 L14.35 33.15 12.25 38.25 12.15 38.65 Q10.05 44.45 10.0 50.8 10.15 52.9 12.55 53.5 L15.3 53.75 62.3 53.75 102.9 53.75 Q106.45 53.75 109.25 56.05 112.0 58.3 112.7 61.8 L115.15 74.3 Q119.3 96.25 122.35 116.9 L122.3 116.9 122.6 118.7 122.8 120.2 125.9 144.75 125.95 145.25 126.5 150.6 128.3 170.85 128.5 173.6 128.5 173.75 132.35 174.6 133.9 174.9 155.4 179.05 163.35 180.4 174.45 182.05 206.95 185.65 213.8 186.15 242.35 187.25 260.85 187.2 287.65 186.15 287.95 186.1 289.4 186.05 298.4 185.4 299.9 185.25 300.4 185.2 306.55 184.7 306.6 184.7 307.5 184.6 320.9 183.15 320.95 183.15 321.65 183.1 332.95 181.6 337.15 181.0 340.6 180.45 345.4 179.65 345.9 177.6 346.2 176.45 346.2 176.4 351.9 148.0 352.05 147.1 352.1 147.0 352.8 142.5 354.85 127.25 354.85 127.05 355.6 120.15 355.85 117.9 356.8 106.15 357.05 102.55 357.1 101.2 357.8 87.1 Q359.35 66.75 358.2 38.65" fill="#000000" fill-rule="evenodd" stroke="none"/>
      <path d="M358.2 38.65 Q359.35 66.75 357.8 87.1 L357.1 101.2 357.05 102.55 356.8 106.15 355.85 117.9 355.6 120.15 354.85 127.05 354.85 127.25 352.8 142.5 Q340.55 173.75 340.55 175.4 L299.9 185.25 Q308.15 182.6 302.9 184.25 L299.9 185.25 298.4 185.4 289.4 186.05 287.95 186.1 287.65 186.15 260.85 187.2 242.35 187.25 213.8 186.15 232.0 160.45 275.6 98.5 Q299.6 64.05 318.15 35.85 L319.3 34.2 320.15 35.5 Q322.35 38.55 325.65 40.05 328.9 41.55 332.7 41.25 336.45 40.95 339.45 38.9 342.45 36.9 344.15 33.55 345.85 30.2 345.7 26.6 345.55 23.4 344.05 20.6 346.8 14.15 348.65 7.85 L354.8 8.3 Q356.6 29.2 358.2 38.65 M163.35 180.4 L155.4 179.05 Q148.4 177.15 142.25 175.1 L131.4 171.7 Q131.55 171.05 129.0 162.05 127.3 156.15 126.5 150.6 L125.95 145.25 125.9 144.75 122.8 120.2 Q160.35 70.25 173.85 52.9 L200.95 17.9 208.4 7.9 293.1 6.9 Q238.65 74.4 206.8 117.95 183.25 150.1 163.35 180.4 M115.15 74.3 L112.7 61.8 Q112.0 58.3 109.25 56.05 106.45 53.75 102.9 53.75 L62.3 53.75 44.4 52.7 28.75 51.1 13.65 49.55 Q18.3 35.1 23.3 26.3 27.5 18.95 32.8 13.55 L40.5 12.9 59.15 11.45 75.7 9.5 170.9 8.35 155.9 25.4 Q135.1 49.5 115.15 74.3 M322.9 6.55 L328.85 6.45 328.75 6.9 328.65 7.3 322.9 6.55" fill="#ac4457" fill-rule="evenodd" stroke="none"/>
      <path d="M299.9 185.25 L302.9 184.25 Q308.15 182.6 299.9 185.25" fill="url(#gradient0)" fill-rule="evenodd" stroke="none"/>
      <path d="M348.65 7.85 L348.8 7.35 349.1 6.25 356.8 6.15 356.8 6.65 356.85 7.05 356.95 8.95 357.2 13.1 357.6 20.25 357.7 22.6 358.2 38.65 Q356.6 29.2 354.8 8.3 L348.65 7.85 M352.8 142.5 L352.1 147.0 352.05 147.1 351.9 148.0 346.2 176.4 346.2 176.45 345.9 177.6 345.4 179.65 340.6 180.45 337.15 181.0 332.95 181.6 321.65 183.1 320.95 183.15 320.9 183.15 307.5 184.6 306.6 184.7 306.55 184.7 300.4 185.2 299.9 185.25 340.55 175.4 Q340.55 173.75 352.8 142.5 M213.8 186.15 L206.95 185.65 174.45 182.05 163.35 180.4 Q183.25 150.1 206.8 117.95 238.65 74.4 293.1 6.9 L322.9 6.55 328.65 7.3 326.65 13.95 Q324.55 14.65 322.75 16.05 319.95 18.3 318.5 21.8 317.05 25.3 317.5 28.85 L317.65 29.95 318.75 33.15 319.3 34.15 319.3 34.2 318.15 35.85 Q299.6 64.05 275.6 98.5 L232.0 160.45 213.8 186.15 M155.4 179.05 L133.9 174.9 132.35 174.6 128.5 173.75 128.5 173.6 128.3 170.85 126.5 150.6 Q127.3 156.15 129.0 162.05 131.55 171.05 131.4 171.7 L142.25 175.1 Q148.4 177.15 155.4 179.05 M122.8 120.2 L122.6 118.7 122.3 116.9 122.35 116.9 Q119.3 96.25 115.15 74.3 135.1 49.5 155.9 25.4 L170.9 8.35 208.4 7.9 200.95 17.9 173.85 52.9 Q160.35 70.25 122.8 120.2 M62.3 53.75 L15.3 53.75 12.55 53.5 Q10.15 52.9 10.0 50.8 10.05 44.45 12.15 38.65 L12.25 38.25 14.35 33.15 14.5 32.85 Q15.95 29.7 17.7 26.9 L17.75 26.8 Q20.4 22.35 24.85 17.0 27.7 13.55 29.85 11.75 L30.15 11.5 Q31.8 10.2 33.7 10.0 L75.7 9.5 59.15 11.45 40.5 12.9 32.8 13.55 Q27.5 18.95 23.3 26.3 18.3 35.1 13.65 49.55 L28.75 51.1 44.4 52.7 62.3 53.75" fill="#c45b6f" fill-rule="evenodd" stroke="none"/>
    </g>
    <linearGradient gradientTransform="matrix(0.0, 0.0, 0.0, 0.0, 0.0, 0.0)" gradientUnits="userSpaceOnUse" id="gradient0" spreadMethod="pad" x1="-819.2" x2="819.2">
      <stop offset="0.0" stop-color="#ac4457"/>
      <stop offset="1.0" stop-color="#8f3747"/>
    </linearGradient>
    <g id="sprite1">
      <use ffdec:characterId="735" height="150.6" transform="matrix(1.0, 0.0, 0.0, 1.0, 0.0, 0.0)" width="150.45" xlink:href="#shape1"/>
    </g>
    <g id="shape1">
      <path d="M3.6 -65.4 Q-1.2 -64.2 -4.2 -61.55 -8.65 -57.5 -8.75 -50.55 -8.95 -46.5 -7.35 -42.7 -6.15 -39.8 -4.05 -37.4 L-3.35 -36.7 Q-2.7 -36.05 -1.65 -35.55 -0.7 -35.15 0.2 -35.75 1.2 -36.35 1.7 -37.85 2.25 -41.7 2.75 -43.7 3.75 -47.75 6.25 -50.55 8.8 -53.45 11.1 -53.7 L13.75 -54.2 14.75 -54.45 15.75 -54.45 16.85 -54.6 18.05 -54.8 Q18.8 -55.1 19.4 -55.55 L19.95 -56.0 19.95 -56.25 Q20.4 -56.6 20.4 -57.25 L20.5 -57.7 20.25 -59.45 20.0 -59.9 Q19.5 -61.0 18.35 -62.1 17.4 -63.3 15.65 -64.25 L15.0 -64.6 Q13.15 -65.55 10.55 -66.0 L3.6 -65.4 M-2.95 -32.1 Q-4.35 -32.8 -5.55 -33.7 L-9.3 -38.25 Q-11.8 -41.75 -12.25 -48.3 -12.7 -54.75 -10.45 -59.0 -8.1 -63.65 -4.05 -66.15 -1.25 -68.1 3.55 -69.25 L9.05 -69.85 Q13.0 -69.85 15.4 -68.7 17.45 -68.1 20.25 -65.9 23.05 -63.85 23.95 -61.4 25.0 -59.2 24.35 -56.65 23.9 -54.55 21.95 -53.1 L21.35 -52.7 Q19.4 -51.2 16.1 -50.95 L12.1 -50.4 Q8.9 -49.25 7.2 -45.2 L6.3 -41.7 5.7 -38.05 Q5.0 -35.0 3.8 -33.7 2.1 -31.75 -0.75 -31.85 L-2.95 -32.1 M57.35 -25.35 L57.7 -23.45 57.9 -22.8 57.9 -19.8 Q57.9 -17.65 57.5 -16.0 56.35 -8.8 51.35 -4.35 48.25 -1.55 44.3 -0.5 L36.45 -0.15 Q32.8 -0.55 29.8 -2.65 26.75 -4.65 24.95 -7.85 23.1 -10.95 22.8 -14.6 22.65 -18.6 23.7 -22.15 24.55 -24.3 27.4 -28.85 29.25 -28.55 30.75 -29.25 L32.25 -29.85 30.6 -27.1 Q28.1 -23.05 27.4 -20.75 26.5 -17.7 26.95 -14.45 27.5 -11.25 29.25 -8.75 31.1 -6.3 34.05 -4.95 36.9 -3.75 40.2 -3.75 42.15 -3.7 44.3 -4.5 48.7 -6.1 51.15 -9.8 53.1 -12.6 53.65 -16.55 L53.95 -21.6 Q53.8 -23.8 53.25 -25.75 50.7 -35.4 44.4 -42.85 39.5 -48.55 34.05 -50.95 32.5 -51.55 31.15 -51.55 L33.0 -44.4 Q34.2 -39.95 34.4 -37.1 L32.9 -39.6 Q31.8 -40.9 29.4 -42.4 28.1 -46.4 27.7 -48.45 27.1 -50.95 27.4 -52.25 27.8 -54.55 29.4 -55.25 L32.9 -55.45 Q38.25 -54.3 43.25 -49.75 53.15 -41.2 56.9 -27.6 L57.35 -25.35" fill="#000000" fill-rule="evenodd" stroke="none"/>
      <path d="M-47.85 -4.25 Q-50.05 -12.8 -48.4 -23.1 -46.7 -33.35 -41.7 -43.0 -32.35 -61.5 -13.8 -75.75 -11.55 -77.45 -6.45 -80.25 -1.25 -83.0 3.3 -83.45 9.45 -84.2 16.6 -82.45 L23.85 -79.6 Q27.55 -77.85 30.25 -76.15 L33.9 -73.85 39.1 -69.75 Q43.05 -66.6 48.1 -61.1 L49.9 -59.4 Q53.65 -56.0 56.85 -51.9 L60.8 -46.85 63.2 -43.2 66.5 -36.85 Q68.25 -33.2 69.4 -29.5 71.2 -22.4 70.45 -16.2 70.0 -11.6 67.15 -6.4 64.5 -1.4 62.7 0.85 48.4 19.35 30.0 28.8 20.2 33.8 10.05 35.45 -0.3 37.05 -8.75 35.0 -13.2 33.95 -17.05 32.25 L-22.85 29.4 -23.1 29.45 -23.6 29.2 -23.7 29.2 -28.2 33.6 -29.15 34.55 -30.75 36.15 Q-34.4 39.9 -35.95 42.45 -37.8 45.35 -37.25 45.8 -36.05 48.1 -35.2 51.1 -34.45 53.35 -34.6 54.95 -34.75 57.5 -36.5 59.95 -38.0 62.15 -40.65 63.85 -47.05 67.75 -53.95 66.6 -56.05 66.15 -57.35 65.35 -60.1 63.8 -61.45 61.55 L-63.05 58.4 -63.6 56.25 -64.25 53.35 -64.45 51.45 -64.4 51.3 -66.25 51.15 -69.1 50.7 -71.2 50.05 Q-72.3 49.75 -74.6 48.45 -76.75 47.1 -78.25 44.2 -79.0 43.0 -79.45 40.9 -80.8 34.0 -76.8 27.65 -75.0 25.15 -72.85 23.45 -70.5 21.65 -67.85 21.6 -66.25 21.45 -64.05 22.2 -61.15 23.0 -58.6 24.2 -58.25 24.75 -55.35 23.05 -52.45 21.1 -47.6 16.35 L-47.5 16.2 -46.05 14.8 -42.0 10.55 -42.25 10.0 Q-43.9 7.25 -45.15 3.95 -46.85 0.2 -47.85 -4.25" fill="#ffffff" fill-rule="evenodd" stroke="none"/>
      <path d="M-47.85 -4.25 Q-50.05 -12.8 -48.4 -23.1 -46.7 -33.35 -41.7 -43.0 -32.35 -61.5 -13.8 -75.75 -11.55 -77.45 -6.45 -80.25 -1.25 -83.0 3.3 -83.45 9.45 -84.2 16.6 -82.45 L23.85 -79.6 Q27.55 -77.85 30.25 -76.15 L33.9 -73.85 39.1 -69.75 Q43.05 -66.6 48.1 -61.1 L49.9 -59.4 Q53.65 -56.0 56.85 -51.9 L60.8 -46.85 63.2 -43.2 66.5 -36.85 Q68.25 -33.2 69.4 -29.5 71.2 -22.4 70.45 -16.2 70.0 -11.6 67.15 -6.4 64.5 -1.4 62.7 0.85 48.4 19.35 30.0 28.8 20.2 33.8 10.05 35.45 -0.3 37.05 -8.75 35.0 -13.2 33.95 -17.05 32.25 L-22.85 29.4 -23.1 29.45 -23.6 29.2 -23.7 29.2 -28.2 33.6 -29.15 34.55 -30.75 36.15 Q-34.4 39.9 -35.95 42.45 -37.8 45.35 -37.25 45.8 -36.05 48.1 -35.2 51.1 -34.45 53.35 -34.6 54.95 -34.75 57.5 -36.5 59.95 -38.0 62.15 -40.65 63.85 -47.05 67.75 -53.95 66.6 -56.05 66.15 -57.35 65.35 -60.1 63.8 -61.45 61.55 L-63.05 58.4 -63.6 56.25 -64.25 53.35 -64.45 51.45 -64.4 51.3 -66.25 51.15 -69.1 50.7 -71.2 50.05 Q-72.3 49.75 -74.6 48.45 -76.75 47.1 -78.25 44.2 -79.0 43.0 -79.45 40.9 -80.8 34.0 -76.8 27.65 -75.0 25.15 -72.85 23.45 -70.5 21.65 -67.85 21.6 -66.25 21.45 -64.05 22.2 -61.15 23.0 -58.6 24.2 -58.25 24.75 -55.35 23.05 -52.45 21.1 -47.6 16.35 L-47.5 16.2 -46.05 14.8 -42.0 10.55 -42.25 10.0 Q-43.9 7.25 -45.15 3.95 -46.85 0.2 -47.85 -4.25 M32.9 -63.55 Q28.9 -66.4 25.3 -68.6 L24.9 -68.75 24.45 -69.0 19.6 -71.25 18.4 -71.65 Q9.95 -75.45 3.6 -74.3 -2.7 -73.2 -6.05 -71.05 L-6.75 -70.75 Q-12.45 -67.05 -14.8 -61.1 L-15.7 -58.15 Q-16.9 -51.1 -15.7 -44.5 L-15.1 -42.0 -13.3 -36.45 Q-12.2 -33.7 -8.1 -26.9 -3.8 -20.1 1.55 -14.55 7.2 -9.0 13.95 -4.9 20.7 -0.8 23.35 0.3 26.05 1.4 28.9 2.2 L31.55 2.85 Q38.05 3.95 45.1 2.65 46.8 2.45 48.0 1.8 54.15 -0.5 57.65 -6.25 L58.15 -6.85 Q60.15 -10.25 61.25 -16.5 62.35 -22.8 58.6 -31.45 L58.15 -32.5 55.95 -37.4 55.7 -37.8 55.55 -38.1 Q53.35 -41.85 50.55 -45.8 46.65 -51.05 42.35 -55.35 38.15 -59.55 32.9 -63.55 M-52.7 29.2 Q-56.4 31.7 -57.4 32.05 L-57.45 32.1 Q-58.5 32.65 -59.6 32.65 -60.75 32.6 -63.35 31.05 L-67.05 29.6 Q-68.0 29.45 -68.85 29.6 -69.75 29.6 -70.95 30.65 -72.05 31.7 -72.85 33.6 -73.65 35.5 -73.6 37.7 L-73.55 38.8 -73.4 39.5 Q-73.1 42.4 -70.75 44.05 L-69.1 44.95 -67.5 45.45 -64.45 46.05 -61.85 46.4 -59.95 46.95 -60.05 47.1 Q-59.7 47.55 -59.45 48.95 L-59.05 51.7 -58.5 54.5 -58.0 56.15 -57.05 57.75 Q-55.5 60.15 -52.55 60.55 L-51.85 60.6 -50.7 60.6 Q-48.55 60.6 -46.65 59.8 -44.65 59.2 -43.65 58.2 -42.65 56.9 -42.6 55.95 -42.4 55.05 -42.65 54.0 -43.25 52.0 -44.2 50.5 -45.6 47.75 -45.8 46.7 -45.65 45.45 -45.2 44.6 L-45.15 44.45 Q-44.75 43.45 -42.35 39.75 -39.85 36.1 -35.0 31.25 L-34.65 30.9 -33.5 29.75 -28.65 25.2 -33.45 20.4 -33.35 20.35 -38.0 15.7 -42.35 20.15 -43.5 21.25 -44.15 21.95 Q-49.05 26.85 -52.7 29.2" fill="#000000" fill-rule="evenodd" stroke="none"/>
      <path d="M32.9 -63.55 Q38.15 -59.55 42.35 -55.35 46.65 -51.05 50.55 -45.8 53.35 -41.85 55.55 -38.1 L55.7 -37.8 55.95 -37.4 58.15 -32.5 58.6 -31.45 Q62.35 -22.8 61.25 -16.5 60.15 -10.25 58.15 -6.85 L57.65 -6.25 Q54.15 -0.5 48.0 1.8 46.8 2.45 45.1 2.65 38.05 3.95 31.55 2.85 L28.9 2.2 Q26.05 1.4 23.35 0.3 20.7 -0.8 13.95 -4.9 7.2 -9.0 1.55 -14.55 -3.8 -20.1 -8.1 -26.9 -12.2 -33.7 -13.3 -36.45 L-15.1 -42.0 -15.7 -44.5 Q-16.9 -51.1 -15.7 -58.15 L-14.8 -61.1 Q-12.45 -67.05 -6.75 -70.75 L-6.05 -71.05 Q-2.7 -73.2 3.6 -74.3 9.95 -75.45 18.4 -71.65 L19.6 -71.25 24.45 -69.0 24.9 -68.75 25.3 -68.6 Q28.9 -66.4 32.9 -63.55 M-52.7 29.2 Q-49.05 26.85 -44.15 21.95 L-43.5 21.25 -42.35 20.15 -38.0 15.7 -33.35 20.35 -33.45 20.4 -28.65 25.2 -33.5 29.75 -34.65 30.9 -35.0 31.25 Q-39.85 36.1 -42.35 39.75 -44.75 43.45 -45.15 44.45 L-45.2 44.6 Q-45.65 45.45 -45.8 46.7 -45.6 47.75 -44.2 50.5 -43.25 52.0 -42.65 54.0 -42.4 55.05 -42.6 55.95 -42.65 56.9 -43.65 58.2 -44.65 59.2 -46.65 59.8 -48.55 60.6 -50.7 60.6 L-51.85 60.6 -52.55 60.55 Q-55.5 60.15 -57.05 57.75 L-58.0 56.15 -58.5 54.5 -59.05 51.7 -59.45 48.95 Q-59.7 47.55 -60.05 47.1 L-59.95 46.95 -61.85 46.4 -64.45 46.05 -67.5 45.45 -69.1 44.95 -70.75 44.05 Q-73.1 42.4 -73.4 39.5 L-73.55 38.8 -73.6 37.7 Q-73.65 35.5 -72.85 33.6 -72.05 31.7 -70.95 30.65 -69.75 29.6 -68.85 29.6 -68.0 29.45 -67.05 29.6 L-63.35 31.05 Q-60.75 32.6 -59.6 32.65 -58.5 32.65 -57.45 32.1 L-57.4 32.05 Q-56.4 31.7 -52.7 29.2" fill="#ffffff" fill-rule="evenodd" stroke="none"/>
      <path d="M31.2 -32.25 Q32.55 -33.6 31.95 -36.1 31.25 -38.7 29.0 -40.95 26.75 -43.2 24.15 -43.9 21.55 -44.55 20.2 -43.2 18.85 -41.85 19.45 -39.2 20.15 -36.65 22.4 -34.35 24.65 -32.1 27.25 -31.45 29.85 -30.9 31.2 -32.25 M34.45 -28.15 Q31.65 -25.35 26.95 -25.95 22.3 -26.7 18.45 -30.55 14.6 -34.35 13.95 -39.0 13.25 -43.75 16.1 -46.55 18.9 -49.4 23.65 -48.7 28.3 -48.05 32.15 -44.25 36.0 -40.4 36.65 -35.65 37.3 -31.05 34.45 -28.15" fill="#000000" fill-rule="evenodd" stroke="none"/>
    </g>
  </defs>
</svg>
