<?xml version="1.0" encoding="UTF-8" standalone="no"?>
<svg xmlns:ffdec="https://www.free-decompiler.com/flash" xmlns:xlink="http://www.w3.org/1999/xlink" ffdec:objectType="frame" height="358.0px" width="299.95px" xmlns="http://www.w3.org/2000/svg">
  <g transform="matrix(1.0, 0.0, 0.0, 1.0, 30.85, 42.95)">
    <use ffdec:characterId="709" height="358.0" transform="matrix(1.0, 0.0, 0.0, 1.0, -11.7, -4.9)" width="299.95" xlink:href="#sprite0"/>
    <use ffdec:characterId="711" height="149.6" transform="matrix(1.0, 0.0, 0.0, 1.0, 120.2, 146.65)" width="151.8" xlink:href="#sprite1"/>
  </g>
  <defs>
    <g id="sprite0">
      <use ffdec:characterId="708" height="358.0" transform="matrix(1.0, 0.0, 0.0, 1.0, 0.0, 0.0)" width="299.95" xlink:href="#shape0"/>
    </g>
    <g id="shape0">
      <path d="M130.1 -8.95 L130.8 -8.95 131.0 -8.95 133.35 -8.85 133.2 -8.9 137.75 -8.35 138.2 -8.25 138.45 -8.25 139.0 -8.15 139.3 -8.1 140.1 -8.0 140.5 -7.95 Q143.6 -7.3 146.75 -6.15 L146.75 -6.1 Q152.3 -4.2 157.35 -0.9 L157.3 -0.9 Q165.25 4.3 170.65 12.1 175.2 18.65 177.1 26.2 182.2 23.65 188.25 22.1 L188.35 22.1 Q195.4 20.05 202.35 19.7 L206.75 19.55 212.5 19.75 Q221.45 20.4 230.3 23.95 L230.35 23.95 Q248.6 30.95 261.75 48.05 L261.8 48.1 Q273.55 63.55 278.15 83.6 L278.2 83.7 Q280.5 94.25 280.75 106.0 L280.8 107.8 Q280.75 114.6 280.0 121.8 278.45 139.65 261.85 172.4 246.1 203.65 207.25 248.25 178.6 280.95 145.0 316.25 141.6 319.85 138.9 319.9 L138.7 319.9 138.55 319.9 138.35 319.9 137.95 319.95 137.75 319.95 137.6 319.95 Q134.8 319.95 131.2 316.55 95.35 282.35 64.55 250.35 22.3 206.5 4.35 175.25 -6.6 156.4 -12.15 142.45 L-16.15 130.35 -17.4 124.25 Q-18.75 116.1 -19.05 108.4 L-19.15 103.4 Q-19.2 94.15 -17.65 85.5 L-17.65 85.45 Q-14.2 65.05 -2.95 49.25 L-2.9 49.2 Q9.55 31.8 27.85 24.6 L27.9 24.55 Q37.15 20.75 46.95 20.2 L57.15 20.25 Q63.7 20.6 70.5 22.45 L70.6 22.45 Q76.65 24.0 82.1 26.55 L82.65 24.25 Q79.95 22.9 77.0 20.45 66.6 11.95 60.75 2.3 53.75 -8.95 53.9 -20.65 53.85 -28.25 57.35 -32.45 59.55 -35.35 63.35 -36.8 66.85 -38.2 70.8 -38.05 77.2 -37.9 85.5 -33.8 102.15 -25.6 117.1 -8.0 L117.3 -8.0 118.2 -8.1 118.5 -8.15 119.1 -8.25 Q119.0 -8.35 119.2 -8.3 L119.65 -8.35 124.25 -8.9 124.15 -8.85 126.4 -8.95 126.65 -8.95 127.4 -8.95 127.65 -8.95 128.25 -8.95 129.15 -8.95 130.1 -8.95 M89.2 -9.6 Q80.5 -16.35 73.9 -16.5 68.65 -15.8 73.9 -7.85 78.95 0.05 84.7 5.25 L89.65 9.45 89.7 9.5 Q93.75 3.85 99.55 -0.25 94.15 -5.75 89.2 -9.6 M244.0 59.3 L243.1 58.2 241.1 55.95 Q236.8 50.35 228.45 45.95 L227.45 45.35 226.55 44.85 225.5 44.3 222.4 42.95 222.35 42.9 218.2 41.45 217.0 41.05 215.75 40.7 Q207.95 38.3 202.0 38.1 L200.15 38.05 Q192.65 38.05 183.5 40.4 172.35 43.05 163.8 47.9 155.2 52.65 153.95 53.35 153.15 53.15 152.95 53.35 151.25 52.3 152.3 48.95 L153.75 46.55 Q156.3 41.7 156.5 37.8 L156.2 32.2 155.8 29.4 Q155.3 27.05 152.9 23.55 L152.9 23.6 152.45 23.0 Q149.5 18.95 145.4 16.35 L145.35 16.3 Q140.9 13.25 135.7 12.35 L135.5 12.3 135.0 12.2 134.65 12.15 131.4 11.85 Q134.85 18.2 136.6 23.75 136.6 24.0 136.75 24.25 L137.2 24.55 Q139.75 26.3 141.3 29.15 142.1 30.8 142.5 32.6 L142.8 35.2 Q142.55 38.25 140.95 41.05 139.25 43.65 136.55 45.2 133.8 46.6 130.6 46.6 L128.25 46.25 Q126.35 45.75 124.7 44.8 L124.25 44.5 123.05 43.6 120.9 41.3 120.35 40.35 119.85 39.4 119.4 38.45 118.9 36.7 118.7 35.55 118.65 34.35 Q118.5 31.05 120.4 28.1 L118.35 24.35 118.1 23.95 115.1 19.05 114.3 17.8 114.05 17.45 113.65 16.85 113.4 16.5 112.3 17.3 108.05 21.35 106.55 23.4 106.5 23.55 106.35 23.75 106.35 23.7 105.55 25.0 104.9 26.2 104.45 27.05 104.15 27.9 103.9 28.75 103.8 29.6 Q103.45 31.45 103.5 32.4 103.25 36.35 103.55 38.0 L103.8 39.45 105.45 44.2 106.45 46.15 106.8 46.8 108.4 49.15 108.55 49.6 108.9 52.1 108.6 52.95 108.0 53.6 Q107.4 53.8 107.0 53.6 L96.7 48.2 Q96.15 47.8 95.65 47.7 L95.5 47.6 95.4 47.5 95.35 47.55 94.35 47.0 86.85 43.85 86.35 43.65 Q81.65 41.95 76.55 40.85 66.85 38.55 59.25 38.6 L57.6 38.65 56.55 38.7 56.45 38.7 56.35 38.7 56.2 38.75 56.15 38.75 Q49.5 39.5 42.85 41.7 L42.05 41.95 41.65 42.05 Q39.5 42.7 37.2 43.7 L37.15 43.75 Q24.1 49.05 15.25 61.6 L15.3 61.55 Q6.45 73.85 3.8 89.6 L3.8 89.55 3.7 90.0 Q3.45 91.2 3.35 92.5 3.0 94.55 2.95 96.8 2.0 107.45 3.7 119.3 L3.7 119.5 4.0 121.35 4.0 121.5 4.0 121.6 4.05 121.75 Q6.05 133.5 16.05 152.7 19.05 158.8 23.15 165.7 34.0 184.4 54.05 208.15 L67.55 223.5 72.25 228.5 76.25 232.75 76.25 232.8 76.5 233.05 80.15 236.9 90.6 247.75 90.65 247.8 Q115.1 273.15 134.2 292.05 L134.05 291.95 137.5 295.25 138.15 294.55 138.75 293.9 139.6 293.0 148.5 283.25 149.15 282.4 150.55 280.95 153.6 277.55 164.9 265.0 176.55 251.95 191.15 235.3 Q227.95 192.9 243.05 163.35 L249.9 148.8 Q257.8 130.8 259.15 119.65 L259.2 119.2 Q260.0 110.0 259.5 101.55 L259.55 101.45 259.5 101.4 Q259.0 94.35 257.6 87.85 L257.6 87.9 Q255.6 79.55 252.1 72.2 L248.55 65.85 244.8 60.35 244.55 60.0 244.0 59.3" fill="#000000" fill-rule="evenodd" stroke="none"/>
      <path d="M244.0 59.3 L244.55 60.0 244.8 60.35 248.55 65.85 252.1 72.2 Q236.3 89.0 212.75 112.75 L189.2 136.25 174.4 151.45 165.45 161.15 Q140.45 188.7 111.2 223.2 L94.8 242.7 Q92.7 245.2 90.75 247.85 L90.65 247.8 90.6 247.75 80.15 236.9 76.5 233.05 76.25 232.8 76.25 232.75 72.25 228.5 67.55 223.5 54.05 208.15 Q80.35 179.3 103.65 154.65 161.8 92.7 214.8 41.7 L215.75 40.7 217.0 41.05 218.2 41.45 222.35 42.9 222.4 42.95 225.5 44.3 226.55 44.85 227.45 45.35 228.45 45.95 Q236.8 50.35 241.1 55.95 L243.1 58.2 244.0 59.3 M134.2 292.05 L134.7 292.55 127.15 284.95 137.1 291.15 147.05 280.65 159.6 266.55 Q174.7 249.65 178.85 245.45 L191.25 231.1 201.8 217.65 Q204.05 214.2 214.0 200.75 223.9 187.1 234.05 169.7 244.1 152.15 250.6 135.1 257.0 117.9 259.5 101.55 260.0 110.0 259.2 119.2 L259.15 119.65 Q257.8 130.8 249.9 148.8 L243.05 163.35 Q227.95 192.9 191.15 235.3 L176.55 251.95 164.9 265.0 153.6 277.55 150.55 280.95 149.15 282.4 148.5 283.25 139.6 293.0 138.75 293.9 138.15 294.55 137.5 295.25 134.05 291.95 134.2 292.05 M152.45 23.0 Q147.5 27.65 142.5 32.6 142.1 30.8 141.3 29.15 139.75 26.3 137.2 24.55 L136.75 24.25 Q136.6 24.0 136.6 23.75 134.85 18.2 131.4 11.85 L134.65 12.15 135.0 12.2 135.5 12.3 135.7 12.35 Q140.9 13.25 145.35 16.3 L145.4 16.35 Q149.5 18.95 152.45 23.0 M124.25 44.5 L124.7 44.8 Q126.35 45.75 128.25 46.25 L41.2 128.75 Q28.2 140.85 16.05 152.7 6.05 133.5 4.05 121.75 L4.0 121.6 4.0 121.5 4.0 121.35 3.7 119.5 3.7 119.3 Q43.75 81.4 85.75 43.45 L86.35 43.65 86.85 43.85 94.35 47.0 95.35 47.55 95.4 47.5 95.5 47.6 95.65 47.7 Q96.15 47.8 96.7 48.2 L107.0 53.6 Q107.4 53.8 108.0 53.6 L108.6 52.95 108.9 52.1 108.55 49.6 108.4 49.15 106.8 46.8 106.45 46.15 105.45 44.2 103.8 39.45 103.55 38.0 Q103.25 36.35 103.5 32.4 103.45 31.45 103.8 29.6 L103.9 28.75 104.15 27.9 104.45 27.05 104.9 26.2 105.55 25.0 106.35 23.7 106.35 23.75 106.5 23.55 106.55 23.4 108.05 21.35 112.3 17.3 113.4 16.5 113.65 16.85 114.05 17.45 114.3 17.8 115.1 19.05 118.1 23.95 118.35 24.35 120.4 28.1 Q118.5 31.05 118.65 34.35 L118.7 35.55 118.9 36.7 119.4 38.45 119.85 39.4 120.35 40.35 120.9 41.3 123.05 43.6 124.25 44.5 M56.55 38.7 L56.9 38.7 Q51.5 40.1 46.1 42.85 35.45 47.95 25.95 57.2 13.65 68.95 7.45 82.75 4.3 89.75 2.95 96.8 3.0 94.55 3.35 92.5 3.45 91.2 3.7 90.0 L3.8 89.55 3.8 89.6 Q6.45 73.85 15.3 61.55 L15.25 61.6 Q24.1 49.05 37.15 43.75 L37.2 43.7 Q39.5 42.7 41.65 42.05 L42.05 41.95 42.85 41.7 Q49.5 39.5 56.15 38.75 L56.2 38.75 56.35 38.7 56.45 38.7 56.55 38.7" fill="#ffffff" fill-rule="evenodd" stroke="none"/>
      <path d="M228.45 45.95 L227.45 45.35 226.55 44.85 225.5 44.3 226.55 44.85 227.45 45.35 228.45 45.95 M76.25 232.75 L76.25 232.8 76.25 232.75 M112.3 17.3 L113.4 16.5 113.65 16.85 113.4 16.5 112.3 17.3 M114.05 17.45 L114.3 17.8 115.1 19.05 114.3 17.8 114.05 17.45 M95.4 47.5 L95.5 47.6 95.65 47.7 Q96.15 47.8 96.7 48.2 L107.0 53.6 Q107.4 53.8 108.0 53.6 L108.6 52.95 108.0 53.6 Q107.4 53.8 107.0 53.6 L96.7 48.2 Q96.15 47.8 95.65 47.7 L95.5 47.6 95.4 47.5 M103.8 39.45 L103.55 38.0 Q103.25 36.35 103.5 32.4 103.45 31.45 103.8 29.6 L103.9 28.75 103.8 29.6 Q103.45 31.45 103.5 32.4 103.25 36.35 103.55 38.0 L103.8 39.45 M104.45 27.05 L104.9 26.2 105.55 25.0 104.9 26.2 104.45 27.05" fill="url(#gradient0)" fill-rule="evenodd" stroke="none"/>
      <path d="M90.65 247.8 L90.75 247.85 Q92.7 245.2 94.8 242.7 L111.2 223.2 Q140.45 188.7 165.45 161.15 L174.4 151.45 189.2 136.25 212.75 112.75 Q236.3 89.0 252.1 72.2 L248.55 65.85 244.8 60.35 244.55 60.0 244.0 59.3 244.55 60.0 244.8 60.35 248.55 65.85 252.1 72.2 Q255.6 79.55 257.6 87.9 L257.6 87.85 Q259.0 94.35 259.5 101.4 L259.55 101.45 259.5 101.55 Q257.0 117.9 250.6 135.1 244.1 152.15 234.05 169.7 223.9 187.1 214.0 200.75 204.05 214.2 201.8 217.65 L191.25 231.1 178.85 245.45 Q174.7 249.65 159.6 266.55 L147.05 280.65 137.1 291.15 127.15 284.95 134.7 292.55 134.2 292.05 Q115.1 273.15 90.65 247.8 M217.0 41.05 L215.75 40.7 214.8 41.7 Q161.8 92.7 103.65 154.65 80.35 179.3 54.05 208.15 34.0 184.4 23.15 165.7 19.05 158.8 16.05 152.7 6.05 133.5 4.05 121.75 L4.0 121.6 4.05 121.75 Q6.05 133.5 16.05 152.7 28.2 140.85 41.2 128.75 L128.25 46.25 Q126.35 45.75 124.7 44.8 L124.25 44.5 124.7 44.8 Q126.35 45.75 128.25 46.25 L130.6 46.6 Q133.8 46.6 136.55 45.2 139.25 43.65 140.95 41.05 142.55 38.25 142.8 35.2 L142.5 32.6 Q147.5 27.65 152.45 23.0 L152.9 23.6 152.9 23.55 Q155.3 27.05 155.8 29.4 L156.2 32.2 156.5 37.8 Q156.3 41.7 153.75 46.55 L152.3 48.95 Q151.25 52.3 152.95 53.35 153.15 53.15 153.95 53.35 155.2 52.65 163.8 47.9 172.35 43.05 183.5 40.4 192.65 38.05 200.15 38.05 L202.0 38.1 Q207.95 38.3 215.75 40.7 L217.0 41.05 M95.35 47.55 L94.35 47.0 86.85 43.85 86.35 43.65 85.75 43.45 Q43.75 81.4 3.7 119.3 L3.7 119.5 4.0 121.35 4.0 121.5 4.0 121.35 3.7 119.5 3.7 119.3 Q2.0 107.45 2.95 96.8 4.3 89.75 7.45 82.75 13.65 68.95 25.95 57.2 35.45 47.95 46.1 42.85 51.5 40.1 56.9 38.7 L56.55 38.7 57.6 38.65 59.25 38.6 Q66.85 38.55 76.55 40.85 81.65 41.95 86.35 43.65 L86.85 43.85 94.35 47.0 95.35 47.55" fill="#e2e2e2" fill-rule="evenodd" stroke="none"/>
    </g>
    <linearGradient gradientTransform="matrix(0.0607, 0.0303, -0.4465, 0.894, 175.9, 31.45)" gradientUnits="userSpaceOnUse" id="gradient0" spreadMethod="pad" x1="-819.2" x2="819.2">
      <stop offset="0.0" stop-color="#f6f4f4"/>
      <stop offset="1.0" stop-color="#f2efef"/>
    </linearGradient>
    <g id="sprite1">
      <use ffdec:characterId="710" height="149.6" transform="matrix(1.0, 0.0, 0.0, 1.0, 0.0, 0.0)" width="151.8" xlink:href="#shape1"/>
    </g>
    <g id="shape1">
      <path d="M-41.05 28.85 Q-72.95 -15.35 -70.75 -38.7 -68.8 -62.1 -43.6 -69.5 -39.75 -70.45 -36.0 -70.45 -32.35 -70.45 -28.85 -69.5 -7.9 -67.45 5.1 -37.9 17.8 -67.3 38.75 -69.5 41.9 -70.45 45.65 -70.45 49.4 -70.45 53.65 -69.5 78.75 -62.1 80.8 -38.7 82.85 -15.35 51.0 28.85 26.15 63.25 8.85 76.45 L5.2 79.15 5.1 79.0 Q4.95 79.0 4.85 79.15 2.4 77.45 -0.5 75.15 -17.35 61.7 -41.05 28.85" fill="#000000" fill-rule="evenodd" stroke="none"/>
    </g>
  </defs>
</svg>
