<?xml version="1.0" encoding="UTF-8" standalone="no"?>
<svg xmlns:ffdec="https://www.free-decompiler.com/flash" xmlns:xlink="http://www.w3.org/1999/xlink" ffdec:objectType="frame" height="437.0px" width="361.4px" xmlns="http://www.w3.org/2000/svg">
  <g transform="matrix(1.0, 0.0, 0.0, 1.0, -10.05, 25.95)">
    <use ffdec:characterId="714" height="449.75" transform="matrix(0.9718, 0.0, 0.0, 0.9718, 19.8, 6.5)" width="371.9" xlink:href="#sprite0"/>
    <use ffdec:characterId="716" height="137.6" transform="matrix(1.6399, 0.0, 0.0, 1.6399, 82.95, 132.8)" width="153.5" xlink:href="#sprite1"/>
  </g>
  <defs>
    <g id="sprite0">
      <use ffdec:characterId="713" height="449.75" transform="matrix(1.0, 0.0, 0.0, 1.0, 0.0, 0.0)" width="371.9" xlink:href="#shape0"/>
    </g>
    <g id="shape0">
      <path d="M135.45 5.6 Q139.3 1.7 143.55 -1.2 134.4 -10.55 124.05 -14.45 118.7 -16.45 115.35 -15.0 112.85 -13.85 111.55 -10.85 110.4 -8.25 110.4 -5.0 110.4 4.65 117.85 14.9 120.15 18.05 123.95 22.25 127.85 13.15 135.45 5.6 M44.45 361.95 Q-10.0 307.5 -10.0 230.45 -10.0 153.4 44.45 99.0 69.6 73.8 99.6 60.25 107.9 56.5 116.6 53.65 L120.55 52.4 Q119.8 47.95 119.8 43.25 L119.8 43.2 119.8 42.4 Q115.35 39.3 110.35 34.3 100.4 24.25 95.8 14.8 89.85 2.65 91.5 -8.9 92.35 -15.05 95.5 -20.35 98.8 -25.85 103.85 -29.1 107.95 -31.75 113.05 -32.75 L123.05 -33.15 Q132.2 -32.1 141.7 -26.35 152.4 -19.9 161.65 -8.85 167.1 -10.0 173.05 -10.0 L175.95 -9.9 178.85 -10.0 Q200.9 -10.0 216.5 5.6 232.1 21.2 232.1 43.2 L232.1 43.25 Q232.1 47.95 231.35 52.4 L234.6 53.45 Q244.1 56.5 253.2 60.7 282.65 74.15 307.5 99.0 361.9 153.4 361.9 230.45 361.9 307.5 307.5 361.95 L306.0 363.35 305.85 363.55 305.75 363.6 305.6 363.8 Q251.65 416.35 176.0 416.35 L175.9 416.35 Q100.25 416.35 46.35 363.8 L46.15 363.6 46.1 363.55 45.9 363.35 44.45 361.95 M334.55 180.15 Q331.35 169.85 326.8 160.15 314.8 134.65 293.3 113.15 281.8 101.65 269.15 92.85 262.9 88.5 256.35 84.8 L253.2 83.1 252.45 82.7 Q246.45 79.55 240.25 76.95 L238.35 76.15 235.2 74.95 234.6 74.7 234.25 74.6 Q226.2 71.6 217.75 69.5 L212.05 68.2 Q209.0 66.5 208.8 63.65 208.55 60.75 209.9 56.7 211.25 52.6 211.6 43.2 L211.6 43.05 Q212.1 29.5 202.35 19.75 192.6 10.0 178.85 10.0 L176.65 10.1 175.25 10.1 174.7 10.05 178.95 17.8 Q181.05 21.8 182.15 24.9 L183.35 25.4 Q186.6 27.0 189.0 29.9 191.35 32.85 192.2 36.35 193.0 39.65 192.55 42.75 191.9 47.3 188.85 51.0 185.75 54.75 181.45 56.25 177.1 57.75 172.4 56.7 167.7 55.7 164.35 52.5 161.0 49.35 159.8 44.7 158.6 40.05 159.9 35.6 160.95 32.1 163.45 29.3 L163.55 29.2 162.2 26.35 Q159.4 20.4 155.85 14.75 152.55 16.75 149.6 19.75 140.05 29.25 139.8 43.2 L139.8 44.0 Q139.8 52.75 141.75 59.35 142.05 62.25 141.0 64.8 139.95 67.35 137.2 68.75 L132.65 70.05 Q121.95 72.95 116.6 74.95 107.9 78.25 99.6 82.6 77.6 94.15 58.65 113.15 28.65 143.1 17.2 180.75 10.45 202.75 10.1 227.35 L10.05 230.45 10.2 237.4 10.2 237.5 10.25 238.95 11.9 256.3 12.25 258.7 12.5 260.25 13.55 265.85 Q15.9 277.3 19.85 288.15 31.85 321.0 58.65 347.8 L60.05 349.2 60.15 349.3 60.25 349.4 60.35 349.5 Q73.75 362.55 88.7 372.0 L89.3 372.35 113.9 384.9 114.6 385.2 115.4 385.5 122.2 387.95 122.4 388.0 123.2 388.25 130.5 390.45 131.0 390.6 Q152.25 396.35 175.9 396.35 L176.0 396.35 Q219.2 396.35 254.5 377.15 274.3 366.35 291.6 349.45 L291.7 349.4 291.75 349.3 291.85 349.2 293.3 347.8 Q327.85 313.2 337.85 268.4 341.85 250.25 341.85 230.45 341.85 215.7 339.65 201.85 L338.8 197.15 338.7 196.7 Q337.55 190.75 335.95 185.0 L334.6 180.25 334.55 180.15" fill="#000000" fill-rule="evenodd" stroke="none"/>
      <path d="M334.55 180.15 L334.6 180.25 334.25 180.5 334.55 180.15 M10.1 227.35 Q10.45 202.75 17.2 180.75 26.2 165.55 53.45 135.1 63.6 123.75 66.35 121.45 100.6 92.35 115.15 81.65 129.7 70.9 132.65 70.05 L137.2 68.75 Q139.95 67.35 141.0 64.8 142.05 62.25 141.75 59.35 139.8 52.75 139.8 44.0 L139.8 43.2 Q140.05 29.25 149.6 19.75 152.55 16.75 155.85 14.75 159.4 20.4 162.2 26.35 L163.55 29.2 163.45 29.3 Q160.95 32.1 159.9 35.6 158.6 40.05 159.8 44.7 161.0 49.35 164.35 52.5 167.7 55.7 172.4 56.7 177.1 57.75 181.45 56.25 185.75 54.75 188.85 51.0 191.9 47.3 192.55 42.75 193.0 39.65 192.2 36.35 191.35 32.85 189.0 29.9 186.6 27.0 183.35 25.4 L182.15 24.9 Q181.05 21.8 178.95 17.8 L174.7 10.05 175.25 10.1 176.65 10.1 178.85 10.0 Q192.6 10.0 202.35 19.75 212.1 29.5 211.6 43.05 L211.6 43.2 Q211.25 52.6 209.9 56.7 208.55 60.75 208.8 63.65 209.0 66.5 212.05 68.2 L217.75 69.5 208.4 76.0 Q114.4 142.7 10.1 227.35" fill="#a0a0a0" fill-rule="evenodd" stroke="none"/>
      <path d="M339.65 201.85 Q341.85 215.7 341.85 230.45 341.85 250.25 337.85 268.4 L330.65 285.75 Q324.75 298.85 318.6 308.5 312.8 317.55 304.15 327.65 298.6 334.15 287.9 345.4 274.45 359.7 266.55 366.95 L254.5 377.15 Q219.2 396.35 176.0 396.35 L175.9 396.35 Q152.25 396.35 131.0 390.6 L258.8 276.95 Q305.6 235.25 328.65 214.0 L339.85 203.4 339.65 201.85 M88.7 372.0 Q73.75 362.55 60.35 349.5 L60.25 349.4 60.15 349.3 60.05 349.2 58.65 347.8 Q31.85 321.0 19.85 288.15 L55.2 258.0 Q125.1 199.85 223.4 128.0 L243.45 113.25 263.0 98.05 269.15 92.85 Q281.8 101.65 293.3 113.15 314.8 134.65 326.8 160.15 L312.3 172.3 Q299.8 183.0 277.75 202.75 L156.8 310.8 88.7 372.0" fill="#969696" fill-rule="evenodd" stroke="none"/>
      <path d="M326.8 160.15 Q331.35 169.85 334.55 180.15 L334.25 180.5 334.6 180.25 335.95 185.0 Q337.55 190.75 338.7 196.7 L338.8 197.15 339.65 201.85 339.85 203.4 328.65 214.0 Q305.6 235.25 258.8 276.95 L131.0 390.6 130.5 390.45 123.2 388.25 122.4 388.0 122.2 387.95 115.4 385.5 114.6 385.2 113.9 384.9 89.3 372.35 88.7 372.0 156.8 310.8 277.75 202.75 Q299.8 183.0 312.3 172.3 L326.8 160.15 M337.85 268.4 Q327.85 313.2 293.3 347.8 L291.85 349.2 291.75 349.3 291.7 349.4 291.6 349.45 Q274.3 366.35 254.5 377.15 L266.55 366.95 Q274.45 359.7 287.9 345.4 298.6 334.15 304.15 327.65 312.8 317.55 318.6 308.5 324.75 298.85 330.65 285.75 L337.85 268.4 M19.85 288.15 Q15.9 277.3 13.55 265.85 L12.5 260.25 12.25 258.7 11.9 256.3 10.25 238.95 10.2 237.5 10.2 237.4 10.05 230.45 10.1 227.35 Q114.4 142.7 208.4 76.0 L217.75 69.5 Q226.2 71.6 234.25 74.6 L234.6 74.7 235.2 74.95 238.35 76.15 240.25 76.95 Q246.45 79.55 252.45 82.7 L253.2 83.1 256.35 84.8 Q262.9 88.5 269.15 92.85 L263.0 98.05 243.45 113.25 223.4 128.0 Q125.1 199.85 55.2 258.0 L19.85 288.15 M17.2 180.75 Q28.65 143.1 58.65 113.15 77.6 94.15 99.6 82.6 107.9 78.25 116.6 74.95 121.95 72.95 132.65 70.05 129.7 70.9 115.15 81.65 100.6 92.35 66.35 121.45 63.6 123.75 53.45 135.1 26.2 165.55 17.2 180.75" fill="#c1c1c1" fill-rule="evenodd" stroke="none"/>
    </g>
    <g id="sprite1">
      <use ffdec:characterId="715" height="137.6" transform="matrix(1.0, 0.0, 0.0, 1.0, 0.0, 0.0)" width="153.5" xlink:href="#shape1"/>
    </g>
    <g id="shape1">
      <path d="M17.2 58.8 Q17.2 38.6 31.45 24.3 L31.5 24.25 Q45.8 10.0 66.0 10.0 86.2 10.0 100.5 24.3 L103.5 27.55 20.05 75.75 Q17.15 67.85 17.2 58.8 M114.8 58.8 Q114.8 79.0 100.5 93.3 86.2 107.6 66.0 107.6 45.8 107.6 31.5 93.3 L30.8 92.6 113.0 45.15 Q114.85 51.6 114.8 58.8" fill="#ffffff" fill-rule="evenodd" stroke="none"/>
      <path d="M-2.8 58.8 Q-2.8 30.3 17.35 10.15 37.5 -10.0 66.0 -10.0 94.5 -10.0 114.65 10.15 118.15 13.65 121.05 17.4 L128.4 13.15 Q132.0 11.1 136.0 12.15 139.95 13.2 142.05 16.8 144.15 20.4 143.05 24.4 142.0 28.35 138.45 30.45 L130.7 34.95 Q134.75 46.0 134.8 58.8 134.8 87.3 114.65 107.4 L114.6 107.45 Q94.5 127.6 66.0 127.6 37.5 127.6 17.35 107.45 15.05 105.15 13.1 102.85 L5.0 107.5 Q1.4 109.55 -2.6 108.45 -6.6 107.35 -8.65 103.8 -10.75 100.2 -9.65 96.2 -8.55 92.2 -5.0 90.15 L2.55 85.8 Q-2.75 73.4 -2.8 58.8 M17.2 58.8 Q17.15 67.85 20.05 75.75 L103.5 27.55 100.5 24.3 Q86.2 10.0 66.0 10.0 45.8 10.0 31.5 24.25 L31.45 24.3 Q17.2 38.6 17.2 58.8 M114.8 58.8 Q114.85 51.6 113.0 45.15 L30.8 92.6 31.5 93.3 Q45.8 107.6 66.0 107.6 86.2 107.6 100.5 93.3 114.8 79.0 114.8 58.8" fill="#000000" fill-rule="evenodd" stroke="none"/>
    </g>
  </defs>
</svg>
