<?xml version="1.0" encoding="UTF-8" standalone="no"?>
<svg xmlns:ffdec="https://www.free-decompiler.com/flash" xmlns:xlink="http://www.w3.org/1999/xlink" ffdec:objectType="frame" height="392.7px" width="394.55px" xmlns="http://www.w3.org/2000/svg">
  <g transform="matrix(1.0, 0.0, 0.0, 1.0, -121.2, 91.05)">
    <use ffdec:characterId="739" height="392.7" transform="matrix(1.0, 0.0, 0.0, 1.0, 131.2, -33.05)" width="394.55" xlink:href="#sprite0"/>
    <use ffdec:characterId="741" height="156.8" transform="matrix(1.1424, 0.3061, -0.3061, 1.1424, 212.95, 10.35)" width="151.25" xlink:href="#sprite1"/>
  </g>
  <defs>
    <g id="sprite0">
      <use ffdec:characterId="738" height="392.7" transform="matrix(1.0, 0.0, 0.0, 1.0, 0.0, 0.0)" width="394.55" xlink:href="#shape0"/>
    </g>
    <g id="shape0">
      <path d="M46.45 0.15 Q52.55 -2.1 58.7 -3.85 54.45 -13.0 51.15 -18.85 47.1 -26.0 43.2 -30.35 38.1 -36.05 32.2 -38.4 28.6 -39.8 26.3 -38.9 24.0 -38.05 22.25 -34.5 19.45 -28.45 20.1 -20.8 20.6 -14.2 23.6 -6.95 26.2 -0.65 29.5 3.0 L31.8 5.3 32.6 6.1 Q39.55 2.65 46.45 0.15 M-1.4 49.85 Q-5.4 49.25 -7.85 46.1 -10.35 42.95 -9.95 38.95 -9.55 34.9 -6.45 32.3 6.35 21.5 18.95 13.7 15.0 9.7 11.45 2.55 5.25 -9.8 3.8 -20.65 2.15 -34.15 7.3 -44.65 11.45 -53.0 18.25 -56.15 25.65 -59.55 35.6 -56.75 43.0 -54.65 49.9 -49.7 56.15 -45.15 61.5 -38.55 66.15 -32.75 70.3 -25.15 73.6 -19.05 77.2 -10.6 L78.25 -8.15 Q88.85 -9.8 99.7 -10.0 127.0 -10.45 151.35 -1.9 L151.45 -1.85 Q176.1 6.65 195.35 24.3 214.25 41.65 225.85 62.6 236.95 82.45 250.85 114.45 264.2 145.3 275.85 165.2 286.85 184.05 299.2 195.25 L299.2 195.2 Q311.9 206.5 334.05 218.05 354.75 228.75 373.6 227.15 377.25 226.8 380.3 229.0 383.35 231.15 384.25 234.75 385.1 238.35 383.4 241.7 L378.1 252.45 378.0 252.65 Q369.6 270.35 342.45 294.25 315.5 318.05 278.4 327.9 241.7 337.6 204.3 333.5 166.6 329.4 135.35 312.4 101.4 294.0 81.75 264.4 62.25 235.2 56.6 215.1 L56.6 215.05 Q50.95 195.3 48.9 176.85 46.75 158.6 46.4 144.65 46.0 131.3 45.15 120.1 44.2 108.75 42.3 95.85 40.65 84.4 36.0 75.55 L36.05 75.55 Q31.3 66.7 22.85 59.1 14.55 52.15 -1.4 49.85 M259.15 311.7 L260.45 311.45 Q266.85 310.2 273.25 308.55 294.6 302.9 312.1 292.0 L312.4 291.8 Q321.9 286.25 329.0 279.5 L329.25 279.25 335.15 273.95 Q340.65 268.75 345.15 264.0 L347.8 261.05 347.95 260.9 352.95 254.9 353.35 254.35 353.65 253.95 354.0 253.45 353.9 253.6 354.5 252.8 357.0 249.1 357.55 248.3 358.35 246.95 358.45 246.8 358.05 246.75 356.3 246.5 355.6 246.4 354.85 246.25 Q340.2 243.75 324.85 235.8 300.0 222.9 285.85 210.1 L283.7 208.1 283.15 207.6 282.85 207.3 281.1 205.55 280.85 205.35 268.35 190.35 267.55 189.2 267.55 189.25 Q262.95 182.8 258.6 175.3 L258.15 174.55 257.05 172.7 250.45 160.6 246.95 153.7 243.95 147.6 234.65 127.3 232.5 122.4 222.5 100.2 215.4 85.65 209.75 74.85 208.9 73.3 208.65 72.8 208.4 72.35 208.35 72.3 205.35 67.2 205.1 66.85 197.55 56.05 197.4 55.85 197.2 55.6 197.0 55.35 196.85 55.15 195.55 53.55 192.05 49.45 188.65 45.75 187.1 44.15 183.45 40.6 182.85 40.05 182.3 39.5 182.25 39.5 182.25 39.45 181.8 39.05 176.15 34.2 Q172.7 31.45 169.05 29.0 157.85 21.5 144.85 17.0 L144.8 17.0 Q132.65 12.7 119.75 11.05 L101.95 10.0 100.05 10.0 85.5 11.05 86.3 13.6 86.55 14.4 Q88.5 20.5 89.55 25.35 92.5 26.95 94.6 29.9 97.3 33.6 97.5 37.9 97.65 41.15 96.45 44.25 95.25 47.35 92.9 49.65 90.55 51.9 87.4 53.0 84.25 54.1 81.0 53.8 76.7 53.45 73.1 50.65 69.5 47.85 68.05 43.75 66.6 39.65 67.65 35.25 68.7 30.8 71.8 27.8 L72.55 27.15 68.55 18.35 67.95 17.0 66.9 14.6 Q60.1 16.4 53.35 18.9 51.4 19.6 49.4 20.45 35.95 26.0 22.25 35.5 24.85 36.55 27.2 37.85 32.3 40.6 36.2 44.2 47.4 54.3 53.7 66.15 L53.7 66.2 Q59.95 77.9 62.1 93.0 L64.35 110.55 64.4 111.0 64.7 114.25 65.05 117.9 65.1 118.45 65.1 118.5 65.2 119.65 66.0 132.8 66.0 133.4 66.05 134.8 66.1 134.8 66.4 144.05 66.4 144.1 66.8 152.95 Q67.35 162.8 68.75 174.55 L68.75 174.6 68.9 175.9 69.05 177.2 69.65 181.5 70.0 183.5 70.55 187.0 73.55 201.05 75.85 209.55 75.8 209.55 Q79.9 223.4 91.3 242.2 L98.4 253.3 103.15 259.95 103.55 260.45 107.5 265.25 111.9 270.05 Q117.2 275.55 123.25 280.45 L123.8 280.9 124.0 281.05 126.0 282.6 Q134.7 289.3 144.9 294.8 L144.9 294.85 Q172.8 310.0 206.45 313.6 233.0 316.5 259.15 311.7" fill="#000000" fill-rule="evenodd" stroke="none"/>
      <path d="M259.15 311.7 Q233.0 316.5 206.45 313.6 172.8 310.0 144.9 294.85 L144.9 294.8 Q134.7 289.3 126.0 282.6 L156.5 258.95 200.8 223.95 Q226.85 203.3 240.95 190.75 250.15 182.55 258.15 174.55 L258.6 175.3 Q262.95 182.8 267.55 189.25 268.65 196.4 283.4 213.3 298.1 230.15 321.85 238.9 345.6 247.6 353.1 248.6 L349.5 253.2 Q341.85 262.95 334.85 270.5 330.2 275.55 324.65 280.05 318.3 285.15 310.75 289.55 L307.2 291.35 Q287.25 301.5 263.65 310.3 L259.15 311.7 M91.3 242.2 Q79.9 223.4 75.8 209.55 L75.85 209.55 73.55 201.05 73.8 202.0 Q73.55 190.55 73.7 175.75 L73.75 147.8 75.8 146.25 102.3 125.95 170.1 73.6 192.1 56.4 197.55 60.35 200.25 64.1 205.5 71.2 Q207.4 73.95 210.7 79.75 L222.95 101.25 222.5 100.2 232.5 122.4 234.65 127.3 Q208.85 147.2 155.55 189.8 L90.9 241.5 91.3 242.2 M68.55 18.35 L72.55 27.15 71.8 27.8 Q68.7 30.8 67.65 35.25 66.6 39.65 68.05 43.75 69.5 47.85 73.1 50.65 76.7 53.45 81.0 53.8 84.25 54.1 87.4 53.0 90.55 51.9 92.9 49.65 95.25 47.35 96.45 44.25 97.65 41.15 97.5 37.9 97.3 33.6 94.6 29.9 92.5 26.95 89.55 25.35 88.5 20.5 86.55 14.4 L93.45 13.35 Q104.85 13.25 116.9 15.6 135.2 19.15 154.1 28.0 159.0 30.3 163.75 32.85 L146.45 45.9 93.2 87.4 Q80.3 97.5 70.4 105.85 64.7 72.85 48.9 51.2 39.95 38.9 30.15 35.7 40.15 28.85 52.3 23.85 L62.4 20.2 62.85 20.05 63.4 19.85 68.55 18.35" fill="#5b4237" fill-rule="evenodd" stroke="none"/>
      <path d="M267.55 189.25 L267.55 189.2 268.35 190.35 280.85 205.35 281.1 205.55 282.85 207.3 283.15 207.6 283.7 208.1 285.85 210.1 Q300.0 222.9 324.85 235.8 340.2 243.75 354.85 246.25 L355.6 246.4 356.3 246.5 358.05 246.75 358.45 246.8 358.35 246.95 357.55 248.3 357.0 249.1 354.5 252.8 353.9 253.6 354.0 253.45 353.65 253.95 353.35 254.35 352.95 254.9 347.95 260.9 347.8 261.05 345.15 264.0 Q340.65 268.75 335.15 273.95 L329.25 279.25 329.0 279.5 Q321.9 286.25 312.4 291.8 L312.1 292.0 Q294.6 302.9 273.25 308.55 266.85 310.2 260.45 311.45 L259.15 311.7 263.65 310.3 Q287.25 301.5 307.2 291.35 L310.75 289.55 Q318.3 285.15 324.65 280.05 330.2 275.55 334.85 270.5 341.85 262.95 349.5 253.2 L353.1 248.6 Q345.6 247.6 321.85 238.9 298.1 230.15 283.4 213.3 268.65 196.4 267.55 189.25 M126.0 282.6 L124.0 281.05 123.8 280.9 123.25 280.45 Q117.2 275.55 111.9 270.05 L107.5 265.25 103.55 260.45 103.15 259.95 98.4 253.3 91.3 242.2 90.9 241.5 155.55 189.8 Q208.85 147.2 234.65 127.3 L243.95 147.6 246.95 153.7 250.45 160.6 257.05 172.7 258.15 174.55 Q250.15 182.55 240.95 190.75 226.85 203.3 200.8 223.95 L156.5 258.95 126.0 282.6 M73.55 201.05 L70.55 187.0 70.0 183.5 69.65 181.5 69.05 177.2 68.9 175.9 68.75 174.6 68.75 174.55 Q67.35 162.8 66.8 152.95 L66.4 144.1 66.4 144.05 66.1 134.8 66.05 134.8 66.0 133.4 66.0 132.8 65.2 119.65 65.1 118.5 65.1 118.45 65.05 117.9 64.7 114.25 64.4 111.0 64.35 110.55 62.1 93.0 Q59.95 77.9 53.7 66.2 L53.7 66.15 Q47.4 54.3 36.2 44.2 32.3 40.6 27.2 37.85 24.85 36.55 22.25 35.5 35.95 26.0 49.4 20.45 51.4 19.6 53.35 18.9 60.1 16.4 66.9 14.6 L67.95 17.0 68.55 18.35 63.4 19.85 62.85 20.05 62.4 20.2 52.3 23.85 Q40.15 28.85 30.15 35.7 39.95 38.9 48.9 51.2 64.7 72.85 70.4 105.85 80.3 97.5 93.2 87.4 L146.45 45.9 163.75 32.85 Q159.0 30.3 154.1 28.0 135.2 19.15 116.9 15.6 104.85 13.25 93.45 13.35 L86.55 14.4 86.3 13.6 85.5 11.05 100.05 10.0 101.95 10.0 119.75 11.05 Q132.65 12.7 144.8 17.0 L144.85 17.0 Q157.85 21.5 169.05 29.0 172.7 31.45 176.15 34.2 L181.8 39.05 182.25 39.45 182.25 39.5 182.3 39.5 182.85 40.05 183.45 40.6 187.1 44.15 188.65 45.75 192.05 49.45 195.55 53.55 196.85 55.15 197.0 55.35 197.2 55.6 197.4 55.85 197.55 56.05 205.1 66.85 205.35 67.2 208.35 72.3 208.4 72.35 208.65 72.8 208.9 73.3 209.75 74.85 215.4 85.65 222.5 100.2 222.95 101.25 210.7 79.75 Q207.4 73.95 205.5 71.2 L200.25 64.1 197.55 60.35 192.1 56.4 170.1 73.6 102.3 125.95 75.8 146.25 73.75 147.8 73.7 175.75 Q73.55 190.55 73.8 202.0 L73.55 201.05" fill="#74584c" fill-rule="evenodd" stroke="none"/>
    </g>
    <g id="sprite1">
      <use ffdec:characterId="740" height="156.8" transform="matrix(1.0, 0.0, 0.0, 1.0, 0.0, 0.0)" width="151.25" xlink:href="#shape1"/>
    </g>
    <g id="shape1">
      <path d="M84.4 43.85 Q99.95 55.35 135.65 85.45 L124.5 90.0 138.75 90.45 139.3 90.45 144.7 94.8 Q154.1 102.2 156.9 105.0 163.7 111.8 170.85 120.5 176.6 127.55 180.55 134.3 184.1 140.6 186.15 146.85 187.7 151.6 187.5 155.05 L187.1 156.9 186.5 157.45 Q184.75 159.4 181.1 160.3 L172.6 161.25 Q165.65 161.85 160.55 161.45 L157.95 161.25 146.9 159.65 Q137.5 148.8 128.95 136.15 131.35 145.45 135.6 152.0 139.0 157.15 140.1 158.0 L138.9 157.6 Q105.65 146.85 83.6 123.5 61.55 100.1 49.55 79.15 37.6 58.2 36.7 49.7 L52.8 54.7 Q48.15 47.7 43.45 38.9 40.45 33.45 38.3 26.15 35.9 18.0 36.3 10.65 36.5 8.2 37.4 6.55 38.35 4.8 39.6 4.8 43.05 4.8 46.2 9.8 48.9 14.1 48.9 16.6 49.3 20.45 52.0 29.55 53.95 35.85 55.8 39.7 L57.2 42.75 Q59.3 46.85 61.7 50.8 L61.7 27.85 Q68.85 32.3 84.4 43.85 M96.1 94.6 Q115.8 111.8 134.85 125.5 153.9 139.2 163.25 140.3 148.0 133.5 115.65 107.4 83.35 81.25 72.8 68.95 62.3 56.6 69.35 67.0 76.4 77.4 96.1 94.6" fill="#000000" fill-rule="evenodd" stroke="none"/>
      <path d="M96.1 94.6 Q76.4 77.4 69.35 67.0 62.3 56.6 72.8 68.95 83.35 81.25 115.65 107.4 148.0 133.5 163.25 140.3 153.9 139.2 134.85 125.5 115.8 111.8 96.1 94.6" fill="#ffffff" fill-rule="evenodd" stroke="none"/>
    </g>
  </defs>
</svg>
