<?xml version="1.0" encoding="UTF-8" standalone="no"?>
<svg xmlns:ffdec="https://www.free-decompiler.com/flash" xmlns:xlink="http://www.w3.org/1999/xlink" ffdec:objectType="frame" height="340.6px" width="276.6px" xmlns="http://www.w3.org/2000/svg">
  <g transform="matrix(1.0, 0.0, 0.0, 1.0, 24.0, 67.3)">
    <use ffdec:characterId="684" height="340.6" transform="matrix(1.0, 0.0, 0.0, 1.0, -24.0, -39.8)" width="276.6" xlink:href="#sprite0"/>
    <use ffdec:characterId="686" height="164.0" transform="matrix(1.0, 0.0, 0.0, 1.0, 114.1, 166.0)" width="174.3" xlink:href="#sprite1"/>
  </g>
  <defs>
    <g id="sprite0">
      <use ffdec:characterId="683" height="340.6" transform="matrix(1.0, 0.0, 0.0, 1.0, 0.0, 0.0)" width="276.6" xlink:href="#shape0"/>
    </g>
    <g id="shape0">
      <path d="M276.6 229.6 Q276.6 233.3 274.0 235.9 L272.95 236.85 211.5 309.95 211.45 309.95 Q210.2 311.45 208.35 312.3 L207.6 312.6 205.25 313.1 204.65 313.1 71.95 313.1 71.85 313.1 71.35 313.1 69.75 312.85 68.2 312.3 Q66.4 311.45 65.1 309.95 L3.65 236.85 2.6 235.9 Q0.0 233.3 0.0 229.6 L0.0 127.25 Q0.0 123.55 2.6 120.95 L3.75 120.0 65.15 46.95 Q66.4 45.4 68.25 44.6 68.65 44.35 69.15 44.25 L71.95 43.75 92.45 43.75 Q91.7 38.65 93.25 32.65 95.55 23.8 101.65 16.4 107.6 9.15 115.9 4.95 121.05 2.35 126.7 1.2 L131.1 0.45 134.25 0.1 138.3 0.0 142.35 0.1 145.55 0.45 149.9 1.2 Q155.6 2.35 160.7 4.95 169.0 9.15 174.95 16.4 181.05 23.8 183.35 32.65 184.9 38.65 184.15 43.75 L204.65 43.75 207.0 44.1 208.4 44.6 209.45 45.15 209.75 45.4 210.85 46.3 211.0 46.45 211.45 46.95 272.85 120.0 274.0 120.95 Q276.6 123.55 276.6 127.25 L276.6 229.6 M168.65 58.9 Q166.1 56.3 166.1 52.65 166.1 49.6 167.85 47.3 L168.05 46.6 Q168.7 43.3 167.25 38.8 165.05 31.95 160.0 26.65 155.7 22.1 150.3 19.8 146.2 18.35 142.0 17.8 L138.3 17.5 134.6 17.8 Q130.4 18.35 126.3 19.8 120.9 22.1 116.6 26.65 111.55 31.95 109.35 38.8 107.9 43.3 108.55 46.6 L108.75 47.3 Q110.5 49.6 110.5 52.65 110.5 56.35 107.9 58.95 L107.7 59.15 Q105.55 61.15 102.75 61.5 L101.6 61.55 76.1 61.55 17.85 130.9 17.85 193.25 17.85 225.95 24.95 234.4 58.4 274.25 58.45 274.25 60.55 276.75 60.55 276.8 67.25 284.75 67.3 284.8 68.4 286.15 76.1 295.3 113.3 295.3 200.5 295.3 258.75 225.95 258.75 152.4 258.75 130.9 226.05 91.95 200.5 61.55 175.0 61.55 Q171.3 61.55 168.7 58.95 L168.65 58.9 M131.05 52.3 Q127.9 50.1 126.45 46.25 125.05 42.45 125.95 38.65 127.3 33.1 132.2 30.25 137.15 27.4 142.65 29.1 145.25 29.85 147.35 31.6 149.45 33.45 150.65 35.85 152.7 40.25 151.5 44.85 150.45 49.35 146.45 52.25 144.1 53.9 141.2 54.45 138.35 55.05 135.55 54.35 133.1 53.75 131.05 52.3" fill="#000000" fill-rule="evenodd" stroke="none"/>
      <path d="M20.9 148.45 L20.15 149.45 20.9 148.4 20.9 148.45" fill="#a9a9a9" fill-rule="evenodd" stroke="none"/>
      <path d="M102.75 61.5 Q105.55 61.15 107.7 59.15 L107.9 58.95 Q110.5 56.35 110.5 52.65 110.5 49.6 108.75 47.3 L108.55 46.6 Q107.9 43.3 109.35 38.8 111.55 31.95 116.6 26.65 120.9 22.1 126.3 19.8 130.4 18.35 134.6 17.8 L138.3 17.5 142.0 17.8 Q146.2 18.35 150.3 19.8 155.7 22.1 160.0 26.65 165.05 31.95 167.25 38.8 168.7 43.3 168.05 46.6 L167.85 47.3 Q166.1 49.6 166.1 52.65 166.1 56.3 168.65 58.9 L159.45 70.05 122.85 113.8 Q98.4 142.65 76.6 169.75 L40.05 215.4 24.95 234.4 17.85 225.95 17.85 193.25 Q23.75 156.75 25.15 137.55 57.9 100.2 84.0 67.6 L89.4 66.0 Q102.25 62.05 102.75 61.5 M226.05 91.95 L258.75 130.9 258.75 152.4 250.35 215.95 191.85 286.4 Q166.9 288.6 113.3 295.3 L76.1 295.3 68.4 286.15 69.1 286.95 Q82.25 269.3 97.15 250.2 112.05 231.1 124.2 216.25 L166.75 163.6 Q197.2 125.75 224.75 93.5 L225.15 93.05 226.05 91.95 M131.05 52.3 Q133.1 53.75 135.55 54.35 138.35 55.05 141.2 54.45 144.1 53.9 146.45 52.25 150.45 49.35 151.5 44.85 152.7 40.25 150.65 35.85 149.45 33.45 147.35 31.6 145.25 29.85 142.65 29.1 137.15 27.4 132.2 30.25 127.3 33.1 125.95 38.65 125.05 42.45 126.45 46.25 127.9 50.1 131.05 52.3" fill="#b17373" fill-rule="evenodd" stroke="none"/>
      <path d="M168.65 58.9 L168.7 58.95 Q171.3 61.55 175.0 61.55 L200.5 61.55 226.05 91.95 225.15 93.05 224.75 93.5 Q197.2 125.75 166.75 163.6 L124.2 216.25 Q112.05 231.1 97.15 250.2 82.25 269.3 69.1 286.95 L68.4 286.15 67.3 284.8 67.25 284.75 60.55 276.8 60.55 276.75 58.45 274.25 58.4 274.25 24.95 234.4 40.05 215.4 76.6 169.75 Q98.4 142.65 122.85 113.8 L159.45 70.05 168.65 58.9 M258.75 152.4 L258.75 225.95 200.5 295.3 113.3 295.3 Q166.9 288.6 191.85 286.4 L250.35 215.95 258.75 152.4 M17.85 193.25 L17.85 130.9 76.1 61.55 101.6 61.55 102.75 61.5 Q102.25 62.05 89.4 66.0 L84.0 67.6 Q57.9 100.2 25.15 137.55 23.75 156.75 17.85 193.25 M20.9 148.45 L20.9 148.4 20.15 149.45 20.9 148.45" fill="#de9494" fill-rule="evenodd" stroke="none"/>
      <path d="M135.4 45.0 Q133.7 44.0 132.8 41.65 132.3 40.35 131.7 37.25 128.05 18.6 110.95 0.05 107.25 -3.9 104.15 -6.3 100.15 -9.45 96.15 -10.8 92.7 -12.0 90.65 -10.85 89.2 -10.0 88.3 -7.9 86.25 -3.15 88.25 3.1 90.35 9.75 96.25 15.75 100.7 20.3 108.3 25.3 111.45 27.45 109.95 29.05 108.4 30.6 103.7 32.5 98.95 34.35 105.0 35.95 111.0 37.55 109.15 37.9 106.4 38.4 102.15 37.0 93.0 33.9 85.7 26.9 78.55 20.05 74.75 10.95 69.75 -1.15 72.7 -11.4 74.3 -17.1 78.35 -21.3 82.55 -25.7 88.0 -27.0 94.05 -28.45 101.45 -25.85 108.6 -23.35 115.5 -17.7 121.0 -13.15 127.1 -5.95 134.3 2.6 138.6 10.3 143.85 19.65 145.4 28.75 146.55 35.5 144.85 40.0 143.6 43.2 141.2 44.75 139.85 45.55 138.3 45.65 136.7 45.75 135.4 45.0" fill="#000000" fill-rule="evenodd" stroke="none"/>
    </g>
    <g id="sprite1">
      <use ffdec:characterId="685" height="164.0" transform="matrix(1.0, 0.0, 0.0, 1.0, 0.0, 0.0)" width="174.3" xlink:href="#shape1"/>
    </g>
    <g id="shape1">
      <path d="M88.0 -42.15 Q87.45 -37.4 86.2 -34.25 84.7 -30.1 80.15 -24.45 77.2 -21.0 75.05 -19.4 71.8 -17.05 67.95 -16.3 63.95 -15.45 60.2 -16.3 56.4 -17.05 53.1 -19.5 50.0 -21.9 48.1 -25.25 45.6 -30.1 45.45 -35.95 45.2 -44.35 49.65 -52.1 54.15 -59.8 61.6 -63.65 65.6 -65.8 69.6 -66.05 75.95 -66.45 81.15 -62.15 85.85 -58.3 87.5 -51.65 88.4 -47.7 88.0 -42.15 M38.75 -60.0 Q33.05 -55.2 25.95 -55.45 18.3 -55.75 13.6 -61.05 11.1 -63.9 9.6 -68.1 4.65 -81.25 9.55 -96.1 12.0 -103.1 15.65 -107.25 20.5 -112.5 26.65 -113.25 32.7 -114.0 38.15 -110.2 42.85 -107.0 45.95 -101.05 48.2 -96.35 48.9 -91.35 49.25 -88.15 48.85 -84.1 48.5 -79.05 47.1 -74.1 44.5 -64.9 38.75 -60.0 M-46.3 36.45 Q-49.75 31.25 -51.15 25.4 -52.45 19.35 -51.5 13.5 -50.45 7.3 -47.0 1.5 -42.7 -5.6 -36.2 -10.4 -31.5 -13.95 -26.5 -15.75 -26.0 -19.8 -24.05 -23.6 L-21.55 -27.35 Q-19.3 -31.05 -15.7 -33.9 -11.3 -37.25 -6.0 -38.8 L-1.0 -39.55 Q4.15 -40.15 9.15 -38.8 14.45 -37.35 18.85 -33.95 22.85 -30.85 25.2 -26.7 L27.2 -23.55 Q29.2 -19.75 29.65 -15.7 34.6 -13.95 39.3 -10.3 45.85 -5.55 50.15 1.55 53.6 7.35 54.6 13.55 55.6 19.4 54.3 25.5 52.9 31.35 49.45 36.45 45.2 42.8 39.1 46.25 29.3 52.0 16.45 50.1 8.55 49.05 1.55 45.15 -5.5 49.0 -13.3 50.05 -26.2 51.95 -36.05 46.15 -42.05 42.65 -46.3 36.45 M-35.55 -60.1 Q-41.35 -65.0 -43.95 -74.15 -45.35 -79.1 -45.7 -84.15 -46.1 -88.2 -45.75 -91.45 -45.1 -96.5 -42.8 -101.1 -39.7 -107.05 -35.0 -110.3 -29.55 -114.1 -23.5 -113.35 -17.3 -112.55 -12.55 -107.3 -8.9 -103.2 -6.4 -96.15 -1.5 -81.35 -6.45 -68.2 -8.0 -63.95 -10.45 -61.2 -15.15 -55.8 -22.8 -55.55 -29.9 -55.25 -35.55 -60.1 M-86.1 -42.15 Q-86.5 -47.7 -85.6 -51.65 -83.95 -58.3 -79.25 -62.15 -74.05 -66.45 -67.7 -66.05 -63.7 -65.8 -59.65 -63.65 -52.25 -59.8 -47.75 -52.1 -43.3 -44.35 -43.55 -35.95 -43.7 -30.1 -46.2 -25.25 -48.1 -21.9 -51.2 -19.5 -54.5 -17.05 -58.3 -16.3 -62.05 -15.45 -66.05 -16.3 -69.9 -17.05 -73.15 -19.4 -75.3 -21.0 -78.25 -24.45 -82.8 -30.1 -84.3 -34.25 -85.55 -37.4 -86.1 -42.15" fill="#000000" fill-rule="evenodd" stroke="none"/>
    </g>
  </defs>
</svg>
