<?xml version="1.0" encoding="UTF-8" standalone="no"?>
<svg xmlns:ffdec="https://www.free-decompiler.com/flash" xmlns:xlink="http://www.w3.org/1999/xlink" ffdec:objectType="frame" height="424.15px" width="313.45px" xmlns="http://www.w3.org/2000/svg">
  <g transform="matrix(1.0, 0.0, 0.0, 1.0, 72.4, 90.05)">
    <use ffdec:characterId="694" height="424.15" transform="matrix(1.0, 0.0, 0.0, 1.0, -74.0, -90.05)" width="313.45" xlink:href="#sprite0"/>
    <use ffdec:characterId="696" height="154.35" transform="matrix(0.8493, 0.8493, -0.8493, 0.8493, 69.35, 115.8)" width="154.45" xlink:href="#sprite1"/>
  </g>
  <defs>
    <g id="sprite0">
      <use ffdec:characterId="693" height="424.15" transform="matrix(1.0, 0.0, 0.0, 1.0, 0.0, 0.0)" width="313.45" xlink:href="#shape0"/>
    </g>
    <g id="shape0">
      <path d="M217.15 80.2 Q201.4 62.55 183.55 45.7 L179.85 42.25 179.3 41.75 178.95 41.45 172.65 35.7 163.2 27.45 158.0 23.0 145.0 34.25 152.6 41.15 153.4 41.95 154.5 41.6 Q158.3 40.5 162.35 41.6 164.0 42.0 165.45 42.75 L166.55 43.4 168.45 44.8 168.55 44.9 168.6 44.95 168.65 45.0 169.15 45.45 169.3 45.6 170.2 46.65 170.25 46.7 170.2 46.65 171.6 48.7 172.55 50.8 173.0 52.25 173.05 52.35 Q173.55 54.45 173.5 56.5 L172.95 60.05 Q171.9 63.9 168.9 66.8 165.95 69.65 162.1 70.6 L156.25 70.85 154.25 70.35 Q151.45 69.5 149.25 67.8 144.2 62.8 143.9 59.0 L143.9 58.95 Q143.25 55.8 143.95 52.75 L143.7 52.6 140.9 50.65 135.0 46.5 133.55 45.5 133.05 45.15 Q94.65 85.05 67.55 122.0 37.25 163.3 21.05 200.9 L23.0 205.85 23.2 206.45 29.8 222.25 30.65 224.2 32.9 229.2 Q45.2 256.2 60.85 281.9 L64.05 287.1 66.25 290.55 67.35 292.25 67.8 292.95 68.25 293.65 68.65 294.3 70.65 297.3 79.4 310.4 79.7 310.8 84.35 317.4 Q90.25 325.65 96.5 333.75 L97.25 334.75 Q101.15 339.75 105.4 344.4 123.7 366.6 144.8 387.7 L150.05 392.85 152.1 394.85 152.7 395.45 153.05 395.8 154.05 396.8 157.95 400.45 158.0 400.5 161.3 397.4 Q253.45 309.25 295.05 200.9 L292.85 195.9 292.0 194.0 291.6 193.15 284.75 178.85 284.65 178.65 284.8 178.9 284.25 177.8 284.15 177.65 283.95 177.25 Q275.8 161.15 266.2 145.65 L266.25 145.55 260.8 137.05 259.25 134.8 258.8 134.05 250.15 121.5 248.0 118.5 239.1 106.6 236.9 103.8 234.75 101.05 230.75 96.1 229.75 94.9 223.4 87.35 217.15 80.2 M164.35 2.3 Q267.85 87.1 313.3 192.85 316.8 201.0 313.3 209.15 267.9 326.9 164.75 421.55 161.9 424.15 158.0 424.15 154.1 424.15 151.25 421.55 49.5 328.2 4.0 212.4 -0.8 201.15 4.0 189.9 33.05 123.65 85.05 65.7 50.95 58.4 27.7 39.8 L21.5 34.2 Q18.35 30.85 16.65 27.4 14.7 23.45 14.55 19.3 14.4 14.8 16.45 11.35 19.25 6.55 26.1 3.8 33.3 0.95 44.4 0.5 77.4 -0.95 108.4 12.1 118.95 16.55 128.4 22.35 139.65 12.15 151.7 2.3 154.45 0.0 158.0 0.0 161.55 0.0 164.35 2.3 M83.35 21.0 Q64.9 16.1 46.05 16.25 38.15 16.25 32.35 17.6 30.15 18.0 29.5 19.15 28.75 20.55 29.8 22.55 31.4 25.6 36.05 28.9 51.75 40.45 70.45 47.0 83.3 51.45 96.55 53.25 105.8 43.55 115.7 34.1 100.45 25.6 83.35 21.0 M157.0 70.95 L160.2 70.95 158.8 71.05 157.45 71.0 157.0 70.95" fill="#000000" fill-rule="evenodd" stroke="none"/>
      <path d="M217.15 80.2 L223.4 87.35 229.75 94.9 225.7 90.05 Q144.35 183.95 71.0 283.35 L66.05 290.1 68.25 293.55 69.35 295.25 69.8 295.95 70.25 296.65 70.65 297.3 68.65 294.3 68.25 293.65 67.8 292.95 67.35 292.25 66.25 290.55 64.05 287.1 60.85 281.9 60.95 280.05 Q60.85 278.1 60.05 275.8 L58.4 271.7 54.2 259.8 33.3 202.8 Q52.8 162.3 66.5 141.15 80.2 120.05 97.65 98.75 115.1 77.45 140.9 50.65 L143.7 52.6 143.95 52.75 Q143.25 55.8 143.9 58.95 L143.9 59.0 Q144.2 62.8 149.25 67.8 151.45 69.5 154.25 70.35 L156.25 70.85 162.1 70.6 Q165.95 69.65 168.9 66.8 171.9 63.9 172.95 60.05 L173.5 56.5 Q173.55 54.45 173.05 52.35 L173.0 52.25 172.55 50.8 171.6 48.7 170.2 46.65 170.25 46.7 180.6 54.05 205.8 72.65 Q210.8 76.35 213.35 77.95 L217.15 80.2 M266.2 145.65 Q275.8 161.15 283.95 177.25 L284.15 177.65 284.25 177.8 284.8 178.9 284.65 178.65 284.75 178.85 290.2 201.75 273.4 238.6 Q261.2 264.4 250.15 282.5 241.3 297.0 229.2 313.35 220.3 325.4 206.3 342.75 184.15 370.15 157.75 393.15 L144.8 387.7 Q123.7 366.6 105.4 344.4 167.0 263.55 232.55 186.1 255.45 159.1 266.2 145.65 M157.0 70.95 L157.45 71.0 158.8 71.05 160.2 70.95 157.0 70.95" fill="#425d3d" fill-rule="evenodd" stroke="none"/>
      <path d="M236.9 103.8 L239.1 106.6 248.0 118.5 250.15 121.5 258.8 134.05 259.25 134.8 252.15 124.5 250.0 121.5 242.35 111.1 236.9 103.8 M152.7 395.45 L152.1 394.85 150.05 392.85 151.9 394.65 152.7 395.45" fill="url(#gradient0)" fill-rule="evenodd" stroke="none"/>
      <path d="M170.25 46.7 L170.2 46.65 169.3 45.6 169.15 45.45 168.65 45.0 168.6 44.95 168.55 44.9 168.45 44.8 166.55 43.4 165.45 42.75 Q164.0 42.0 162.35 41.6 158.3 40.5 154.5 41.6 L153.4 41.95 152.6 41.15 145.0 34.25 158.0 23.0 163.2 27.45 172.65 35.7 178.95 41.45 179.3 41.75 179.85 42.25 183.55 45.7 Q201.4 62.55 217.15 80.2 L213.35 77.95 Q210.8 76.35 205.8 72.65 L180.6 54.05 170.25 46.7 M229.75 94.9 L230.75 96.1 234.75 101.05 236.9 103.8 242.35 111.1 250.0 121.5 252.15 124.5 259.25 134.8 260.8 137.05 266.25 145.55 266.2 145.65 Q255.45 159.1 232.55 186.1 167.0 263.55 105.4 344.4 101.15 339.75 97.25 334.75 L96.5 333.75 Q90.25 325.65 84.35 317.4 L79.7 310.8 79.4 310.4 70.65 297.3 70.25 296.65 69.8 295.95 69.35 295.25 68.25 293.55 66.05 290.1 71.0 283.35 Q144.35 183.95 225.7 90.05 L229.75 94.9 M284.75 178.85 L291.6 193.15 292.0 194.0 292.85 195.9 295.05 200.9 Q253.45 309.25 161.3 397.4 L158.0 400.5 157.95 400.45 154.05 396.8 153.05 395.8 152.7 395.45 151.9 394.65 150.05 392.85 144.8 387.7 157.75 393.15 Q184.15 370.15 206.3 342.75 220.3 325.4 229.2 313.35 241.3 297.0 250.15 282.5 261.2 264.4 273.4 238.6 L290.2 201.75 284.75 178.85 M60.85 281.9 Q45.2 256.2 32.9 229.2 L30.65 224.2 29.8 222.25 23.2 206.45 23.0 205.85 21.05 200.9 Q37.25 163.3 67.55 122.0 94.65 85.05 133.05 45.15 L133.55 45.5 135.0 46.5 140.9 50.65 Q115.1 77.45 97.65 98.75 80.2 120.05 66.5 141.15 52.8 162.3 33.3 202.8 L54.2 259.8 58.4 271.7 60.05 275.8 Q60.85 278.1 60.95 280.05 L60.85 281.9 M143.9 58.95 L143.9 59.0 143.9 58.95" fill="#668361" fill-rule="evenodd" stroke="none"/>
    </g>
    <linearGradient gradientTransform="matrix(0.0851, 0.0698, -0.633, 0.7717, 250.35, 111.1)" gradientUnits="userSpaceOnUse" id="gradient0" spreadMethod="pad" x1="-819.2" x2="819.2">
      <stop offset="0.0" stop-color="#375133"/>
      <stop offset="1.0" stop-color="#2f432b"/>
    </linearGradient>
    <g id="sprite1">
      <use ffdec:characterId="695" height="154.35" transform="matrix(1.0, 0.0, 0.0, 1.0, 0.0, 0.0)" width="154.45" xlink:href="#shape1"/>
    </g>
    <g id="shape1">
      <path d="M15.35 -29.45 L14.15 -28.25 13.0 -28.95 Q10.6 -32.0 13.15 -36.25 L15.35 -29.45 M30.1 -15.95 L29.85 -15.95 29.95 -16.35 30.1 -15.95 M22.25 25.75 L22.4 25.95 22.85 26.3 23.3 26.7 23.4 26.8 23.55 26.95 24.0 27.4 24.15 27.55 24.25 27.65 24.35 27.75 24.4 27.8 24.8 28.25 25.0 28.5 25.05 28.55 25.15 28.6 25.4 28.8 25.55 28.95 25.95 29.35 26.1 29.5 24.15 28.1 24.4 28.7 24.4 28.75 24.75 28.9 25.0 29.0 25.55 29.35 26.25 29.8 25.8 29.6 25.7 29.55 24.5 29.05 24.65 29.8 24.05 28.9 22.65 28.3 22.15 27.45 22.55 27.55 22.1 27.25 22.1 27.35 22.0 27.2 21.4 26.85 21.8 26.9 21.0 25.7 20.95 25.6 20.3 24.55 20.25 24.45 20.3 24.45 21.15 24.9 22.25 25.75 22.1 25.5 21.05 24.75 20.2 24.3 20.1 24.15 20.15 24.2 20.3 24.3 21.0 24.7 20.1 24.05 20.0 24.0 20.1 24.05 19.8 23.55 20.5 24.05 20.05 23.5 18.8 23.0 18.75 22.95 18.1 22.7 17.5 21.7 17.55 21.9 17.7 22.35 17.75 22.55 17.8 22.7 18.15 22.8 18.85 23.05 19.1 23.75 19.15 24.05 19.2 24.45 20.4 24.8 20.65 25.45 20.65 25.6 20.9 26.5 20.9 26.8 20.95 27.25 20.95 27.35 21.25 27.4 22.1 27.45 22.1 27.75 22.05 28.05 21.15 27.65 20.95 27.35 21.0 27.6 20.35 27.35 20.95 27.35 20.9 27.25 19.9 26.85 20.6 26.8 20.2 26.1 19.1 25.4 18.95 25.85 18.6 25.3 18.9 25.3 18.4 25.0 18.05 24.45 18.1 24.8 17.5 24.45 18.0 24.4 18.1 24.4 19.2 24.45 18.6 23.55 17.9 23.2 18.0 23.9 18.05 24.35 18.0 24.35 17.0 23.95 17.7 23.9 17.0 22.7 16.45 22.45 16.85 22.5 16.3 21.6 16.3 21.95 16.25 22.35 16.2 22.4 16.05 22.95 15.15 21.55 15.2 21.8 14.6 21.55 15.1 21.5 15.2 21.5 16.25 21.55 16.3 21.55 16.5 21.6 15.65 21.1 16.0 21.15 15.2 19.9 15.95 20.15 16.25 21.25 17.5 21.7 17.2 21.25 17.4 21.4 18.1 21.8 18.45 22.05 18.0 21.4 17.5 20.9 17.3 20.7 17.8 21.15 18.2 21.6 18.35 21.75 18.5 21.9 18.55 21.95 18.65 22.05 19.05 22.5 19.2 22.7 19.55 22.95 19.7 23.1 20.0 23.45 20.65 24.05 20.85 24.25 20.95 24.4 21.0 24.45 21.15 24.65 21.4 24.8 21.55 24.9 22.0 25.4 22.15 25.55 22.1 25.5 22.45 25.85 22.65 26.05 22.25 25.75 M30.05 -13.4 L30.6 -12.7 30.45 -12.85 30.05 -13.4 M8.1 11.9 L8.25 12.2 Q8.75 13.2 7.75 11.75 L7.75 11.7 8.1 11.9 8.25 12.0 8.25 12.05 8.1 11.9 M7.7 11.1 L7.5 10.95 7.25 10.65 7.55 10.95 7.7 11.1 7.75 11.15 7.9 11.3 7.7 11.1 M7.35 14.3 L6.95 13.7 7.3 13.7 6.75 13.35 6.35 12.75 6.3 12.7 5.4 12.35 6.1 12.3 6.6 12.35 4.35 11.3 4.9 11.1 3.0 9.95 4.7 10.0 5.25 10.9 6.05 11.05 6.6 11.25 6.55 11.2 6.9 11.3 6.95 11.35 7.15 12.15 7.2 12.4 7.2 12.55 7.2 12.6 7.25 12.65 7.3 13.1 7.3 13.7 7.35 14.15 7.35 14.2 7.35 14.3 M9.35 15.0 L9.3 14.95 9.3 15.0 9.35 15.0 9.3 15.05 9.3 15.15 9.25 15.1 9.05 15.3 8.85 15.5 8.3 15.25 8.9 15.05 9.05 15.05 9.15 15.0 8.0 14.75 8.45 14.75 8.75 14.8 9.1 14.85 7.8 14.0 8.25 13.95 8.15 13.8 9.0 14.0 9.1 14.0 9.3 14.85 9.45 14.9 9.35 15.0 10.05 15.05 10.05 15.0 10.1 15.05 10.15 15.25 11.45 15.55 11.4 15.45 11.5 15.5 11.5 15.55 11.6 15.6 11.5 15.55 11.55 15.6 11.75 15.7 12.0 15.8 12.05 15.85 12.2 16.15 12.6 16.4 12.35 16.05 12.35 16.0 11.55 14.95 11.7 15.1 11.8 15.2 12.0 15.4 12.25 15.65 12.3 15.75 12.55 15.95 12.7 16.1 12.95 16.35 13.1 16.5 13.2 16.6 13.4 16.85 13.6 17.15 13.8 17.25 13.85 17.35 13.7 17.25 13.0 16.95 13.1 17.1 12.95 16.9 12.45 16.65 12.55 16.95 12.6 17.1 13.1 17.25 13.4 17.4 14.05 17.8 13.25 17.2 13.15 17.15 13.25 17.2 Q13.6 17.35 13.95 17.6 L14.05 17.8 14.7 18.25 14.9 18.4 15.0 18.5 14.85 18.25 14.65 18.1 14.45 17.95 14.05 17.5 14.4 17.8 14.65 18.05 14.85 18.25 14.9 18.3 15.3 18.7 15.2 18.65 14.85 18.35 14.75 18.3 14.8 18.35 12.7 17.35 12.9 17.9 12.05 16.5 11.85 16.4 11.9 16.55 10.45 15.7 10.4 15.6 10.2 15.5 10.25 15.6 10.3 16.2 9.35 15.75 9.4 16.1 8.8 15.75 9.1 15.65 9.25 15.6 9.35 15.55 10.0 15.5 10.2 15.5 9.35 15.0 M8.7 12.85 L8.75 13.0 8.7 12.85 M10.15 13.55 L9.95 13.4 10.05 13.55 10.4 13.85 10.15 13.55 10.2 13.6 10.45 13.85 10.5 13.9 10.45 13.9 10.5 13.95 10.7 14.2 10.85 14.35 11.2 14.65 11.35 14.8 10.6 14.5 10.65 14.6 10.3 14.1 10.25 14.1 10.2 14.1 10.25 14.15 10.4 14.4 10.45 14.5 10.65 14.6 11.15 14.9 10.65 14.65 10.5 14.55 10.55 14.6 9.85 14.15 9.85 14.2 9.85 14.3 10.0 14.35 9.9 14.45 9.75 14.6 9.5 14.15 9.45 14.1 9.1 13.55 8.95 13.45 9.0 13.65 9.05 13.85 7.85 13.35 7.5 12.7 7.3 12.6 7.45 12.6 7.3 12.4 8.65 12.75 8.5 12.55 8.55 12.6 8.7 12.7 9.25 13.0 9.25 13.05 9.45 13.15 9.7 13.25 9.4 12.9 8.85 12.45 8.8 12.4 7.95 11.35 8.45 11.85 8.6 12.0 8.8 12.2 9.2 12.6 9.1 12.5 9.5 12.9 9.65 13.05 9.8 13.2 9.85 13.3 10.05 13.45 10.15 13.55 M1.45 12.4 L4.5 14.0 8.5 15.85 7.65 16.75 7.5 16.85 Q6.95 17.05 6.9 17.45 L6.9 17.5 Q3.95 15.5 4.0 14.6 L1.45 12.5 1.45 12.4 1.4 12.4 1.1 11.65 1.45 12.4 M12.95 17.95 L13.05 18.35 13.1 18.65 13.15 18.95 13.2 19.5 13.2 19.55 13.15 20.05 12.8 19.5 13.1 19.5 12.6 19.15 12.25 18.65 12.3 19.0 11.7 18.65 12.2 18.55 12.25 18.55 11.2 18.15 11.8 17.95 11.05 16.7 11.5 16.75 12.0 16.9 12.0 17.0 12.2 17.8 12.2 17.9 12.3 17.9 12.95 17.95 14.35 18.4 14.3 18.35 14.4 18.4 14.4 18.45 14.5 18.5 15.2 18.9 15.25 18.95 15.6 19.2 15.95 19.75 16.2 20.2 15.9 20.1 15.8 20.05 15.15 19.8 15.05 19.6 14.8 19.45 14.85 19.65 14.9 19.8 15.1 20.7 14.35 20.25 13.4 18.7 13.8 18.85 13.3 18.5 12.95 17.95 M11.65 15.8 L11.65 15.9 11.7 15.9 11.65 15.8 M13.4 16.85 L13.1 16.55 12.95 16.35 12.35 15.85 12.45 15.95 12.55 16.15 12.6 16.25 12.8 16.5 12.9 16.6 12.7 16.3 13.4 16.85 M11.15 14.9 L11.65 15.2 11.7 15.3 11.15 14.9 M14.8 20.95 L15.1 21.0 15.15 21.45 15.1 21.45 14.1 21.05 14.8 20.95 M14.55 18.75 L14.7 19.15 14.8 19.2 14.55 18.75 M10.2 15.5 L10.3 15.5 10.15 15.25 10.2 15.5 M10.25 17.15 L9.9 16.6 10.25 16.6 10.3 16.6 10.3 16.65 10.25 17.15 M16.8 20.2 L16.55 19.95 16.65 20.05 16.8 20.2 17.1 20.5 17.15 20.6 16.55 20.35 15.45 18.85 15.6 19.0 15.65 19.05 15.7 19.15 15.75 19.15 15.9 19.3 16.05 19.45 16.1 19.55 16.15 19.6 16.35 19.8 16.8 20.2 M17.05 21.05 L16.65 20.5 16.8 20.6 17.05 21.05 M16.35 20.4 L16.0 20.15 16.3 20.3 16.35 20.4 M18.65 22.3 L18.35 22.15 18.45 22.35 18.75 22.5 18.65 22.3 M19.2 24.45 L19.2 24.85 19.1 25.3 19.75 25.4 19.2 24.45 M19.25 23.3 L18.9 23.05 19.2 23.2 19.25 23.3 M16.9 25.4 L17.1 25.85 16.45 25.5 16.9 25.4 M26.75 30.55 L26.9 30.9 27.75 31.3 27.6 31.05 27.65 31.05 27.75 31.15 27.95 31.35 28.1 31.5 28.25 31.65 28.6 31.9 28.85 32.25 29.0 32.4 29.2 32.55 29.35 32.75 29.8 33.15 29.95 33.3 30.15 33.55 30.4 33.8 30.5 33.95 30.7 34.1 30.85 34.25 31.0 34.35 31.1 34.5 31.85 35.3 31.95 35.45 32.0 35.5 32.1 35.55 32.05 35.55 32.0 35.55 32.25 35.8 32.15 35.75 Q33.2 37.25 33.5 39.15 L32.0 35.5 31.35 35.25 31.4 35.35 31.4 35.4 31.2 35.3 31.1 35.15 30.85 34.75 30.95 35.1 31.0 35.2 Q31.5 36.6 31.55 38.5 L30.0 34.7 29.95 34.7 28.65 34.1 28.65 34.15 28.7 35.6 27.95 33.85 27.9 33.7 27.55 33.55 27.55 33.7 27.6 34.55 26.75 33.15 26.75 33.35 26.15 33.1 26.55 33.05 25.65 32.65 26.45 32.65 24.7 29.9 26.05 30.25 26.25 30.65 26.7 30.8 26.55 30.45 26.75 30.55 26.5 30.05 26.3 29.95 26.25 29.8 26.2 29.7 26.2 29.65 26.25 29.7 26.3 29.8 26.25 29.8 26.4 29.9 26.85 30.25 26.5 29.9 27.05 30.4 27.15 30.55 27.25 30.65 27.5 30.9 27.55 30.95 27.6 31.05 26.75 30.55 M30.45 34.0 L30.6 34.1 30.45 34.0 M22.65 28.3 L23.6 29.75 23.85 29.8 23.9 30.25 23.9 30.5 23.9 30.7 23.85 32.15 23.85 32.2 23.65 33.35 23.25 34.3 Q22.2 33.25 22.6 32.7 L19.45 30.45 18.75 29.2 18.55 29.05 18.6 28.9 Q18.9 28.2 21.3 28.2 L21.45 28.2 22.05 28.2 22.65 28.3 M28.85 32.95 L28.95 33.15 28.45 33.0 28.5 33.25 29.05 33.4 29.5 33.55 30.35 33.95 30.3 33.9 29.5 33.4 29.4 33.3 28.85 32.95 28.9 33.0 29.35 33.2 29.1 32.65 28.2 32.25 28.2 32.3 27.1 31.8 27.05 31.75 26.5 31.45 26.5 31.55 26.65 32.25 26.7 32.7 27.45 32.8 27.5 33.1 27.65 33.15 27.35 32.4 27.4 32.45 28.35 32.75 28.85 32.95 Q28.05 32.4 28.75 32.75 L28.85 32.95 M23.9 30.25 L24.7 30.35 24.75 30.65 24.75 30.85 24.75 31.65 23.9 30.25 M23.5 28.15 L23.6 28.35 23.6 28.5 23.85 28.55 23.7 28.25 23.5 28.15 M24.6 28.75 Q24.3 28.5 24.85 28.8 L24.9 28.85 25.3 29.1 24.6 28.75 M21.7 25.9 L21.7 25.95 22.05 26.95 23.1 27.3 22.95 27.05 23.2 27.2 23.95 27.6 24.05 27.8 24.15 28.05 24.5 28.2 24.4 28.05 24.25 27.8 23.7 27.15 23.6 27.0 23.65 27.1 22.75 26.45 22.65 26.3 21.7 25.9 M23.35 27.7 L23.35 27.75 23.4 27.75 23.35 27.7 M25.4 28.8 L25.65 29.0 25.8 29.15 25.4 28.8 M33.85 37.85 L32.25 35.65 32.65 36.05 32.8 36.2 32.95 36.35 33.7 37.6 33.85 37.85 M46.55 50.0 L46.15 49.55 46.6 49.95 46.7 50.1 46.9 50.3 46.55 50.0 M-29.55 -26.15 L-29.9 -26.35 -31.65 -27.5 -31.8 -27.6 -35.2 -29.05 -33.0 -28.65 -33.45 -29.35 -33.2 -29.2 Q-32.0 -28.6 -31.05 -27.65 L-30.55 -27.1 -31.0 -27.3 -30.1 -26.7 -30.3 -26.95 -30.2 -26.85 -29.95 -26.55 -29.8 -26.4 -29.7 -26.3 -29.5 -26.1 -29.55 -26.15 -29.25 -25.85 -29.15 -25.75 -28.85 -25.45 -28.9 -25.5 -28.75 -25.35 -28.6 -25.25 -28.55 -25.15 -28.45 -25.05 -28.15 -24.85 -28.1 -24.8 -27.85 -24.5 -27.65 -24.3 -27.4 -24.0 -27.55 -24.15 -27.85 -24.5 -28.3 -24.85 -27.75 -24.05 -27.65 -23.9 -27.55 -23.75 -29.15 -24.5 -29.0 -23.95 -28.95 -23.65 -28.9 -23.3 -28.6 -23.25 -28.8 -23.6 -27.45 -23.25 -27.4 -23.25 -27.5 -23.35 -27.65 -23.6 -27.45 -23.45 -27.4 -23.45 -27.3 -23.2 -27.15 -23.15 -27.25 -23.35 -27.1 -23.25 -27.3 -23.75 -27.4 -23.8 -27.3 -23.75 -27.35 -23.85 -27.2 -23.7 -27.3 -23.75 -27.15 -23.65 -27.05 -23.5 -27.1 -23.55 -26.95 -23.25 -26.85 -23.1 -26.75 -22.95 -26.6 -22.7 -26.6 -22.65 -26.35 -21.95 -26.25 -21.95 -25.55 -21.65 -26.1 -22.45 -26.2 -22.65 -26.25 -22.7 -26.5 -23.1 -27.15 -23.65 -27.35 -23.95 -27.2 -23.8 -27.05 -23.65 -26.6 -23.25 -26.35 -22.95 -26.25 -22.85 -26.15 -22.75 -26.0 -22.6 -25.85 -22.4 -25.8 -22.4 -25.75 -22.3 -25.8 -22.35 -25.75 -22.3 -25.2 -21.45 -25.1 -21.35 -25.7 -22.25 -25.65 -22.2 -25.55 -22.15 -25.35 -21.95 -25.3 -21.9 -25.2 -21.8 -24.55 -21.0 -24.45 -20.95 -24.4 -20.9 -24.3 -20.85 -24.4 -20.85 -24.15 -20.6 -24.3 -20.65 -24.35 -20.7 -24.4 -20.8 -24.4 -20.9 -24.45 -20.9 -25.05 -21.15 -25.0 -21.05 -25.0 -21.0 -24.85 -20.65 -24.65 -20.6 -24.6 -20.5 -25.2 -20.65 -25.2 -20.55 -24.5 -20.3 -24.05 -20.05 -24.15 -20.3 -24.2 -20.35 -24.0 -20.25 -24.0 -20.2 -23.8 -19.9 -23.3 -19.6 -24.15 -20.75 -23.95 -20.55 -23.6 -20.25 -23.55 -20.2 -23.55 -20.15 -23.35 -20.0 -23.25 -19.85 -23.15 -19.75 -23.1 -19.7 -22.9 -19.45 -22.55 -19.15 -22.4 -19.0 -22.3 -18.9 -22.0 -18.6 -21.9 -18.45 -22.65 -18.75 -22.7 -18.75 -22.7 -18.8 -23.4 -19.05 -23.35 -19.0 -22.65 -18.7 -22.6 -18.65 -22.55 -18.55 -22.65 -18.65 -22.55 -18.45 -23.6 -18.85 -23.7 -19.2 -25.0 -19.75 -24.95 -19.45 -24.2 -19.25 -24.15 -19.1 -24.95 -19.45 -24.95 -19.2 -24.9 -18.5 -24.85 -18.05 -24.85 -18.0 -24.15 -17.6 -24.0 -17.65 -24.5 -18.45 -24.0 -18.4 -23.95 -18.25 -23.9 -17.7 -23.1 -17.75 -23.35 -18.25 -23.1 -18.2 -22.35 -18.0 -22.35 -17.95 -21.75 -17.7 -21.7 -17.65 -21.4 -17.5 -21.3 -17.45 -21.5 -18.0 -21.55 -18.05 -21.5 -18.0 -21.7 -18.3 -21.6 -18.2 -21.2 -17.85 -21.0 -17.6 -20.95 -17.55 -20.7 -17.3 -20.55 -17.15 -20.5 -17.1 -20.45 -17.05 -20.3 -16.8 -20.7 -17.1 -20.65 -17.0 -20.5 -16.75 -20.15 -16.15 -21.45 -17.95 -21.5 -18.0 -21.1 -17.35 -21.1 -17.3 -20.9 -17.0 -20.5 -16.15 -19.8 -15.9 -19.35 -15.7 -19.25 -15.65 -19.5 -16.0 -19.6 -16.15 -19.65 -16.25 -19.5 -16.1 -19.15 -15.75 -19.1 -15.7 -19.0 -15.6 -18.85 -15.45 -18.75 -15.35 -18.55 -15.1 -18.5 -15.05 -18.35 -14.85 -18.55 -14.95 -18.6 -15.05 -18.6 -15.1 -18.7 -15.15 -18.6 -15.0 -18.95 -15.15 -19.0 -15.25 -19.1 -15.3 -19.65 -15.5 -19.6 -15.45 -20.7 -15.95 -21.15 -17.15 -21.6 -17.4 -21.25 -16.35 -21.25 -16.25 -21.2 -16.15 -21.05 -15.5 -21.05 -15.35 -21.0 -15.0 -21.95 -15.6 -22.0 -15.6 -21.95 -15.15 -21.95 -15.05 -21.95 -15.0 -22.0 -15.1 -22.05 -15.1 -22.0 -15.1 -23.0 -17.45 -22.95 -17.05 -22.95 -16.9 -22.95 -16.5 -23.0 -16.25 -23.0 -16.1 -23.15 -16.35 -23.4 -16.45 -23.25 -16.45 -23.9 -17.5 -23.85 -17.3 -23.85 -17.0 -26.75 -18.45 -28.75 -18.0 -27.5 -17.2 -28.85 -17.9 -29.0 -18.0 -29.15 -18.3 Q-29.5 -19.1 -28.4 -19.35 L-26.45 -19.55 -26.3 -19.55 -25.95 -19.55 -25.9 -19.55 -25.7 -19.55 -25.5 -19.5 -25.1 -19.45 -24.95 -19.45 -25.6 -19.7 -25.75 -20.05 -25.7 -19.75 -25.95 -19.85 -25.95 -19.65 -26.5 -21.2 -26.2 -21.15 -26.1 -21.1 -26.4 -21.55 -26.45 -21.7 -26.45 -21.75 -26.85 -21.9 -27.0 -22.0 -27.0 -21.95 -28.05 -22.4 -27.75 -22.35 -28.85 -22.85 -28.85 -22.75 -28.85 -22.45 -28.8 -21.85 -29.55 -23.0 -30.25 -23.3 -29.85 -23.35 -29.75 -23.35 -30.9 -25.2 -30.85 -25.2 -30.5 -25.15 -32.55 -26.15 -31.4 -26.05 -31.05 -25.95 -31.95 -26.55 -31.7 -26.5 -30.35 -26.15 -30.55 -26.45 -30.3 -26.35 -29.75 -26.05 -29.65 -25.85 -29.5 -25.5 -28.95 -25.25 -28.6 -24.65 -28.55 -24.5 -27.95 -24.15 -28.5 -25.0 -28.75 -25.3 -28.85 -25.45 -29.25 -25.75 -29.55 -26.15 M-44.05 -40.45 L-44.75 -40.9 -44.1 -40.5 -44.05 -40.45 M-40.85 -36.65 Q-40.45 -35.75 -40.45 -34.95 L-40.7 -33.8 -43.5 -38.3 -40.85 -36.65 M-25.55 -21.65 L-25.4 -21.3 -25.4 -21.2 -26.25 -21.6 -26.1 -21.1 -25.95 -21.05 -25.25 -20.85 -24.9 -20.7 -25.2 -21.1 -25.3 -21.25 -25.5 -21.6 -25.55 -21.65 M-29.8 -25.2 L-29.65 -24.95 -29.2 -24.8 -29.05 -24.75 -29.8 -25.2 M-27.15 -23.15 L-27.1 -22.9 -26.95 -22.85 -27.05 -23.1 -27.15 -23.15 M-25.6 -18.75 L-25.65 -18.9 -25.65 -18.85 -25.6 -18.75 M-26.75 -20.35 L-26.75 -20.15 -27.35 -20.4 -26.95 -20.55 -26.9 -20.55 -27.4 -21.3 -26.85 -21.25 -26.8 -20.9 -26.8 -20.6 -26.75 -20.45 -26.75 -20.35 M-25.85 -20.7 L-25.85 -20.65 -25.85 -20.7 M-26.05 -20.75 L-26.05 -20.65 -26.0 -20.65 -26.05 -20.75 M-26.1 -21.1 L-26.05 -20.85 -25.95 -20.8 -26.1 -21.1 M-27.45 -23.25 L-27.35 -22.95 -27.05 -22.2 -26.8 -22.1 -26.75 -22.1 -27.45 -23.25 M-22.05 -18.2 L-22.15 -18.4 -21.55 -18.0 -22.05 -18.2 M-20.9 -12.65 L-21.9 -12.4 -25.0 -14.0 Q-25.45 -14.65 -25.15 -15.05 L-20.9 -12.65 -19.6 -12.7 -19.3 -12.7 -19.1 -12.7 -19.05 -12.25 -18.6 -12.4 -19.05 -12.7 -18.15 -12.6 -18.15 -12.45 -17.5 -12.45 -17.3 -12.4 -16.5 -12.1 -15.95 -11.85 -16.25 -12.05 -15.95 -11.9 -15.9 -11.85 -15.75 -11.75 -15.8 -11.85 -15.75 -11.75 -15.45 -11.6 -15.45 -11.65 -15.25 -11.5 -15.45 -11.6 -15.05 -10.65 -14.75 -10.55 -15.0 -10.95 -14.8 -10.8 -14.4 -10.55 -14.2 -10.25 -13.95 -9.75 -13.85 -9.45 -13.75 -9.25 -13.65 -8.95 -12.3 -8.35 -12.2 -8.3 -12.05 -8.0 -11.9 -7.9 -11.2 -7.5 -10.8 -6.8 -10.75 -6.8 -10.45 -6.65 -10.35 -6.5 -10.2 -6.2 -10.1 -6.05 -10.05 -6.0 -10.5 -6.3 -10.5 -6.2 -10.4 -6.05 -10.1 -4.95 -10.1 -4.85 -10.2 -5.0 -11.3 -5.65 -11.3 -5.4 -11.75 -5.65 -12.05 -6.1 -12.55 -6.45 -12.25 -6.45 -12.45 -6.8 -11.5 -6.6 -11.45 -6.35 -10.95 -6.2 -11.45 -7.0 -11.65 -7.1 -11.6 -7.0 -12.4 -7.45 -13.05 -7.75 -13.1 -7.9 -13.45 -8.45 -13.35 -8.05 -13.3 -7.9 -14.05 -8.25 -14.15 -8.55 -14.2 -8.65 -14.2 -8.55 -14.2 -8.35 -16.15 -9.3 -16.15 -9.25 -16.2 -9.3 -16.25 -9.3 -16.2 -9.3 -16.4 -9.8 -16.2 -9.8 -17.6 -10.65 -17.05 -10.85 -16.85 -10.9 -16.4 -10.9 -16.2 -10.9 -17.1 -11.45 -17.15 -11.6 -17.1 -11.5 -17.1 -11.25 -18.1 -11.7 -18.05 -11.2 -20.9 -12.65 M-22.05 -16.65 L-22.05 -16.5 -22.05 -16.45 -21.8 -16.4 -21.55 -16.4 -22.05 -16.65 M-16.1 -12.65 L-16.05 -12.6 -15.9 -12.45 -15.85 -12.4 -16.25 -12.7 -16.2 -12.55 -15.75 -12.25 -15.7 -12.2 -16.1 -12.4 -16.05 -12.35 -15.95 -12.2 -16.1 -12.3 -16.3 -12.5 -16.25 -12.4 -17.45 -12.95 -17.45 -12.9 -17.4 -12.8 -17.7 -12.95 -17.7 -13.05 -17.95 -13.15 -18.3 -13.35 -19.2 -13.75 -19.15 -13.65 -19.1 -12.7 -19.4 -12.9 -19.8 -13.8 -19.55 -13.8 -19.85 -13.9 -19.9 -14.1 -19.35 -13.8 -19.2 -13.8 -19.05 -13.8 -20.0 -14.4 -20.0 -14.35 -20.0 -14.15 -21.0 -14.6 -20.95 -14.4 -21.55 -14.6 -21.25 -14.75 -21.0 -14.8 -20.7 -14.85 -20.25 -14.85 -20.45 -15.35 -20.35 -15.35 -20.2 -15.3 -19.5 -15.1 -19.45 -15.05 -18.85 -14.75 -18.8 -14.75 -18.7 -14.5 -18.4 -13.7 -17.95 -13.55 -18.1 -13.9 -18.4 -14.35 -18.6 -14.65 -18.65 -14.7 -18.35 -14.5 -18.4 -14.65 -18.3 -14.5 -18.15 -14.4 -18.0 -14.1 -17.65 -13.45 -16.95 -13.1 -16.45 -12.8 -16.75 -13.25 -17.35 -13.7 -17.55 -13.95 -16.95 -13.5 -17.15 -13.7 -17.6 -14.05 -18.5 -15.1 -18.35 -14.95 -17.95 -14.55 -17.8 -14.4 -17.6 -14.2 -17.2 -13.8 -17.3 -13.9 -16.85 -13.45 -16.75 -13.35 -16.6 -13.2 -16.55 -13.15 -16.45 -13.0 -16.1 -12.65 -16.35 -12.95 -16.2 -12.8 -16.1 -12.65 M-10.1 -4.85 L-10.15 -4.05 -10.2 -4.0 -10.35 -3.5 -10.35 -3.45 -10.4 -3.45 -10.5 -3.5 -10.4 -3.5 -11.25 -4.85 -11.2 -4.55 -11.8 -4.85 -11.3 -4.9 -11.25 -4.9 -10.1 -4.85 -10.05 -4.85 -9.9 -4.8 -9.45 -4.7 -9.15 -5.05 -9.2 -5.15 -9.15 -5.1 -9.1 -5.05 -8.85 -5.35 -9.3 -5.85 -9.1 -5.7 -8.9 -5.5 -8.8 -5.4 -8.75 -5.4 -8.6 -5.25 -8.2 -4.8 -8.05 -4.65 -7.9 -4.5 -7.6 -4.2 -7.45 -4.05 -7.3 -3.9 -7.15 -3.75 -6.9 -3.5 -7.25 -3.8 -7.15 -3.7 -7.1 -3.65 -6.85 -3.45 -6.35 -2.95 -6.4 -3.0 -6.5 -3.05 -6.75 -3.25 -6.9 -3.3 -6.85 -3.25 -7.05 -3.4 -7.55 -3.7 -7.45 -3.6 -7.75 -3.75 -7.6 -3.4 -7.55 -3.3 -7.45 -3.1 -7.3 -2.65 -7.2 -1.95 -5.95 -1.6 -5.85 -1.55 -5.05 -1.15 -3.95 -0.45 -4.3 -0.85 -4.35 -0.95 -5.35 -1.65 -6.15 -2.05 -6.1 -1.9 -6.3 -2.25 -6.1 -2.1 -5.6 -1.85 -6.3 -2.35 -6.4 -2.4 -6.3 -2.35 -6.5 -2.7 -6.0 -2.45 -5.9 -2.35 -6.35 -2.9 -5.75 -2.35 -5.5 -2.1 -5.3 -1.9 -5.15 -1.75 -5.45 -2.0 -5.4 -1.95 -5.2 -1.7 -4.8 -1.45 -4.75 -1.4 -4.65 -1.3 -4.4 -1.0 -4.25 -0.85 -4.3 -0.9 -3.95 -0.55 -3.45 -0.05 -3.35 0.05 -3.05 0.35 -2.95 0.45 -2.85 0.55 -3.35 0.55 -3.9 -0.35 -4.85 -0.8 -4.35 0.55 -4.3 0.85 -4.3 0.95 -4.4 0.8 -5.65 -1.2 -5.85 -1.3 -5.5 0.1 -5.45 0.55 -5.45 0.95 -7.2 -1.95 -7.3 -1.0 -7.45 -0.55 -8.35 -1.95 -8.3 -1.6 -8.9 -1.95 -8.4 -2.0 -8.35 -2.0 -7.2 -1.95 -9.0 -4.8 -8.85 -4.5 -8.75 -4.2 -8.7 -4.1 -8.6 -3.7 -8.5 -3.35 -8.5 -3.2 -8.4 -2.5 -8.8 -2.7 -9.25 -3.45 -8.85 -3.4 -10.05 -3.95 -9.55 -3.9 -10.1 -4.85 M-16.2 -10.9 L-16.15 -10.8 -16.1 -9.8 -16.1 -9.75 -16.15 -9.3 -15.5 -9.35 -14.45 -9.2 -14.85 -10.2 -16.2 -10.9 M-10.8 -7.4 L-10.6 -7.25 -10.4 -7.0 -10.3 -6.9 -10.25 -6.8 -10.2 -6.75 -9.9 -6.3 -9.8 -6.25 -9.75 -6.2 -9.8 -6.2 -9.85 -6.25 -10.05 -6.35 -10.15 -6.45 -10.95 -7.55 -10.8 -7.4 M-11.9 -7.75 L-11.7 -7.25 -11.55 -7.15 -11.9 -7.75 M-13.9 -7.8 L-13.3 -7.75 -13.2 -6.9 -13.2 -6.85 -13.25 -6.4 -13.25 -6.35 -13.35 -6.4 -13.3 -6.4 -13.5 -6.9 -13.3 -6.9 -14.7 -7.75 -14.15 -7.8 -13.9 -7.8 M-12.95 -8.9 L-13.05 -8.95 -13.0 -8.95 -12.95 -8.9 M-14.75 -10.55 L-14.55 -10.05 -14.5 -9.85 -14.4 -9.5 -14.3 -9.15 -13.8 -9.0 -14.75 -10.55 M-13.45 -10.05 L-14.15 -10.65 -13.8 -10.2 -13.75 -10.15 -13.1 -9.65 -13.45 -10.05 -13.3 -9.9 -13.05 -9.65 -12.95 -9.55 -12.7 -9.3 -12.15 -8.75 -12.0 -8.6 -11.8 -8.4 -11.7 -8.3 -11.55 -8.15 -11.5 -8.1 -11.1 -7.7 -11.25 -7.8 -11.3 -7.85 -13.15 -9.2 -13.25 -9.25 -13.15 -9.2 -12.5 -8.85 -11.9 -8.45 -12.25 -8.8 -12.65 -9.15 -12.55 -9.05 -13.25 -9.4 -13.4 -9.45 -13.3 -9.3 -14.55 -11.0 -14.55 -11.05 -14.85 -11.45 -14.7 -11.3 -14.6 -11.2 -14.4 -11.0 -14.25 -10.8 -13.85 -10.45 -13.7 -10.3 -13.45 -10.05 M-15.7 -12.2 L-15.5 -12.05 -15.6 -12.15 -15.7 -12.2 -15.7 -12.25 -15.85 -12.4 -15.6 -12.2 -15.45 -12.05 -15.3 -11.9 -15.05 -11.65 -15.1 -11.7 -15.15 -11.7 -15.6 -12.05 -15.65 -12.05 -15.65 -12.1 -15.7 -12.15 -15.7 -12.2 M-19.95 -13.75 L-19.9 -13.2 -20.5 -13.55 -19.95 -13.75 M-32.7 -21.95 L-31.45 -22.35 -29.5 -21.3 Q-30.6 -21.2 -30.9 -20.8 L-32.7 -21.95 M-9.3 -0.55 L-12.05 -2.1 -10.65 -3.5 -10.15 -2.35 -9.3 -0.55 -7.2 0.55 -8.75 0.55 -9.3 -0.55 M-9.35 -5.35 L-9.7 -5.85 -9.55 -5.75 -9.45 -5.7 -9.35 -5.5 -9.5 -5.6 -9.35 -5.35 M-7.15 -3.1 L-7.25 -3.15 -7.2 -3.15 -7.15 -3.1 M-7.95 -4.35 L-8.3 -4.6 -8.05 -4.25 -7.95 -4.05 -7.65 -3.9 -7.8 -4.1 -7.95 -4.35 M-5.45 -2.0 L-5.5 -2.1 -5.9 -2.35 -5.85 -2.35 -5.45 -2.0" fill="#ffffff" fill-rule="evenodd" stroke="none"/>
      <path d="M41.05 -22.7 Q44.7 -16.5 48.15 -9.75 52.9 -0.35 54.4 6.1 L55.05 8.7 55.8 11.3 Q56.4 12.85 58.0 15.4 60.15 19.0 61.0 20.95 62.4 24.2 62.25 26.95 62.1 30.05 60.1 32.7 58.05 35.35 55.1 36.35 54.9 38.3 54.95 41.85 L54.9 47.3 Q54.45 54.05 51.1 57.35 49.55 58.9 47.4 59.7 45.25 60.45 43.05 60.25 40.85 60.05 38.85 58.95 36.85 57.9 35.45 56.15 L33.9 53.75 32.25 51.35 28.2 48.1 Q14.75 38.7 4.35 26.15 L-1.05 19.2 Q-4.35 14.9 -6.6 12.35 -8.95 9.6 -13.85 4.35 L-18.25 -0.8 -22.65 -5.95 -29.6 -13.05 Q-38.0 -21.0 -46.55 -27.65 L-49.8 -30.35 Q-51.6 -32.0 -52.5 -33.6 -54.55 -37.2 -53.5 -41.25 -52.5 -45.25 -48.95 -47.45 L-47.45 -48.35 Q-46.6 -48.85 -46.15 -49.4 L-44.9 -51.6 Q-43.4 -54.55 -40.45 -56.05 -37.9 -57.3 -32.45 -57.5 -12.75 -58.2 2.05 -53.85 10.75 -51.3 18.1 -47.0 25.9 -42.4 31.55 -36.1 36.0 -31.15 41.05 -22.7" fill="#ffffff" fill-rule="evenodd" stroke="none"/>
      <path d="M-30.4 -28.3 Q-32.3 -28.15 -34.0 -28.9 -35.85 -29.7 -36.85 -31.25 -37.85 -32.85 -37.7 -34.85 -37.45 -36.8 -36.15 -38.1 -34.3 -39.85 -30.4 -39.85 L-23.7 -39.3 -17.0 -38.4 -11.05 -37.75 -5.9 -36.1 Q-2.75 -35.0 -0.75 -34.8 L4.9 -34.85 Q8.35 -34.9 10.25 -33.8 13.15 -32.15 13.5 -28.9 13.9 -25.65 11.5 -23.35 10.55 -22.35 7.4 -20.95 0.3 -17.85 -2.2 -14.65 L-4.15 -11.75 Q-5.3 -10.05 -6.55 -9.35 -9.25 -7.8 -12.75 -9.65 -14.8 -10.8 -17.55 -13.95 -20.25 -17.35 -22.1 -18.6 -22.95 -19.25 -25.05 -20.4 -27.1 -21.45 -28.1 -22.15 -29.65 -23.35 -30.25 -24.95 -31.05 -26.75 -30.4 -28.3" fill="#ffffff" fill-rule="evenodd" stroke="none"/>
      <path d="M30.3 36.8 Q28.9 35.3 26.25 33.7 L21.95 30.95 Q19.4 29.2 17.3 26.7 14.5 23.45 15.2 20.9 15.7 19.8 15.6 19.3 15.45 18.75 14.4 17.8 12.2 16.0 12.7 13.1 12.95 11.65 14.7 9.0 20.5 0.3 23.8 -3.45 27.1 -7.1 29.65 -8.4 31.5 -9.3 33.4 -9.35 35.45 -9.45 37.05 -8.6 38.85 -7.65 39.6 -5.75 40.45 -3.85 39.75 -2.1 41.35 -1.8 42.55 -0.35 43.7 1.1 44.0 2.85 44.25 5.25 43.0 9.75 L41.15 16.1 Q40.9 17.25 41.1 17.8 L41.95 18.75 Q45.4 21.6 48.8 25.45 51.35 28.4 51.95 30.5 52.95 34.0 50.95 36.3 48.7 38.7 43.3 37.7 42.65 40.4 39.95 41.55 L34.8 41.4 32.4 39.25 30.3 36.8" fill="#ffffff" fill-rule="evenodd" stroke="none"/>
      <path d="M32.95 -23.85 Q34.25 -21.65 33.6 -18.9 33.2 -17.2 31.9 -16.0 30.65 -14.8 29.0 -14.6 25.75 -14.1 21.95 -18.05 L16.65 -23.85 Q13.4 -27.1 10.45 -28.5 L7.3 -29.85 Q5.5 -30.75 4.75 -31.9 3.55 -33.6 4.15 -35.9 4.8 -38.15 6.65 -39.45 8.4 -40.5 10.8 -40.5 13.0 -40.4 15.05 -39.5 17.75 -38.4 22.1 -34.4 L30.0 -27.2 Q32.2 -25.3 32.95 -23.85" fill="#ffffff" fill-rule="evenodd" stroke="none"/>
      <path d="M34.15 9.25 Q32.15 10.75 29.35 10.1 26.6 9.55 25.3 7.35 22.3 11.8 18.1 12.75 15.75 13.15 13.5 12.3 11.1 11.45 9.95 9.55 8.6 7.35 8.9 3.0 9.35 -2.3 8.9 -4.0 7.3 -3.45 4.25 -1.65 1.3 0.0 -0.4 0.65 -3.05 1.65 -5.7 1.1 -8.6 0.5 -9.75 -1.65 -10.8 -3.85 -9.65 -6.45 -8.65 -8.8 -6.5 -10.4 -4.95 -11.55 -2.05 -12.75 L2.6 -14.95 Q-11.05 -20.15 -25.6 -23.25 -29.85 -24.1 -31.55 -25.1 -34.85 -27.15 -34.95 -30.1 -39.1 -29.6 -41.7 -30.05 -45.45 -30.6 -47.35 -32.95 -49.35 -35.5 -48.85 -39.3 -48.55 -41.6 -47.3 -43.75 -46.0 -45.85 -44.05 -47.2 -41.45 -49.05 -37.45 -49.6 -34.8 -49.95 -30.35 -49.65 -28.35 -49.65 -27.65 -50.25 -27.1 -50.65 -26.75 -51.7 L-26.2 -53.4 Q-25.2 -55.45 -22.35 -55.95 L-17.3 -55.6 Q-3.25 -52.65 12.95 -45.15 18.65 -42.4 21.9 -40.05 27.25 -36.35 34.65 -26.95 43.65 -15.7 47.5 -9.8 54.0 0.25 56.5 9.35 57.75 14.4 58.3 20.8 59.6 35.1 56.25 47.2 54.95 51.75 52.95 53.65 51.55 55.0 49.7 55.3 47.65 55.6 46.25 54.5 44.05 53.05 44.05 47.65 L44.0 34.75 Q44.0 26.8 43.05 22.95 41.0 14.55 34.15 9.25 M2.85 -33.35 L-3.45 -34.4 Q-0.35 -32.15 4.65 -29.85 L13.3 -25.95 Q14.95 -25.05 16.15 -24.95 18.15 -24.95 18.55 -26.5 16.65 -26.95 14.4 -28.2 L10.45 -30.6 Q7.85 -32.1 6.3 -32.6 L2.85 -33.35" fill="#ffffff" fill-rule="evenodd" stroke="none"/>
      <path d="M-56.3 -41.0 L-56.3 -40.9 -56.1 -40.8 -55.95 -40.65 -55.8 -40.5 -55.7 -40.45 -55.6 -40.3 -55.45 -40.15 -55.0 -39.7 -54.95 -39.6 -54.75 -39.45 -54.25 -38.9 -54.1 -38.8 -53.9 -38.6 -53.75 -38.4 -53.6 -38.3 -53.2 -37.9 -53.05 -37.75 -52.9 -37.6 -52.85 -37.55 -52.7 -37.4 -52.55 -37.25 -52.1 -36.85 -52.05 -36.7 -51.85 -36.55 -51.75 -36.5 -51.35 -36.0 -51.2 -35.9 -51.0 -35.7 -50.85 -35.5 -50.7 -35.4 -50.3 -35.0 -50.15 -34.85 -50.0 -34.7 -49.95 -34.65 -49.8 -34.5 -49.65 -34.35 -49.25 -33.95 -49.15 -33.8 -48.95 -33.65 -48.45 -33.1 -48.3 -33.0 -48.1 -32.8 -47.95 -32.6 -47.8 -32.5 -37.3 -22.0 -37.25 -21.85 -37.0 -21.7 -36.5 -21.15 -36.4 -21.1 -36.15 -20.9 -36.05 -20.65 -35.9 -20.6 -35.45 -20.15 -35.3 -20.05 -35.2 -19.9 -35.1 -19.8 -34.95 -19.7 -34.85 -19.55 -34.4 -19.1 -34.35 -18.95 -34.1 -18.85 -34.05 -18.75 -33.65 -18.25 -33.5 -18.2 -33.35 -18.05 -33.3 -17.9 -33.15 -17.75 -33.0 -17.7 -32.55 -17.3 -32.45 -17.15 -32.3 -17.0 -32.2 -16.9 -32.1 -16.8 -31.95 -16.65 -31.5 -16.2 -31.45 -16.1 -31.25 -15.95 -31.15 -15.85 -30.75 -15.35 -30.6 -15.3 -30.45 -15.15 -30.4 -15.0 -30.25 -14.9 -30.1 -14.8 -29.7 -14.4 -29.55 -14.25 -29.4 -14.1 -29.3 -14.05 -29.2 -13.9 -29.05 -13.75 -28.6 -13.3 -28.5 -13.2 -28.35 -13.05 -28.25 -12.95 -27.85 -12.5 -27.7 -12.4 -27.55 -12.25 -27.5 -12.1 -27.35 -12.0 -27.2 -11.9 -26.8 -11.5 -26.65 -11.35 -26.5 -11.2 -26.45 -11.15 -26.3 -11.0 -26.15 -10.85 -25.7 -10.45 -25.6 -10.3 -25.45 -10.15 -25.35 -10.1 -24.95 -9.6 -24.8 -9.5 -24.65 -9.35 -24.6 -9.25 -24.45 -9.1 -24.3 -9.0 -23.9 -8.6 -23.75 -8.45 -23.55 -8.25 -23.4 -8.05 -23.25 -7.95 -22.85 -7.55 -22.7 -7.4 -22.55 -7.25 -22.5 -7.2 -22.05 -6.7 -21.9 -6.6 -21.75 -6.5 -21.7 -6.35 -21.55 -6.2 -21.4 -6.1 -21.0 -5.7 -20.85 -5.55 -20.65 -5.35 -20.5 -5.15 -20.35 -5.05 -19.95 -4.65 -19.8 -4.5 -19.65 -4.35 -19.6 -4.3 -19.15 -3.8 -19.0 -3.7 -18.9 -3.6 -18.8 -3.45 -18.6 -3.3 -18.1 -2.8 -17.95 -2.65 -17.75 -2.45 -17.6 -2.25 -17.45 -2.15 -17.05 -1.75 -16.9 -1.6 -16.75 -1.45 -16.7 -1.4 -16.25 -0.9 -16.1 -0.85 -16.0 -0.7 -15.9 -0.55 -15.7 -0.4 -15.2 0.1 -15.05 0.25 -14.85 0.45 -14.7 0.65 -14.55 0.7 -14.15 1.15 -14.0 1.3 -13.85 1.45 -13.8 1.5 -13.35 2.0 -13.25 2.05 -13.1 2.2 -13.0 2.35 -12.8 2.5 -12.3 3.0 -12.15 3.1 -11.8 3.55 -11.7 3.6 -11.25 4.05 -11.1 4.2 -10.95 4.3 -10.9 4.4 -10.5 4.9 -10.35 4.95 -10.2 5.1 -10.1 5.25 -9.9 5.4 -9.4 5.9 -9.3 6.0 -9.05 6.25 -8.9 6.45 -8.8 6.5 57.7 -60.0 49.25 -68.45 Q48.95 -68.9 49.4 -69.3 50.3 -70.2 54.95 -71.0 L77.35 -74.1 79.5 -74.45 79.25 -72.2 76.0 -49.9 Q75.35 -45.15 74.45 -44.25 L73.5 -44.15 65.05 -52.55 53.25 -40.8 -1.45 13.9 -1.3 14.0 -1.15 14.15 -1.1 14.3 -0.9 14.4 -0.4 14.9 -0.25 15.05 -0.05 15.25 0.1 15.5 0.25 15.55 0.7 15.95 0.8 16.1 0.95 16.25 1.05 16.3 1.45 16.8 1.6 16.9 1.75 17.05 1.8 17.15 2.0 17.3 2.5 17.8 2.65 17.95 2.85 18.15 3.0 18.35 3.15 18.45 3.55 18.85 3.7 19.0 3.85 19.15 3.9 19.2 4.35 19.7 4.5 19.8 4.65 19.9 4.7 20.05 4.9 20.2 5.4 20.75 5.55 20.85 5.75 21.05 5.9 21.25 6.05 21.35 6.45 21.75 6.6 21.9 6.75 22.05 6.8 22.1 7.25 22.6 7.4 22.7 7.5 22.8 7.6 22.95 7.8 23.1 7.9 23.15 8.3 23.65 8.45 23.75 8.65 23.95 8.8 24.15 8.95 24.25 9.35 24.65 9.5 24.8 9.65 24.95 9.7 25.0 10.4 25.7 10.5 25.85 10.7 26.0 11.2 26.55 11.35 26.65 11.55 26.85 11.7 27.05 11.85 27.1 12.25 27.55 12.4 27.7 12.55 27.85 12.6 27.9 13.3 28.6 13.4 28.75 13.6 28.9 14.1 29.45 14.25 29.5 14.6 29.95 14.7 30.0 15.15 30.45 15.3 30.6 15.45 30.7 15.5 30.8 16.2 31.5 16.3 31.65 16.5 31.8 17.0 32.35 17.1 32.4 17.35 32.65 17.5 32.85 17.6 32.9 18.05 33.35 18.2 33.5 18.3 33.6 18.4 33.7 19.1 34.4 19.15 34.55 19.4 34.7 19.9 35.25 20.0 35.3 20.15 35.45 20.25 35.6 20.35 35.75 20.5 35.8 20.95 36.25 21.1 36.35 21.2 36.5 21.3 36.6 22.0 37.3 22.15 37.45 22.75 38.15 22.9 38.2 23.05 38.35 23.1 38.5 23.25 38.65 23.4 38.7 23.85 39.1 23.95 39.25 24.9 40.2 25.05 40.3 25.15 40.45 25.25 40.55 25.65 41.05 25.8 41.1 25.95 41.25 26.0 41.4 26.15 41.5 26.3 41.6 26.7 42.0 26.85 42.15 37.6 52.95 37.75 53.05 37.9 53.15 37.95 53.3 38.1 53.45 38.25 53.5 38.65 53.95 38.8 54.1 39.7 55.0 39.85 55.15 40.0 55.3 40.05 55.35 40.5 55.85 40.65 55.9 40.75 56.05 40.85 56.2 41.05 56.35 41.55 56.85 41.7 57.0 42.6 57.9 42.75 58.05 42.9 58.2 42.95 58.25 43.4 58.75 43.5 58.8 43.65 58.95 43.75 59.1 43.95 59.25 44.45 59.75 44.6 59.9 45.5 60.8 45.65 60.95 45.8 61.1 45.85 61.15 46.05 61.35 46.15 61.45 46.3 61.65 46.55 61.85 46.85 62.15 47.1 62.4 47.35 62.65 43.75 69.5 43.65 69.55 -6.75 19.2 -11.2 23.65 -25.8 38.3 Q-25.45 38.85 -25.25 39.6 L-24.25 42.7 Q-23.6 44.7 -23.7 45.75 L-24.25 46.55 -24.3 46.6 -30.1 54.85 -30.65 55.65 -31.3 56.7 -35.55 62.5 -35.6 62.55 -35.9 62.3 -36.65 61.3 -37.15 57.5 -38.15 50.3 -38.85 44.05 -39.0 44.0 -45.15 43.3 -52.4 42.25 -56.2 41.75 -57.15 41.05 -57.5 40.7 -57.4 40.6 -51.55 36.45 -50.55 35.8 -41.4 29.4 -40.6 28.75 Q-39.7 28.6 -37.65 29.4 L-34.55 30.35 -33.15 30.85 -18.45 16.2 -16.7 14.4 -14.1 11.8 -64.5 -38.5 -64.4 -38.6 Q-60.1 -40.85 -57.55 -42.25 L-57.3 -42.0 -57.0 -41.7 -56.8 -41.5 -56.5 -41.2 -56.3 -41.0" fill="#000000" fill-rule="evenodd" stroke="none"/>
      <path d="M-69.3 -41.55 Q-55.25 -52.2 -46.85 -56.4 -38.3 -60.7 -27.7 -62.65 -16.75 -64.7 -6.5 -63.45 4.0 -62.15 12.7 -59.15 20.5 -56.1 31.6 -48.05 L34.3 -46.15 36.7 -44.15 42.9 -37.95 49.1 -31.75 51.2 -29.35 53.05 -26.6 Q61.05 -15.6 64.05 -7.75 67.15 0.85 68.45 11.45 69.7 21.6 67.6 32.65 65.6 43.2 61.3 51.75 57.1 60.1 46.4 74.15 L46.4 74.3 43.15 77.4 Q41.25 79.0 39.5 79.65 36.9 80.4 35.1 78.8 L34.65 78.45 Q33.1 76.9 33.65 74.65 33.7 73.0 35.1 70.75 35.4 69.95 37.75 67.0 46.75 55.0 50.3 39.75 53.7 24.5 50.65 10.25 49.75 5.9 48.3 1.8 L47.5 -0.35 Q44.1 -8.65 38.45 -16.3 38.35 -16.3 38.35 -16.35 38.15 -16.55 38.1 -16.8 L37.8 -17.15 37.05 -18.1 Q33.85 -22.0 30.25 -25.3 26.8 -28.9 23.0 -32.1 L22.05 -32.95 Q21.8 -32.95 21.7 -33.1 L21.35 -33.35 21.15 -33.6 Q13.45 -39.15 5.2 -42.5 L3.2 -43.3 Q-0.95 -44.8 -5.25 -45.7 -19.6 -48.75 -34.9 -45.3 -50.15 -41.9 -62.1 -32.8 L-62.55 -32.45 -65.75 -30.1 Q-68.1 -28.8 -69.7 -28.55 -72.1 -28.15 -73.5 -29.7 L-73.85 -30.2 -74.5 -31.1 Q-75.3 -32.6 -74.7 -34.55 -74.2 -36.35 -72.5 -38.3 L-69.4 -41.5 -69.3 -41.55" fill="#000000" fill-rule="evenodd" stroke="none"/>
    </g>
  </defs>
</svg>
