<?xml version="1.0" encoding="UTF-8" standalone="no"?>
<svg xmlns:ffdec="https://www.free-decompiler.com/flash" xmlns:xlink="http://www.w3.org/1999/xlink" ffdec:objectType="frame" height="402.4px" width="436.0px" xmlns="http://www.w3.org/2000/svg">
  <g transform="matrix(1.0, 0.0, 0.0, 1.0, 77.6, 165.2)">
    <use ffdec:characterId="724" height="402.4" transform="matrix(1.0, 0.0, 0.0, 1.0, -63.6, -110.2)" width="436.0" xlink:href="#sprite0"/>
    <use ffdec:characterId="726" height="152.5" transform="matrix(1.1471, 0.0, 0.0, 1.1471, 133.7, 136.85)" width="136.55" xlink:href="#sprite1"/>
  </g>
  <defs>
    <g id="sprite0">
      <use ffdec:characterId="723" height="402.4" transform="matrix(1.0, 0.0, 0.0, 1.0, 0.0, 0.0)" width="436.0" xlink:href="#shape0"/>
    </g>
    <g id="shape0">
      <path d="M172.0 1.15 L172.8 0.35 169.65 -3.35 Q157.25 -17.05 145.5 -24.8 137.7 -29.95 127.45 -34.3 112.75 -40.45 101.8 -39.5 96.15 -39.1 94.75 -35.85 94.0 -33.9 95.15 -28.55 96.35 -23.25 103.05 -15.0 109.85 -6.8 121.15 1.25 132.4 9.25 145.3 13.8 158.1 18.25 162.0 17.65 164.55 8.4 172.0 1.15 M172.0 54.9 Q162.4 45.5 160.9 32.85 156.7 33.25 141.35 28.65 126.05 24.0 113.5 15.55 100.9 7.1 90.85 -3.95 80.25 -15.65 78.0 -26.1 76.55 -32.7 78.4 -38.95 80.35 -45.65 85.35 -49.5 88.9 -52.2 94.75 -53.7 111.25 -57.9 134.15 -48.6 152.1 -41.3 167.65 -29.5 179.85 -20.25 189.65 -8.9 204.55 -13.1 219.5 -8.6 228.75 -6.05 236.1 1.15 247.4 12.25 247.4 28.0 247.4 43.75 236.1 54.9 L233.3 57.5 260.75 111.25 Q297.1 84.65 347.2 90.25 350.0 83.15 355.95 77.35 367.25 66.2 383.3 66.2 399.35 66.2 410.7 77.35 422.0 88.45 422.0 104.2 422.0 119.95 410.7 131.1 399.35 142.2 383.3 142.2 372.05 142.2 363.15 136.75 320.55 172.95 314.35 272.95 L333.9 286.95 Q336.2 288.55 337.3 291.15 338.4 293.75 337.95 296.5 L331.45 338.9 Q330.9 342.55 328.05 345.0 325.15 347.4 321.35 347.4 L86.65 347.4 Q82.9 347.4 80.05 345.0 77.15 342.55 76.55 338.9 L70.05 296.5 Q69.65 293.75 70.75 291.15 71.85 288.55 74.15 286.95 L93.75 272.95 Q87.45 172.95 44.9 136.75 36.0 142.2 24.7 142.2 8.7 142.2 -2.65 131.1 -14.0 119.95 -14.0 104.2 -14.0 88.45 -2.65 77.35 8.7 66.2 24.7 66.2 40.75 66.2 52.15 77.35 58.05 83.15 60.9 90.25 110.9 84.65 147.25 111.25 L174.75 57.5 172.0 54.9 M313.55 173.2 Q329.4 134.3 357.35 115.8 360.4 113.7 364.05 114.05 367.7 114.35 370.35 116.95 375.7 122.2 383.3 122.2 390.9 122.2 396.3 116.95 401.65 111.65 401.65 104.2 401.65 96.75 396.3 91.5 390.9 86.2 383.3 86.2 375.7 86.2 370.35 91.5 366.25 95.45 365.25 100.7 L365.2 100.9 Q365.1 101.75 364.0 104.8 362.65 108.2 359.5 110.0 356.35 111.8 352.75 111.2 L350.2 110.8 348.9 110.65 Q322.35 106.95 300.25 113.8 L289.4 117.9 289.05 118.05 288.6 118.25 Q288.45 118.3 284.85 120.05 L282.2 121.3 Q275.45 124.4 264.3 134.4 261.85 136.55 258.7 136.95 255.5 137.35 252.65 135.85 249.9 134.45 248.45 131.8 L248.4 131.65 234.95 105.3 234.95 105.25 225.55 86.9 211.6 59.65 Q210.0 56.6 210.75 53.25 211.4 49.9 214.0 47.65 L221.7 40.75 Q227.05 35.45 227.05 28.0 227.05 20.55 221.7 15.3 220.0 13.65 218.1 12.5 215.2 10.55 211.2 9.2 207.25 7.85 201.9 8.35 203.7 12.15 204.45 15.85 207.25 15.95 209.85 17.25 212.75 18.75 214.55 21.25 216.2 23.6 216.7 26.45 217.2 29.3 216.4 32.0 215.65 34.75 213.7 36.95 211.75 39.1 209.1 40.25 206.45 41.4 203.5 41.25 200.55 41.15 198.0 39.85 193.6 37.65 191.9 33.2 190.7 30.35 191.1 27.2 191.3 25.15 192.1 23.35 L190.5 21.55 185.8 15.9 Q181.0 20.95 181.0 28.0 181.0 35.45 186.4 40.75 188.75 43.05 194.1 47.65 196.65 49.9 197.35 53.25 198.0 56.6 196.4 59.65 L193.35 65.65 159.75 131.5 Q158.5 133.8 156.4 135.25 L155.3 135.9 154.65 136.2 Q152.1 137.3 149.35 136.95 146.15 136.55 143.75 134.4 L140.85 131.9 Q135.9 127.8 130.7 124.45 108.95 110.5 81.75 109.45 69.1 108.95 55.3 111.2 51.65 111.8 48.5 110.0 45.35 108.2 44.1 104.8 42.9 101.75 42.8 100.9 L42.75 100.7 Q41.8 95.45 37.7 91.5 32.3 86.2 24.7 86.2 19.4 86.2 15.25 88.8 L14.5 89.3 14.3 89.4 13.4 90.2 11.95 91.35 11.8 91.5 Q6.4 96.75 6.4 104.2 6.4 111.65 11.8 116.95 17.15 122.2 24.7 122.2 27.65 122.2 30.3 121.4 34.4 120.15 37.7 116.95 40.3 114.35 44.0 114.05 47.65 113.7 50.75 115.8 59.25 121.45 66.6 128.95 L68.55 131.0 69.6 132.1 Q92.95 157.95 104.35 203.95 L106.15 211.8 108.55 223.9 111.2 241.35 111.25 241.8 111.7 245.3 112.1 248.8 112.4 251.9 113.3 261.3 113.35 262.15 114.35 277.3 Q114.45 279.8 113.4 282.1 112.3 284.35 110.2 285.9 L91.15 299.5 91.4 301.15 95.45 327.4 124.05 327.4 146.9 327.4 194.1 327.4 291.35 327.4 312.6 327.4 316.05 305.0 316.9 299.5 297.85 285.9 Q295.75 284.35 294.7 282.1 293.55 279.8 293.7 277.3 294.95 253.3 298.1 232.55 L299.1 226.5 300.3 219.8 300.35 219.35 300.45 219.0 300.45 218.95 300.65 217.9 302.15 210.7 302.45 209.5 302.45 209.4 302.7 208.4 303.1 206.55 303.7 204.5 303.75 204.5 311.45 178.8 311.75 177.95 312.0 177.25 313.55 173.3 313.6 173.2 313.55 173.2" fill="#000000" fill-rule="evenodd" stroke="none"/>
      <path d="M316.05 305.0 L312.6 327.4 291.35 327.4 293.1 327.2 304.7 324.85 309.5 323.95 316.05 305.0 M124.05 327.4 L95.45 327.4 91.4 301.15 92.6 304.95 96.15 318.4 97.4 324.85 107.9 325.9 117.25 326.75 124.05 327.4 M104.35 203.95 Q92.95 157.95 69.6 132.1 79.3 138.25 87.55 152.15 96.8 167.75 102.35 188.4 104.0 194.85 104.4 199.6 104.6 202.05 104.35 203.95 M30.3 121.4 Q27.65 122.2 24.7 122.2 17.15 122.2 11.8 116.95 6.4 111.65 6.4 104.2 6.4 96.75 11.8 91.5 L11.95 91.35 13.4 90.2 11.75 92.3 Q10.05 94.65 9.4 97.75 8.7 100.8 9.45 105.55 10.2 110.25 14.45 114.75 18.7 119.2 23.15 120.45 27.6 121.7 30.3 121.4 M14.5 89.3 L15.25 88.8 14.5 89.3 M81.75 109.45 Q108.95 110.5 130.7 124.45 135.9 127.8 140.85 131.9 132.7 127.35 118.05 120.45 103.35 113.5 81.75 109.45 L82.0 109.5 81.75 109.45 M159.75 131.5 L193.35 65.65 Q189.35 80.2 174.95 106.45 160.55 132.7 159.75 131.5 M282.2 121.3 L284.85 120.05 Q288.45 118.3 288.6 118.25 L289.05 118.05 289.4 117.9 300.25 113.8 Q322.35 106.95 348.9 110.65 L350.2 110.8 348.9 110.65 Q318.7 112.2 307.05 114.8 295.4 117.4 290.7 118.75 L282.2 121.3" fill="#ffffff" fill-rule="evenodd" stroke="none"/>
      <path d="M350.2 110.8 L352.75 111.2 Q356.35 111.8 359.5 110.0 362.65 108.2 364.0 104.8 365.1 101.75 365.2 100.9 L365.25 100.7 Q366.25 95.45 370.35 91.5 375.7 86.2 383.3 86.2 390.9 86.2 396.3 91.5 401.65 96.75 401.65 104.2 401.65 111.65 396.3 116.95 390.9 122.2 383.3 122.2 375.7 122.2 370.35 116.95 367.7 114.35 364.05 114.05 360.4 113.7 357.35 115.8 329.4 134.3 313.55 173.2 L310.45 175.6 Q305.75 179.25 279.25 203.6 252.7 227.9 224.5 254.6 L146.9 327.4 124.05 327.4 117.25 326.75 107.9 325.9 97.4 324.85 96.15 318.4 92.6 304.95 91.4 301.15 91.15 299.5 110.2 285.9 Q112.3 284.35 113.4 282.1 114.45 279.8 114.35 277.3 L113.35 262.15 114.75 260.8 182.8 196.35 Q208.25 172.25 220.15 160.55 235.75 145.25 248.45 131.8 249.9 134.45 252.65 135.85 255.5 137.35 258.7 136.95 261.85 136.55 264.3 134.4 275.45 124.4 282.2 121.3 L290.7 118.75 Q295.4 117.4 307.05 114.8 318.7 112.2 348.9 110.65 L350.2 110.8 M298.1 232.55 Q294.95 253.3 293.7 277.3 293.55 279.8 294.7 282.1 295.75 284.35 297.85 285.9 L316.9 299.5 316.05 305.0 309.5 323.95 304.7 324.85 293.1 327.2 291.35 327.4 194.1 327.4 Q248.4 278.45 298.1 232.55 M106.15 211.8 L104.35 203.95 Q104.6 202.05 104.4 199.6 104.0 194.85 102.35 188.4 96.8 167.75 87.55 152.15 79.3 138.25 69.6 132.1 L68.55 131.0 66.6 128.95 Q59.25 121.45 50.75 115.8 47.65 113.7 44.0 114.05 40.3 114.35 37.7 116.95 34.4 120.15 30.3 121.4 27.6 121.7 23.15 120.45 18.7 119.2 14.45 114.75 10.2 110.25 9.45 105.55 8.7 100.8 9.4 97.75 10.05 94.65 11.75 92.3 L13.4 90.2 14.3 89.4 14.5 89.3 15.25 88.8 Q19.4 86.2 24.7 86.2 32.3 86.2 37.7 91.5 41.8 95.45 42.75 100.7 L42.8 100.9 Q42.9 101.75 44.1 104.8 45.35 108.2 48.5 110.0 51.65 111.8 55.3 111.2 69.1 108.95 81.75 109.45 L82.0 109.5 81.75 109.45 Q103.35 113.5 118.05 120.45 132.7 127.35 140.85 131.9 L143.75 134.4 Q146.15 136.55 149.35 136.95 152.1 137.3 154.65 136.2 L155.3 135.9 156.4 135.25 Q158.5 133.8 159.75 131.5 160.55 132.7 174.95 106.45 189.35 80.2 193.35 65.65 L196.4 59.65 Q198.0 56.6 197.35 53.25 196.65 49.9 194.1 47.65 188.75 43.05 186.4 40.75 181.0 35.45 181.0 28.0 181.0 20.95 185.8 15.9 L190.5 21.55 192.1 23.35 Q191.3 25.15 191.1 27.2 190.7 30.35 191.9 33.2 193.6 37.65 198.0 39.85 200.55 41.15 203.5 41.25 206.45 41.4 209.1 40.25 211.75 39.1 213.7 36.95 215.65 34.75 216.4 32.0 217.2 29.3 216.7 26.45 216.2 23.6 214.55 21.25 212.75 18.75 209.85 17.25 207.25 15.95 204.45 15.85 203.7 12.15 201.9 8.35 207.25 7.85 211.2 9.2 215.2 10.55 218.1 12.5 220.0 13.65 221.7 15.3 227.05 20.55 227.05 28.0 227.05 35.45 221.7 40.75 L214.0 47.65 Q211.4 49.9 210.75 53.25 210.0 56.6 211.6 59.65 L225.55 86.9 189.0 125.2 145.0 170.65 Q123.9 192.55 106.15 211.8" fill="url(#gradient0)" fill-rule="evenodd" stroke="none"/>
      <path d="M113.35 262.15 L113.3 261.3 112.4 251.9 112.1 248.8 111.7 245.3 111.25 241.8 111.2 241.35 108.55 223.9 106.15 211.8 Q123.9 192.55 145.0 170.65 L189.0 125.2 225.55 86.9 234.95 105.25 234.95 105.3 248.4 131.65 248.45 131.8 Q235.75 145.25 220.15 160.55 208.25 172.25 182.8 196.35 L114.75 260.8 113.35 262.15" fill="url(#gradient1)" fill-rule="evenodd" stroke="none"/>
      <path d="M313.55 173.2 L313.6 173.2 313.55 173.3 312.0 177.25 311.75 177.95 311.45 178.8 303.75 204.5 303.7 204.5 303.1 206.55 302.7 208.4 302.45 209.4 302.45 209.5 302.15 210.7 300.65 217.9 300.45 218.95 300.45 219.0 300.35 219.35 300.3 219.8 299.1 226.5 298.1 232.55 Q248.4 278.45 194.1 327.4 L146.9 327.4 224.5 254.6 Q252.7 227.9 279.25 203.6 305.75 179.25 310.45 175.6 L313.55 173.2" fill="url(#gradient2)" fill-rule="evenodd" stroke="none"/>
    </g>
    <linearGradient gradientTransform="matrix(0.1436, 0.0306, -0.0405, 0.19, 214.5, 145.35)" gradientUnits="userSpaceOnUse" id="gradient0" spreadMethod="pad" x1="-819.2" x2="819.2">
      <stop offset="0.08627450980392157" stop-color="#a66d6d"/>
      <stop offset="0.48627450980392156" stop-color="#6088a3"/>
      <stop offset="0.9254901960784314" stop-color="#a2c476"/>
    </linearGradient>
    <linearGradient gradientTransform="matrix(0.146, -0.0292, 0.021, 0.1048, 198.85, 156.05)" gradientUnits="userSpaceOnUse" id="gradient1" spreadMethod="pad" x1="-819.2" x2="819.2">
      <stop offset="0.08627450980392157" stop-color="#c99797"/>
      <stop offset="0.48627450980392156" stop-color="#8ab7d7"/>
      <stop offset="0.9254901960784314" stop-color="#b5d788"/>
    </linearGradient>
    <linearGradient gradientTransform="matrix(0.1017, 0.0, 0.0, 0.0941, 230.25, 250.3)" gradientUnits="userSpaceOnUse" id="gradient2" spreadMethod="pad" x1="-819.2" x2="819.2">
      <stop offset="0.08627450980392157" stop-color="#c99797"/>
      <stop offset="0.48627450980392156" stop-color="#8ab7d7"/>
      <stop offset="0.9254901960784314" stop-color="#b5d788"/>
    </linearGradient>
    <g id="sprite1">
      <use ffdec:characterId="725" height="152.5" transform="matrix(1.0, 0.0, 0.0, 1.0, 0.0, 0.0)" width="136.55" xlink:href="#shape1"/>
    </g>
    <g id="shape1">
      <path d="M8.1 -95.4 L8.2 -95.35 8.3 -95.35 11.2 -93.9 31.75 -82.9 62.0 -66.75 62.0 -66.65 68.9 -62.95 69.45 -62.6 69.25 -62.6 58.0 -56.5 57.4 -56.15 57.35 -56.15 56.3 -55.65 54.15 -54.55 53.65 -54.2 6.55 -29.65 6.35 -29.65 6.25 -29.65 6.15 -29.55 6.0 -29.45 5.9 -29.4 5.75 -29.3 Q5.6 -29.25 5.6 -29.2 L5.5 -29.25 5.5 -29.3 5.4 -29.3 5.15 -29.45 4.9 -29.65 4.85 -29.65 4.65 -29.65 -22.85 -44.05 -42.65 -54.35 -43.0 -54.55 -45.1 -55.65 -45.9 -56.05 -48.15 -57.25 -48.6 -57.55 -58.1 -62.55 -57.45 -62.95 -50.55 -66.65 -50.55 -66.75 -47.15 -68.55 -21.25 -82.35 -20.35 -82.9 0.25 -93.9 3.15 -95.35 3.2 -95.35 4.45 -96.0 Q5.7 -96.3 6.8 -96.0 L7.5 -95.8 7.85 -95.55 8.1 -95.4 M9.95 -21.1 L9.95 -21.05 10.4 -21.35 11.85 -22.1 62.85 -48.85 63.3 -49.1 63.4 -49.15 65.45 -50.15 65.45 -50.2 73.75 -54.2 73.85 -54.4 73.85 -51.5 73.85 -48.05 73.85 -40.0 73.8 16.4 73.8 16.7 73.85 16.95 73.85 17.3 73.85 17.55 74.0 17.8 73.85 18.2 73.85 18.45 73.85 18.8 73.8 19.1 73.7 19.5 73.7 19.75 73.55 20.15 73.35 20.55 73.25 20.9 73.05 21.3 72.95 21.5 72.7 21.95 72.45 22.4 72.25 22.85 72.0 23.15 71.75 23.4 71.45 23.8 71.2 23.95 71.0 24.3 70.7 24.55 70.65 24.55 70.5 24.6 70.25 24.9 70.0 24.95 Q69.85 25.0 69.7 25.2 L69.45 25.25 69.25 25.35 69.0 25.55 68.95 25.55 68.75 25.6 10.25 56.15 10.15 56.2 9.95 56.3 9.9 56.35 9.85 -21.0 9.85 -21.05 9.95 -21.1 10.4 -21.4 11.85 -22.15 13.2 -22.85 12.0 -22.2 10.55 -21.45 9.95 -21.1 M1.1 56.1 L0.75 55.9 -57.3 25.6 -57.5 25.55 -57.55 25.55 -57.85 25.35 -58.05 25.25 -58.3 25.2 -58.55 24.95 -58.8 24.9 -59.05 24.6 -59.15 24.55 -59.25 24.55 Q-59.45 24.35 -59.6 24.3 L-59.8 23.95 -60.05 23.8 -60.3 23.4 -60.55 23.15 -60.8 22.85 -61.0 22.4 -61.25 21.95 -61.55 21.5 -61.6 21.3 -61.8 20.9 -61.9 20.55 -62.1 20.15 -62.25 19.75 -62.25 19.5 -62.4 19.1 -62.45 18.8 -62.45 18.45 -62.45 18.2 -62.55 17.8 -62.45 17.55 -62.45 17.3 -62.45 16.95 -62.4 16.7 -62.4 16.4 -62.45 -40.0 -62.45 -48.05 -62.45 -51.5 -62.45 -54.75 -54.15 -50.2 -54.0 -50.1 -54.0 -50.05 -53.8 -49.95 -52.85 -49.45 -51.65 -48.85 -0.65 -22.1 Q-0.5 -22.0 -0.2 -21.85 L0.7 -21.4 1.35 -21.0 1.35 46.25 1.35 53.15 1.4 55.1 1.45 56.2 1.1 56.1 M62.95 -48.95 L62.85 -48.9 63.05 -49.0 62.95 -48.95" fill="#000000" fill-rule="evenodd" stroke="none"/>
      <path d="M-8.65 -63.95 Q-8.1 -65.55 -6.5 -67.0 -4.8 -68.4 -2.3 -69.25 0.2 -70.15 3.3 -70.45 6.35 -70.75 9.25 -70.35 12.2 -69.95 14.65 -68.95 17.1 -67.95 18.6 -66.55 20.3 -64.9 20.35 -62.95 20.5 -61.0 19.0 -59.35 17.55 -57.7 14.65 -56.5 11.8 -55.3 8.35 -55.0 L1.5 -55.25 Q-1.95 -55.85 -4.45 -57.15 -6.9 -58.45 -8.05 -60.25 -9.15 -62.1 -8.65 -63.95 M65.85 -15.0 Q64.3 -13.45 62.4 -13.05 60.45 -12.55 58.4 -13.45 57.4 -13.9 56.55 -14.7 55.7 -15.4 55.05 -16.4 53.5 -18.45 53.05 -21.4 52.45 -24.35 53.2 -27.15 53.85 -29.95 55.5 -31.95 57.2 -33.95 59.3 -34.6 L59.4 -34.6 Q61.45 -35.25 63.55 -34.3 64.85 -33.75 65.85 -32.75 L67.05 -31.2 Q68.55 -28.95 68.95 -26.0 69.4 -23.0 68.75 -20.2 68.05 -17.5 66.25 -15.45 L65.85 -15.0 M47.15 11.45 Q45.2 11.95 43.15 11.05 L41.3 9.85 39.8 8.15 Q38.25 6.05 37.8 3.15 37.25 0.15 37.95 -2.65 38.6 -5.4 40.3 -7.45 41.95 -9.45 44.05 -10.1 L44.1 -10.1 Q46.2 -10.75 48.3 -9.75 50.45 -8.8 51.9 -6.6 53.3 -4.4 53.7 -1.45 54.15 1.6 53.5 4.3 52.8 7.05 51.0 9.05 49.3 11.0 47.15 11.45 M-42.45 -4.85 Q-44.85 -5.35 -46.75 -7.55 -48.75 -9.75 -49.5 -12.8 -50.3 -15.95 -49.8 -19.3 L-49.65 -20.0 Q-49.15 -22.85 -47.7 -25.1 -46.15 -27.55 -43.75 -28.6 -41.3 -29.7 -38.95 -28.95 -36.6 -28.25 -34.75 -26.0 -32.85 -23.7 -32.15 -20.6 -31.75 -19.0 -31.7 -17.35 -31.7 -15.8 -32.0 -14.2 -32.5 -10.85 -34.2 -8.55 -35.75 -6.35 -37.95 -5.3 -40.25 -4.25 -42.45 -4.85 M-19.75 30.2 Q-22.15 29.7 -24.0 27.5 -26.05 25.25 -26.8 22.2 -27.6 19.1 -27.05 15.75 L-26.95 15.0 Q-26.4 12.15 -25.0 9.95 -23.45 7.5 -21.05 6.45 -18.55 5.35 -16.25 6.05 -13.9 6.8 -12.0 9.05 -10.15 11.3 -9.4 14.45 -9.05 16.05 -8.95 17.7 -8.95 19.25 -9.3 20.85 -9.8 24.15 -11.5 26.5 -13.05 28.7 -15.25 29.75 -17.55 30.8 -19.75 30.2 M32.9 34.5 L30.15 35.9 29.95 35.9 Q28.0 36.45 25.95 35.5 24.95 35.05 24.1 34.3 L22.65 32.6 Q21.05 30.55 20.6 27.55 20.05 24.6 20.75 21.85 21.4 19.05 23.1 17.05 24.75 15.0 26.85 14.35 L27.0 14.35 Q29.0 13.7 31.15 14.7 33.25 15.6 34.65 17.8 36.1 20.0 36.5 23.0 36.95 26.0 36.3 28.75 35.6 31.5 33.8 33.5 L32.9 34.5" fill="#ffffff" fill-rule="evenodd" stroke="none"/>
    </g>
  </defs>
</svg>
