<?xml version="1.0" encoding="UTF-8" standalone="no"?>
<svg xmlns:ffdec="https://www.free-decompiler.com/flash" xmlns:xlink="http://www.w3.org/1999/xlink" ffdec:objectType="frame" height="385.3px" width="379.0px" xmlns="http://www.w3.org/2000/svg">
  <g transform="matrix(1.0, 0.0, 0.0, 1.0, 0.0, 0.0)">
    <use ffdec:characterId="704" height="385.3" transform="matrix(1.0, 0.0, 0.0, 1.0, 10.0, 32.2)" width="379.0" xlink:href="#sprite0"/>
    <use ffdec:characterId="706" height="144.4" transform="matrix(1.0, 0.0, 0.0, 1.0, 186.9, 220.15)" width="137.6" xlink:href="#sprite1"/>
  </g>
  <defs>
    <g id="sprite0">
      <use ffdec:characterId="703" height="385.3" transform="matrix(1.0, 0.0, 0.0, 1.0, 0.0, 0.0)" width="379.0" xlink:href="#shape0"/>
    </g>
    <g id="shape0">
      <path d="M360.2 110.15 Q363.85 110.6 366.35 113.3 368.85 115.95 369.0 119.65 369.15 123.25 366.9 126.2 324.3 181.15 293.6 210.05 304.8 272.85 315.95 341.5 316.55 345.25 314.5 348.45 312.45 351.65 308.85 352.7 305.2 353.75 301.75 352.15 L207.2 307.25 207.15 307.25 199.25 303.45 199.4 303.5 193.85 300.9 193.6 300.8 179.5 294.3 165.75 300.65 165.65 300.7 165.55 300.75 165.25 300.85 159.75 303.5 159.8 303.45 151.85 307.25 151.8 307.25 57.25 352.15 Q53.8 353.75 50.2 352.7 46.55 351.65 44.5 348.45 42.45 345.25 43.1 341.5 54.2 272.85 65.45 210.05 34.7 181.15 -7.9 126.2 -10.15 123.25 -10.0 119.65 -9.85 115.95 -7.3 113.3 -4.85 110.6 -1.2 110.15 L112.15 96.35 Q129.95 54.7 170.65 -5.6 173.0 -9.05 177.05 -9.8 L179.5 -10.0 181.95 -9.8 Q186.0 -9.05 188.35 -5.6 229.05 54.7 246.85 96.35 L360.2 110.15 M29.95 141.55 Q51.0 167.15 68.55 185.05 L70.9 187.45 71.7 188.2 83.0 199.0 83.7 199.75 83.95 200.0 85.35 202.35 85.7 203.2 85.9 203.8 86.1 208.2 85.85 209.55 83.45 223.05 83.45 223.3 83.4 223.5 80.35 240.8 80.3 241.0 80.2 241.55 Q73.05 282.55 65.9 325.9 L68.7 324.6 69.9 324.0 71.1 323.45 143.25 289.2 143.3 289.15 151.15 285.45 151.2 285.45 156.5 282.9 156.7 282.85 156.85 282.75 156.95 282.7 174.6 274.1 Q176.5 273.15 178.65 273.05 L179.45 273.05 179.6 273.05 Q182.1 272.95 184.4 274.1 L193.4 278.45 201.85 282.6 201.95 282.65 202.05 282.7 202.35 282.85 202.4 282.85 205.9 284.5 206.95 285.0 207.4 285.2 207.85 285.4 208.0 285.45 208.55 285.75 208.75 285.85 211.05 286.95 211.35 287.1 213.55 288.15 215.7 289.15 215.75 289.2 216.95 289.75 217.55 290.05 218.15 290.3 243.1 302.15 273.4 316.55 278.95 319.2 282.2 320.75 289.05 324.0 293.1 325.9 292.95 324.95 Q286.5 285.7 280.05 248.45 L277.4 233.4 277.1 231.75 277.0 231.0 276.85 230.2 275.35 221.8 274.55 217.25 274.35 216.1 273.7 212.6 272.9 208.2 272.75 206.55 Q272.75 204.85 273.3 203.2 274.15 200.75 276.05 199.0 303.05 174.4 340.2 127.85 L238.65 115.5 Q235.95 115.15 233.8 113.5 L233.35 113.15 231.7 111.35 231.4 110.9 231.25 110.7 230.95 110.1 230.9 110.0 230.85 109.85 230.8 109.75 230.7 109.6 230.65 109.45 230.6 109.3 228.45 104.25 228.25 103.8 228.05 103.25 227.7 102.55 227.45 101.9 227.4 101.85 227.3 101.6 226.95 100.75 226.9 100.7 226.75 100.35 226.0 98.65 221.75 89.65 221.2 88.5 220.35 86.85 220.1 86.35 219.8 85.65 219.65 85.35 219.05 84.15 214.45 75.35 214.4 75.2 214.35 75.1 214.15 74.8 213.65 73.85 213.15 72.9 211.05 69.05 209.2 65.75 208.75 64.95 Q201.75 52.45 193.3 38.8 L192.3 37.2 190.85 34.85 187.85 30.15 180.65 19.0 179.5 17.25 Q143.7 71.7 128.45 109.3 127.4 111.85 125.25 113.5 L124.85 113.8 Q123.6 114.65 122.2 115.1 L120.35 115.5 114.3 116.25 114.2 116.25 18.85 127.85 21.05 130.6 26.2 137.05 25.9 136.65 26.45 137.35 28.05 139.3 28.35 139.65 29.95 141.55" fill="#000000" fill-rule="evenodd" stroke="none"/>
      <path d="M213.65 73.85 L214.15 74.8 214.35 75.1 214.15 74.8 213.65 73.85 M219.8 85.65 L220.1 86.35 220.35 86.85 220.1 86.35 219.8 85.65 M228.05 103.25 L228.25 103.8 228.45 104.25 228.25 103.8 228.05 103.25 M208.55 285.75 L208.0 285.45 207.85 285.4 207.4 285.2 207.85 285.4 208.0 285.45 208.55 285.75 M80.3 241.0 L80.35 240.8 83.4 223.5 83.45 223.3 83.4 223.5 80.35 240.8 80.3 241.0 M83.7 199.75 L83.0 199.0 71.7 188.2 70.9 187.45 71.7 188.2 83.0 199.0 83.7 199.75" fill="url(#gradient0)" fill-rule="evenodd" stroke="none"/>
      <path d="M29.95 141.55 L25.5 131.6 54.05 128.7 76.75 125.9 108.3 121.55 Q127.3 118.95 128.95 116.95 130.55 114.95 133.45 109.8 L141.35 94.6 Q146.35 84.55 154.45 69.05 168.15 42.9 179.6 25.05 193.1 39.05 193.25 38.9 L193.3 38.8 Q201.75 52.45 208.75 64.95 L209.2 65.75 209.0 65.35 209.2 65.75 Q158.4 110.0 115.65 145.55 72.9 181.1 68.55 185.05 51.0 167.15 29.95 141.55 M233.35 113.15 L233.8 113.5 Q235.95 115.15 238.65 115.5 L340.2 127.85 Q303.05 174.4 276.05 199.0 274.15 200.75 273.3 203.2 272.75 204.85 272.75 206.55 259.05 219.6 231.3 244.05 207.4 265.1 193.4 278.45 L184.4 274.1 Q182.1 272.95 179.6 273.05 L179.45 273.05 178.65 273.05 Q176.5 273.15 174.6 274.1 L156.95 282.7 156.85 282.75 156.7 282.85 156.5 282.9 151.2 285.45 151.15 285.45 143.3 289.15 143.25 289.2 71.1 323.45 Q79.2 281.8 84.5 239.8 96.1 228.85 116.4 211.85 157.25 177.55 182.8 155.3 L233.35 113.15 M277.4 233.4 L280.05 248.45 Q279.35 255.35 280.05 264.8 281.1 279.8 283.6 295.0 284.5 300.45 286.75 312.0 L288.8 322.5 287.85 322.0 Q283.15 319.45 276.0 316.2 L263.95 310.75 Q258.55 308.2 255.85 307.0 L247.6 303.6 243.1 302.15 218.15 290.3 217.55 290.05 218.15 290.3 234.35 274.2 Q245.9 262.85 261.75 248.0 L277.4 233.4" fill="#787899" fill-rule="evenodd" stroke="none"/>
      <path d="M193.3 38.8 L193.25 38.9 Q193.1 39.05 179.6 25.05 168.15 42.9 154.45 69.05 146.35 84.55 141.35 94.6 L133.45 109.8 Q130.55 114.95 128.95 116.95 127.3 118.95 108.3 121.55 L76.75 125.9 54.05 128.7 25.5 131.6 29.95 141.55 28.35 139.65 28.05 139.3 26.45 137.35 25.9 136.65 26.2 137.05 21.05 130.6 18.85 127.85 114.2 116.25 114.3 116.25 120.35 115.5 122.2 115.1 Q123.6 114.65 124.85 113.8 L125.25 113.5 Q127.4 111.85 128.45 109.3 143.7 71.7 179.5 17.25 L180.65 19.0 187.85 30.15 190.85 34.85 192.3 37.2 193.3 38.8 M68.55 185.05 Q72.9 181.1 115.65 145.55 158.4 110.0 209.2 65.75 L209.0 65.35 209.2 65.75 211.05 69.05 213.15 72.9 213.65 73.85 214.15 74.8 214.35 75.1 214.4 75.2 214.45 75.35 219.05 84.15 219.65 85.35 219.8 85.65 220.1 86.35 220.35 86.85 221.2 88.5 221.75 89.65 226.0 98.65 226.75 100.35 226.9 100.7 226.95 100.75 227.3 101.6 227.4 101.85 227.45 101.9 227.7 102.55 228.05 103.25 228.25 103.8 228.45 104.25 230.6 109.3 230.65 109.45 230.7 109.6 230.8 109.75 230.85 109.85 230.9 110.0 230.95 110.1 231.25 110.7 231.4 110.9 231.7 111.35 233.35 113.15 182.8 155.3 Q157.25 177.55 116.4 211.85 96.1 228.85 84.5 239.8 79.2 281.8 71.1 323.45 L69.9 324.0 68.7 324.6 65.9 325.9 Q73.05 282.55 80.2 241.55 L80.3 241.0 80.35 240.8 83.4 223.5 83.45 223.3 83.45 223.05 85.85 209.55 86.1 208.2 85.9 203.8 85.7 203.2 85.35 202.35 83.95 200.0 83.7 199.75 83.0 199.0 71.7 188.2 70.9 187.45 68.55 185.05 M272.75 206.55 L272.9 208.2 273.7 212.6 274.35 216.1 274.55 217.25 275.35 221.8 276.85 230.2 277.0 231.0 277.1 231.75 277.4 233.4 261.75 248.0 Q245.9 262.85 234.35 274.2 L218.15 290.3 217.55 290.05 216.95 289.75 215.75 289.2 215.7 289.15 213.55 288.15 211.35 287.1 211.05 286.95 208.75 285.85 208.55 285.75 208.0 285.45 207.85 285.4 207.4 285.2 206.95 285.0 205.9 284.5 202.4 282.85 202.35 282.85 202.05 282.7 201.95 282.65 201.85 282.6 193.4 278.45 Q207.4 265.1 231.3 244.05 259.05 219.6 272.75 206.55 M280.05 248.45 Q286.5 285.7 292.95 324.95 L293.1 325.9 289.05 324.0 282.2 320.75 278.95 319.2 273.4 316.55 243.1 302.15 247.6 303.6 255.85 307.0 Q258.55 308.2 263.95 310.75 L276.0 316.2 Q283.15 319.45 287.85 322.0 L288.8 322.5 286.75 312.0 Q284.5 300.45 283.6 295.0 281.1 279.8 280.05 264.8 279.35 255.35 280.05 248.45" fill="#a6a6c9" fill-rule="evenodd" stroke="none"/>
      <path d="M185.5 62.4 Q182.6 63.65 179.5 63.4 176.35 63.15 173.65 61.6 169.25 59.0 167.75 54.15 166.2 49.3 168.3 44.65 169.15 42.7 170.65 41.1 163.8 26.8 160.65 21.15 152.1 5.85 142.45 -3.8 133.4 -12.85 124.25 -15.8 121.05 -16.85 118.6 -16.6 115.2 -16.15 113.85 -13.7 112.4 -11.0 114.15 -6.65 117.1 0.7 125.4 8.8 134.3 17.55 149.7 28.2 154.1 31.2 155.7 33.35 156.95 35.05 157.35 36.9 157.85 39.0 157.15 40.75 156.35 42.75 154.35 43.95 152.45 45.05 150.15 45.15 146.85 45.25 141.75 43.05 128.95 37.45 117.9 27.45 102.8 13.85 98.85 -1.25 97.45 -6.65 97.75 -11.65 98.1 -17.25 100.6 -21.5 104.15 -27.55 111.55 -30.4 118.5 -33.05 125.95 -31.8 138.25 -29.75 151.0 -17.8 162.3 -7.15 170.25 6.75 178.1 20.35 181.95 35.75 L182.25 36.95 184.5 37.5 Q187.7 38.5 190.0 40.85 192.25 43.2 193.2 46.4 194.15 49.65 193.45 52.8 192.8 56.0 190.65 58.6 188.5 61.15 185.5 62.4" fill="#000000" fill-rule="evenodd" stroke="none"/>
    </g>
    <linearGradient gradientTransform="matrix(0.0695, 0.0575, -0.6368, 0.769, 327.4, 38.2)" gradientUnits="userSpaceOnUse" id="gradient0" spreadMethod="pad" x1="-819.2" x2="819.2">
      <stop offset="0.0" stop-color="#3e4969"/>
      <stop offset="1.0" stop-color="#363f57"/>
    </linearGradient>
    <g id="sprite1">
      <use ffdec:characterId="705" height="144.4" transform="matrix(1.0, 0.0, 0.0, 1.0, 0.0, 0.0)" width="137.6" xlink:href="#shape1"/>
    </g>
    <g id="shape1">
      <path d="M36.2 54.75 Q31.35 57.1 23.65 58.8 -7.55 65.6 -27.1 54.85 -36.3 49.85 -43.05 40.85 -49.45 32.3 -52.55 21.7 -58.25 2.25 -52.45 -20.75 -49.6 -32.35 -44.45 -41.15 -38.45 -51.25 -29.85 -56.7 -26.2 -59.05 -21.8 -60.6 -18.5 -62.75 -14.45 -64.3 -7.4 -67.0 1.2 -67.5 11.2 -68.1 20.3 -65.8 30.1 -63.3 37.5 -57.65 L41.25 -54.4 Q46.1 -53.7 50.7 -50.8 55.4 -48.05 59.1 -43.55 65.35 -35.9 68.55 -23.7 71.35 -13.45 71.3 -3.0 71.15 7.75 68.1 17.55 64.9 27.75 58.65 36.2 52.25 44.9 43.6 50.55 L39.15 53.15 36.2 54.75" fill="#ffffff" fill-rule="evenodd" stroke="none"/>
      <path d="M-65.0 10.55 Q-66.15 3.35 -66.25 -3.15 -67.05 -30.0 -52.65 -47.6 -34.9 -69.65 -7.35 -73.9 L6.65 -75.0 Q25.5 -75.15 40.4 -66.35 60.75 -54.75 65.1 -42.2 L67.2 -34.3 67.4 -32.15 Q67.25 -29.65 65.7 -29.35 61.95 -29.0 57.05 -34.1 50.7 -40.7 44.6 -45.4 23.3 -61.5 0.45 -58.65 -23.1 -55.75 -37.0 -39.45 -53.35 -20.1 -48.7 11.7 -46.05 29.85 -30.5 42.2 -14.45 54.85 5.55 52.65 25.25 50.35 38.65 36.8 52.1 22.95 49.7 6.65 47.3 -8.2 33.0 -18.9 19.4 -28.8 8.2 -27.75 -3.3 -26.75 -12.25 -17.35 -21.35 -8.1 -20.25 3.15 -19.2 14.3 -11.45 21.5 -3.8 28.4 4.8 26.55 13.4 24.55 17.55 20.0 21.35 15.2 20.75 10.6 20.05 5.85 16.2 3.75 13.0 1.95 10.4 2.3 7.0 2.6 3.45 6.85 -0.15 11.0 -0.95 11.15 -2.75 11.35 -4.7 9.15 -6.6 6.85 -6.85 4.2 -7.9 -1.75 -3.1 -6.6 1.5 -11.3 8.2 -12.05 16.7 -13.1 24.6 -7.3 33.0 -1.2 34.5 8.5 36.35 20.8 26.05 30.7 16.9 39.25 5.55 40.6 -10.15 42.3 -21.7 32.35 -33.2 22.45 -35.6 6.05 -38.25 -11.7 -26.9 -26.3 -15.35 -41.15 4.65 -43.5 24.6 -46.1 43.1 -29.9 61.45 -13.85 64.4 1.05 67.25 16.05 63.95 26.55 60.55 36.95 53.0 45.8 35.8 65.8 9.75 68.9 L0.75 69.4 Q-22.55 69.25 -40.4 54.8 -61.05 38.05 -65.0 10.55" fill="#000000" fill-rule="evenodd" stroke="none"/>
    </g>
  </defs>
</svg>
