<?xml version="1.0" encoding="UTF-8" standalone="no"?>
<svg xmlns:ffdec="https://www.free-decompiler.com/flash" xmlns:xlink="http://www.w3.org/1999/xlink" ffdec:objectType="frame" height="507.85px" width="307.9px" xmlns="http://www.w3.org/2000/svg">
  <g transform="matrix(1.0, 0.0, 0.0, 1.0, 39.9, 171.25)">
    <use ffdec:characterId="744" height="507.85" transform="matrix(1.0, 0.0, 0.0, 1.0, -29.9, -153.7)" width="307.9" xlink:href="#sprite0"/>
    <use ffdec:characterId="746" height="75.4" transform="matrix(2.6873, 0.0, 0.0, 2.6873, -46.15, 96.7)" width="75.5" xlink:href="#sprite1"/>
  </g>
  <defs>
    <g id="sprite0">
      <use ffdec:characterId="743" height="507.85" transform="matrix(1.0, 0.0, 0.0, 1.0, 0.0, 0.0)" width="307.9" xlink:href="#shape0"/>
    </g>
    <g id="shape0">
      <path d="M140.1 -9.95 L143.95 -10.1 147.75 -9.95 Q159.15 -9.35 166.45 -5.45 L166.5 -5.45 Q177.55 0.15 184.55 11.2 191.55 22.2 191.9 34.75 L191.9 34.8 Q192.25 47.3 185.9 58.75 182.1 65.7 176.5 71.65 203.4 116.05 228.05 152.5 255.15 192.4 271.5 222.8 288.45 254.15 293.5 274.3 300.2 300.75 296.7 324.95 293.15 350.2 277.3 369.0 263.2 386.0 236.65 397.7 225.45 428.05 202.4 451.15 178.0 475.5 148.45 489.35 146.4 490.3 144.25 490.3 142.0 490.3 140.0 489.4 109.9 475.5 85.55 451.15 62.45 428.05 51.25 397.7 24.7 386.0 10.6 369.0 -5.25 350.2 -8.8 325.0 L-8.8 324.95 Q-12.3 300.75 -5.6 274.3 -0.55 254.15 16.4 222.8 32.75 192.4 59.9 152.5 84.5 116.05 111.45 71.65 105.8 65.7 102.0 58.75 100.0 55.1 98.65 51.4 86.65 47.9 76.4 41.05 63.95 32.75 56.3 20.95 49.45 10.4 50.6 1.75 51.5 -5.0 57.15 -10.25 62.45 -15.2 69.65 -16.8 81.55 -19.35 97.4 -13.05 107.45 -9.05 116.9 -2.8 119.05 -4.25 121.5 -5.45 L121.4 -5.4 Q128.65 -9.35 140.1 -9.95 M155.05 74.8 Q153.3 71.7 153.9 68.25 154.5 64.6 157.35 62.25 164.3 56.4 168.4 49.05 172.05 42.5 171.9 35.35 L171.9 35.3 Q171.65 28.2 167.65 21.95 L167.65 21.9 Q163.65 15.6 157.4 12.4 L157.35 12.35 Q153.15 10.35 146.65 10.0 L143.95 9.9 141.2 10.0 Q137.25 10.2 134.2 11.05 139.8 16.35 145.0 22.45 L147.75 22.95 Q151.45 24.1 154.15 27.15 156.8 30.2 157.4 34.0 158.0 37.8 156.45 41.5 154.85 45.25 151.7 47.45 148.1 49.95 143.9 49.95 139.8 50.0 136.15 47.55 132.55 45.1 131.0 41.25 129.55 37.65 130.3 33.7 130.7 31.5 131.7 29.65 L128.9 27.2 123.9 22.9 121.15 20.6 120.25 21.9 120.25 21.95 Q116.25 28.2 116.0 35.35 115.85 42.5 119.5 49.05 122.5 54.45 127.1 59.05 L130.55 62.25 Q133.4 64.6 134.05 68.25 134.65 71.85 132.75 75.05 L131.65 76.9 126.2 85.8 126.1 86.0 118.9 97.75 118.5 98.4 117.9 99.4 115.7 102.9 114.2 105.3 77.45 162.2 76.45 163.7 76.45 163.75 75.1 165.75 65.7 179.85 65.35 180.3 65.4 180.3 Q46.5 209.15 34.0 232.3 25.6 247.85 20.4 260.35 15.95 270.85 13.8 279.25 8.1 301.65 11.0 322.15 L11.5 325.1 Q13.0 333.9 17.2 342.7 L17.3 343.0 17.45 343.25 17.75 343.8 17.9 344.1 18.5 345.25 18.7 345.55 18.85 345.9 19.05 346.2 19.45 346.9 19.65 347.25 19.85 347.6 20.05 347.95 20.3 348.3 20.5 348.65 20.75 349.0 21.05 349.55 21.25 349.85 21.4 350.05 21.9 350.8 22.3 351.4 22.85 352.15 23.0 352.35 23.15 352.55 23.6 353.2 23.75 353.4 24.0 353.7 24.15 353.9 24.5 354.4 24.65 354.55 25.9 356.15 27.45 357.85 Q31.55 362.3 36.75 366.3 L37.15 366.6 45.35 372.2 46.25 372.75 Q53.8 377.2 63.0 380.95 65.0 381.8 66.5 383.4 68.0 384.95 68.7 387.05 78.3 415.6 99.7 437.0 105.95 443.25 112.6 448.75 125.6 459.4 140.15 467.15 L144.15 469.2 144.9 468.85 150.8 465.65 Q159.35 460.8 167.35 454.95 L167.45 454.9 172.85 450.75 Q179.55 445.4 185.85 439.35 L186.45 438.75 188.25 437.0 189.45 435.8 189.75 435.5 190.3 434.9 Q208.25 415.35 216.7 393.9 L216.75 393.8 217.3 392.4 217.95 390.65 219.25 387.05 219.6 386.15 220.8 384.15 221.4 383.4 Q222.9 381.8 224.9 380.95 240.1 374.75 250.8 366.6 L250.75 366.65 252.35 365.4 261.8 356.35 262.0 356.15 Q265.55 351.9 268.3 347.25 L271.05 341.7 Q273.55 336.45 275.0 331.15 276.4 325.8 276.9 322.15 279.8 301.65 274.1 279.25 272.2 271.9 268.6 262.9 263.15 249.45 253.9 232.3 248.4 222.1 241.65 210.75 L235.5 200.65 231.4 194.05 229.3 190.8 228.75 189.9 224.4 183.1 219.95 176.4 219.75 176.05 212.2 164.8 211.5 163.75 211.5 163.7 210.85 162.8 206.45 156.2 Q190.65 132.5 173.95 105.65 L170.65 100.35 167.15 94.7 155.2 75.05 155.05 74.8 M103.35 11.2 L105.15 8.6 Q98.15 4.15 91.6 1.45 81.7 -2.55 73.9 -1.95 69.3 -1.55 67.55 0.8 66.2 2.7 66.7 5.5 67.1 7.75 68.65 10.3 74.4 19.8 86.35 28.05 L96.05 34.05 Q96.55 21.9 103.35 11.2" fill="#000000" fill-rule="evenodd" stroke="none"/>
      <path d="M155.05 74.8 L155.2 75.05 167.15 94.7 170.65 100.35 173.95 105.65 167.45 110.7 149.8 123.6 Q121.75 143.45 80.55 166.95 70.95 180.3 48.2 216.95 25.45 253.55 20.4 260.35 25.6 247.85 34.0 232.3 46.5 209.15 65.4 180.3 L65.35 180.3 65.7 179.85 75.1 165.75 76.45 163.75 76.45 163.7 77.45 162.2 114.2 105.3 115.7 102.9 117.9 99.4 118.5 98.4 118.9 97.75 126.1 86.0 126.2 85.8 131.65 76.9 132.0 76.3 Q131.15 78.05 129.15 84.0 L125.1 95.25 Q142.9 82.8 155.05 74.8 M206.45 156.2 L210.85 162.8 211.5 163.7 211.5 163.75 212.2 164.8 219.75 176.05 219.95 176.4 224.4 183.1 228.75 189.9 229.3 190.8 231.4 194.05 235.5 200.65 241.65 210.75 220.9 227.95 153.1 282.35 Q114.1 313.85 86.1 337.8 66.0 354.95 46.25 372.75 L45.35 372.2 37.15 366.6 36.75 366.3 Q31.55 362.3 27.45 357.85 L25.9 356.15 24.65 354.55 24.5 354.4 24.15 353.9 24.0 353.7 23.75 353.4 23.6 353.2 23.15 352.55 23.0 352.35 22.85 352.15 22.3 351.4 21.9 350.8 21.4 350.05 21.25 349.85 21.05 349.55 20.75 349.0 20.5 348.65 20.3 348.3 20.05 347.95 19.85 347.6 19.65 347.25 19.45 346.9 19.05 346.2 18.85 345.9 18.7 345.55 18.5 345.25 17.9 344.1 17.75 343.8 17.45 343.25 17.3 343.0 17.2 342.7 Q13.0 333.9 11.5 325.1 L11.4 324.5 Q106.1 236.9 205.8 155.25 L206.45 156.2 M268.6 262.9 Q272.2 271.9 274.1 279.25 279.8 301.65 276.9 322.15 276.4 325.8 275.0 331.15 273.55 336.45 271.05 341.7 L268.3 347.25 Q265.55 351.9 262.0 356.15 L261.8 356.35 252.35 365.4 250.75 366.65 250.8 366.6 Q240.1 374.75 224.9 380.95 222.9 381.8 221.4 383.4 L220.8 384.15 219.6 386.15 219.25 387.05 217.95 390.65 217.3 392.4 216.75 393.8 216.7 393.9 Q208.25 415.35 190.3 434.9 L189.75 435.5 189.45 435.8 188.25 437.0 186.45 438.75 185.85 439.35 Q179.55 445.4 172.85 450.75 L167.45 454.9 167.35 454.95 Q159.35 460.8 150.8 465.65 L144.9 468.85 144.15 469.2 140.15 467.15 Q125.6 459.4 112.6 448.75 L119.95 452.35 129.8 457.1 139.9 461.75 144.8 463.65 Q170.3 448.7 185.55 431.05 200.8 413.35 207.8 400.05 214.7 386.7 216.1 380.5 L220.9 377.95 Q251.05 360.9 261.9 344.8 264.25 341.35 268.05 331.15 271.85 320.95 272.55 303.05 273.2 285.15 268.9 265.3 268.6 263.95 268.6 262.9 M127.1 59.05 Q122.5 54.45 119.5 49.05 115.85 42.5 116.0 35.35 116.25 28.2 120.25 21.95 L120.25 21.9 121.15 20.6 123.9 22.9 123.1 25.5 122.65 26.95 Q120.8 34.25 121.0 39.85 121.3 48.4 124.9 55.0 L126.8 58.45 127.1 59.05" fill="#a2a2a2" fill-rule="evenodd" stroke="none"/>
      <path d="M123.9 22.9 L128.9 27.2 131.7 29.65 Q130.7 31.5 130.3 33.7 129.55 37.65 131.0 41.25 132.55 45.1 136.15 47.55 139.8 50.0 143.9 49.95 148.1 49.95 151.7 47.45 154.85 45.25 156.45 41.5 158.0 37.8 157.4 34.0 156.8 30.2 154.15 27.15 151.45 24.1 147.75 22.95 L145.0 22.45 Q139.8 16.35 134.2 11.05 137.25 10.2 141.2 10.0 L143.95 9.9 146.65 10.0 Q153.15 10.35 157.35 12.35 L157.4 12.4 Q163.65 15.6 167.65 21.9 L167.65 21.95 Q171.65 28.2 171.9 35.3 L171.9 35.35 Q172.05 42.5 168.4 49.05 164.3 56.4 157.35 62.25 154.5 64.6 153.9 68.25 153.3 71.7 155.05 74.8 142.9 82.8 125.1 95.25 L129.15 84.0 Q131.15 78.05 132.0 76.3 L131.65 76.9 132.75 75.05 Q134.65 71.85 134.05 68.25 133.4 64.6 130.55 62.25 L127.1 59.05 126.8 58.45 124.9 55.0 Q121.3 48.4 121.0 39.85 120.8 34.25 122.65 26.95 L123.1 25.5 123.9 22.9 M173.95 105.65 Q190.65 132.5 206.45 156.2 L205.8 155.25 Q106.1 236.9 11.4 324.5 L11.5 325.1 11.0 322.15 Q8.1 301.65 13.8 279.25 15.95 270.85 20.4 260.35 25.45 253.55 48.2 216.95 70.95 180.3 80.55 166.95 121.75 143.45 149.8 123.6 L167.45 110.7 173.95 105.65 M241.65 210.75 Q248.4 222.1 253.9 232.3 263.15 249.45 268.6 262.9 268.6 263.95 268.9 265.3 273.2 285.15 272.55 303.05 271.85 320.95 268.05 331.15 264.25 341.35 261.9 344.8 251.05 360.9 220.9 377.95 L216.1 380.5 Q214.7 386.7 207.8 400.05 200.8 413.35 185.55 431.05 170.3 448.7 144.8 463.65 L139.9 461.75 129.8 457.1 119.95 452.35 112.6 448.75 Q105.95 443.25 99.7 437.0 78.3 415.6 68.7 387.05 68.0 384.95 66.5 383.4 65.0 381.8 63.0 380.95 53.8 377.2 46.25 372.75 66.0 354.95 86.1 337.8 114.1 313.85 153.1 282.35 L220.9 227.95 241.65 210.75" fill="#787878" fill-rule="evenodd" stroke="none"/>
    </g>
    <g id="sprite1">
      <use ffdec:characterId="745" height="75.4" transform="matrix(1.0, 0.0, 0.0, 1.0, 0.0, 0.0)" width="75.5" xlink:href="#shape1"/>
    </g>
    <g id="shape1">
      <path d="M34.85 -9.45 Q38.7 -14.0 44.0 -16.9 49.35 -19.8 55.25 -20.6 62.35 -21.55 69.5 -19.3 L69.45 -19.35 Q76.55 -17.1 81.85 -12.15 87.1 -7.25 89.9 -0.4 92.65 6.45 92.2 13.65 L92.2 13.7 Q91.75 21.35 87.7 28.25 L87.65 28.3 Q83.6 35.2 77.05 39.35 70.5 43.45 62.55 44.2 54.55 44.85 47.35 42.0 L47.4 42.0 Q40.25 39.05 34.95 33.0 L34.95 33.05 Q29.7 26.95 27.85 19.45 26.05 11.9 27.9 4.15 L27.9 4.2 Q29.8 -3.6 34.85 -9.5 L34.85 -9.45" fill="#ffffff" fill-rule="evenodd" stroke="none"/>
      <path d="M30.9 -12.85 Q35.4 -18.1 41.5 -21.45 47.7 -24.8 54.5 -25.7 62.75 -26.8 70.95 -24.25 79.15 -21.65 85.25 -15.95 91.35 -10.3 94.55 -2.35 97.75 5.6 97.25 13.9 96.75 22.8 92.0 30.8 87.3 38.8 79.7 43.6 72.15 48.35 62.95 49.2 53.7 50.0 45.4 46.65 37.15 43.3 31.05 36.3 25.0 29.3 22.85 20.6 20.75 11.9 22.9 2.9 25.1 -6.05 30.9 -12.85" fill="#000000" fill-rule="evenodd" stroke="none"/>
      <path d="M93.55 13.1 L93.5 13.2 Q92.95 23.75 86.9 31.75 84.8 34.45 82.15 36.8 75.8 42.6 67.95 44.6 L64.9 45.15 64.95 45.1 Q68.8 44.0 71.8 41.2 L72.7 40.35 73.05 39.85 73.5 39.4 74.7 37.5 Q76.45 35.0 76.95 31.9 L76.95 31.85 77.05 31.6 Q77.5 29.5 77.45 27.45 L77.45 27.1 77.4 25.65 Q76.95 22.5 75.5 19.95 L73.8 17.65 Q72.35 15.9 71.0 15.05 L70.15 14.5 Q66.35 12.25 62.65 11.0 L55.7 9.0 Q52.4 8.0 49.95 6.7 L48.7 5.9 46.95 4.45 Q45.25 3.1 44.0 0.3 42.75 -2.45 42.6 -3.95 L42.5 -6.3 42.7 -8.15 Q43.4 -12.15 45.75 -15.95 L48.15 -18.65 50.1 -20.1 Q51.3 -21.05 53.45 -21.8 L57.4 -22.75 59.85 -22.9 61.35 -22.9 Q75.5 -22.1 84.85 -11.6 L87.1 -8.9 89.0 -6.05 Q94.15 2.55 93.55 13.1 M66.25 -6.55 L66.25 -7.15 Q66.05 -10.5 64.25 -12.85 62.55 -15.35 59.9 -15.4 L59.65 -15.4 59.2 -15.4 59.15 -15.4 Q56.8 -15.15 55.2 -12.85 53.4 -10.5 53.25 -7.15 L53.25 -6.55 Q53.25 -2.9 55.2 -0.3 56.8 1.9 59.15 2.2 L59.5 2.25 59.75 2.25 59.95 2.25 Q62.5 2.2 64.25 -0.3 66.25 -2.9 66.25 -6.55 M66.25 29.15 L66.25 29.7 Q66.05 33.05 64.25 35.4 62.5 37.95 59.95 38.0 L59.75 38.0 59.2 38.0 59.15 38.0 Q56.8 37.7 55.2 35.4 53.4 33.05 53.25 29.7 L53.25 29.15 Q53.25 25.45 55.2 22.9 56.75 20.8 58.9 20.45 L59.65 20.35 59.75 20.35 59.95 20.35 Q62.5 20.4 64.25 22.9 66.25 25.45 66.25 29.15" fill="#ffffff" fill-rule="evenodd" stroke="none"/>
    </g>
  </defs>
</svg>
