<?xml version="1.0" encoding="UTF-8" standalone="no"?>
<svg xmlns:ffdec="https://www.free-decompiler.com/flash" xmlns:xlink="http://www.w3.org/1999/xlink" ffdec:objectType="frame" height="297.1px" width="219.25px" xmlns="http://www.w3.org/2000/svg">
  <g transform="matrix(1.0, 0.0, 0.0, 1.0, -40.9, 111.9)">
    <use ffdec:characterId="749" height="297.1" transform="matrix(1.0, 0.0, 0.0, 1.0, 57.05, -72.85)" width="219.25" xlink:href="#sprite0"/>
    <use ffdec:characterId="751" height="179.0" transform="matrix(0.8146, 0.0, 0.0, 0.8146, 84.3, -23.85)" width="168.55" xlink:href="#sprite1"/>
  </g>
  <defs>
    <g id="sprite0">
      <use ffdec:characterId="748" height="297.1" transform="matrix(1.0, 0.0, 0.0, 1.0, 0.0, 0.0)" width="219.25" xlink:href="#shape0"/>
    </g>
    <g id="shape0">
      <path d="M52.5 258.05 Q50.05 258.05 48.05 256.6 46.05 255.1 45.35 252.8 L-3.25 96.6 Q-4.15 93.65 -2.75 90.95 L33.85 18.95 Q25.85 17.75 16.05 13.3 -5.45 3.4 -13.2 -11.35 -17.2 -18.95 -15.8 -25.05 -15.0 -28.35 -12.6 -31.2 -10.35 -33.9 -7.15 -35.65 -1.85 -38.55 6.35 -39.0 19.65 -39.7 37.5 -33.65 57.55 -26.8 73.7 -15.3 79.75 -11.0 85.0 -6.2 L148.25 -6.2 Q150.35 -6.2 152.2 -5.05 153.95 -3.95 154.95 -2.1 L202.3 91.0 Q203.65 93.7 202.75 96.65 L154.2 252.8 Q153.5 255.1 151.5 256.6 149.5 258.05 147.05 258.05 L52.5 258.05 M44.6 -2.1 Q45.55 -3.95 47.35 -5.05 49.15 -6.2 51.25 -6.2 L61.95 -6.2 58.05 -8.75 Q37.95 -21.35 15.55 -24.75 6.2 -26.15 0.55 -24.4 -2.05 -23.55 -2.55 -21.9 -2.9 -20.85 -2.2 -19.05 1.1 -10.7 11.9 -3.0 25.5 6.7 38.8 9.3 L44.6 -2.1 M187.5 95.35 L187.55 95.1 166.0 52.75 143.65 8.8 98.65 8.8 100.65 11.65 101.85 13.4 103.3 15.9 Q105.6 16.7 107.4 18.75 109.85 21.5 110.0 24.85 110.1 28.3 108.0 31.25 105.85 34.2 102.6 35.0 99.3 36.0 95.9 34.45 92.65 32.95 91.05 29.95 89.75 27.45 90.0 24.6 90.15 22.95 90.75 21.5 86.8 16.15 82.35 11.35 L79.95 8.8 55.85 8.8 11.95 95.05 21.25 125.0 23.8 133.2 31.9 159.1 51.25 221.4 56.5 238.15 58.0 243.05 117.75 243.05 141.55 243.05 165.3 166.75 170.45 150.15 172.25 144.45 187.5 95.35" fill="#000000" fill-rule="evenodd" stroke="none"/>
      <path d="M173.15 141.4 L172.9 142.25 173.2 141.2 173.15 141.4" fill="#3c3c3c" fill-rule="evenodd" stroke="none"/>
      <path d="M187.5 95.35 L172.25 144.45 170.45 150.15 Q112.05 196.6 56.5 238.15 L51.25 221.4 51.3 221.4 50.95 220.3 Q63.05 208.9 77.25 196.45 L113.45 164.95 Q134.55 146.45 148.95 132.65 L170.35 111.65 Q180.0 102.15 187.5 95.35 M165.3 166.75 L141.55 243.05 117.75 243.05 134.1 240.45 136.45 240.15 137.65 236.55 136.45 240.15 Q151.75 196.15 166.0 164.05 L165.3 166.75 M31.9 159.1 L23.8 133.2 Q65.0 85.1 109.1 39.15 L135.05 13.25 138.3 10.05 131.6 11.1 120.85 11.8 110.05 11.75 100.65 11.65 98.65 8.8 143.65 8.8 166.0 52.75 165.05 51.45 Q161.65 46.75 157.45 38.8 L157.6 39.1 Q142.7 51.9 32.05 159.6 L31.9 159.1 M21.25 125.0 L11.95 95.05 55.85 8.8 79.95 8.8 82.35 11.35 64.2 11.1 61.35 11.4 56.9 11.8 Q52.8 20.7 41.4 43.15 L21.4 82.35 14.2 96.3 14.9 99.15 14.85 99.1 14.9 99.2 15.8 102.65 21.4 125.45 21.25 125.0 M173.15 141.4 L173.2 141.2 172.9 142.25 173.15 141.4" fill="#212121" fill-rule="evenodd" stroke="none"/>
      <path d="M166.0 52.75 L187.55 95.1 187.5 95.35 Q180.0 102.15 170.35 111.65 L148.95 132.65 Q134.55 146.45 113.45 164.95 L77.25 196.45 Q63.05 208.9 50.95 220.3 L51.3 221.4 51.25 221.4 31.9 159.1 32.05 159.6 Q142.7 51.9 157.6 39.1 L157.45 38.8 Q161.65 46.75 165.05 51.45 L166.0 52.75 M170.45 150.15 L165.3 166.75 166.0 164.05 Q151.75 196.15 136.45 240.15 L137.65 236.55 136.45 240.15 134.1 240.45 117.75 243.05 58.0 243.05 56.5 238.15 Q112.05 196.6 170.45 150.15 M23.8 133.2 L21.25 125.0 21.4 125.45 15.8 102.65 14.9 99.2 14.85 99.1 14.9 99.15 14.2 96.3 21.4 82.35 41.4 43.15 Q52.8 20.7 56.9 11.8 L61.35 11.4 64.2 11.1 82.35 11.35 Q86.8 16.15 90.75 21.5 90.15 22.95 90.0 24.6 89.75 27.45 91.05 29.95 92.65 32.95 95.9 34.45 99.3 36.0 102.6 35.0 105.85 34.2 108.0 31.25 110.1 28.3 110.0 24.85 109.85 21.5 107.4 18.75 105.6 16.7 103.3 15.9 L101.85 13.4 100.65 11.65 110.05 11.75 120.85 11.8 131.6 11.1 138.3 10.05 135.05 13.25 109.1 39.15 Q65.0 85.1 23.8 133.2" fill="#131313" fill-rule="evenodd" stroke="none"/>
    </g>
    <g id="sprite1">
      <use ffdec:characterId="750" height="179.0" transform="matrix(1.0, 0.0, 0.0, 1.0, 0.0, 0.0)" width="168.55" xlink:href="#shape1"/>
    </g>
    <g id="shape1">
      <path d="M17.95 124.8 Q12.9 120.3 10.95 114.9 5.85 101.05 4.95 86.7 4.4 80.65 5.4 69.55 6.35 58.4 10.1 48.8 13.9 39.1 16.55 34.85 L19.75 29.9 Q24.2 23.65 29.75 18.45 L30.25 18.0 30.5 17.75 31.35 16.9 32.45 15.95 33.05 15.35 Q42.5 7.15 54.25 2.2 69.4 -4.15 85.9 -3.9 L88.2 -3.9 89.3 -3.95 92.4 -3.95 Q108.9 -4.2 124.0 2.15 135.75 7.05 145.25 15.3 L148.35 18.15 Q153.85 23.4 158.3 29.65 L161.55 34.55 Q164.15 38.85 168.0 48.55 171.8 58.15 172.7 69.25 173.65 80.35 173.1 86.45 172.2 100.8 167.15 114.65 L165.75 117.6 165.3 118.5 164.2 120.05 Q162.5 122.65 159.95 124.85 L155.45 128.25 155.25 128.3 Q152.45 130.5 148.45 132.05 145.15 133.25 139.75 134.2 L139.9 135.55 Q140.55 140.75 140.4 144.55 L139.65 151.05 138.3 157.4 Q137.6 160.05 136.4 162.3 L135.6 163.7 135.35 164.05 134.45 165.5 Q131.75 169.25 128.1 171.1 124.25 173.2 119.75 172.85 115.15 172.4 112.1 169.5 110.05 167.5 108.6 164.1 L107.6 161.65 104.7 166.45 Q103.95 167.55 102.65 168.7 100.2 171.5 97.2 173.25 93.8 175.2 88.7 175.0 L85.15 174.55 Q82.7 174.1 80.85 173.05 L78.25 171.25 Q74.7 168.7 73.35 166.7 71.8 164.4 70.4 161.65 L69.5 163.9 Q68.0 167.25 65.95 169.25 L65.75 169.4 Q62.75 172.35 58.15 172.8 53.65 173.15 49.8 171.05 46.1 169.2 43.45 165.45 41.0 162.0 39.75 157.65 L38.45 151.3 Q37.7 146.15 37.65 144.8 37.55 141.0 38.15 135.75 L38.4 134.15 Q32.8 133.2 29.45 131.95 25.4 130.45 22.6 128.25 L22.45 128.15 17.95 124.8" fill="#000000" fill-rule="evenodd" stroke="none"/>
      <path d="M144.4 61.3 Q145.6 62.4 147.85 66.1 152.05 73.2 152.3 81.55 152.6 90.05 148.9 98.05 146.35 103.8 142.05 107.55 137.0 112.2 130.65 113.1 125.45 113.8 120.05 111.8 116.0 110.15 111.7 106.55 106.75 102.2 103.9 97.4 100.85 92.0 99.8 87.85 98.75 83.7 99.05 83.0 99.35 82.35 99.9 82.0 L101.0 81.2 105.7 78.8 114.3 74.35 139.85 61.1 Q141.65 60.15 142.25 60.1 L143.0 60.25 144.4 61.3 M33.8 61.1 L35.1 60.05 35.9 60.0 Q36.45 59.85 38.3 60.85 48.75 66.5 63.95 74.1 L72.45 78.65 77.1 81.0 78.25 81.8 Q78.75 82.0 79.05 82.8 79.4 83.5 78.35 87.65 77.3 91.8 74.2 97.15 71.4 102.05 66.4 106.3 62.2 109.85 58.0 111.6 52.65 113.6 47.55 112.95 41.2 112.0 36.05 107.4 31.8 103.55 29.25 97.85 25.5 89.75 25.8 81.4 26.1 72.9 30.3 65.85 32.45 62.25 33.8 61.1 M92.25 112.3 L92.75 113.05 93.5 114.2 Q95.35 117.4 98.2 120.35 L100.5 122.8 Q101.65 124.3 101.65 125.85 101.75 127.75 100.25 128.65 L97.2 128.75 Q94.75 128.05 91.75 124.6 L89.05 121.4 86.5 124.4 Q83.45 127.75 81.0 128.55 L77.95 128.4 Q76.45 127.55 76.55 125.6 76.55 124.05 77.8 122.55 L80.0 120.15 Q82.85 117.15 84.75 113.95 L85.3 113.05 86.0 112.1 Q86.85 111.1 87.7 110.75 L90.4 110.85 90.85 111.15 92.25 112.3" fill="#ffffff" fill-rule="evenodd" stroke="none"/>
    </g>
  </defs>
</svg>
