<?xml version="1.0" encoding="UTF-8" standalone="no"?>
<svg xmlns:ffdec="https://www.free-decompiler.com/flash" xmlns:xlink="http://www.w3.org/1999/xlink" ffdec:objectType="frame" height="499.25px" width="438.25px" xmlns="http://www.w3.org/2000/svg">
  <g transform="matrix(1.0, 0.0, 0.0, 1.0, 64.95, 304.95)">
    <use ffdec:characterId="719" height="499.25" transform="matrix(1.0, 0.0, 0.0, 1.0, -55.15, -250.65)" width="438.25" xlink:href="#sprite0"/>
    <use ffdec:characterId="721" height="125.5" transform="matrix(1.3658, 0.0, 0.0, 1.2766, 145.35, 4.95)" width="177.7" xlink:href="#sprite1"/>
  </g>
  <defs>
    <g id="sprite0">
      <use ffdec:characterId="718" height="499.25" transform="matrix(1.0, 0.0, 0.0, 1.0, 0.0, 0.0)" width="438.25" xlink:href="#shape0"/>
    </g>
    <g id="shape0">
      <path d="M172.0 3.9 Q177.3 -1.05 182.8 -4.2 177.5 -13.95 173.65 -19.7 170.35 -24.6 167.35 -27.75 163.55 -31.8 159.4 -34.0 154.9 -36.45 151.95 -34.85 149.3 -33.45 148.75 -29.25 147.9 -23.1 152.1 -15.4 157.15 -6.0 165.25 0.3 L171.1 4.75 172.0 3.9 M278.3 32.2 L278.35 32.2 Q290.45 34.6 300.8 43.5 314.05 54.85 322.7 73.45 L322.75 73.5 Q329.45 87.85 333.7 107.75 339.7 136.65 339.15 166.5 L338.9 178.3 343.0 176.5 Q353.15 172.3 365.3 170.65 L365.35 170.65 Q377.45 168.95 393.05 171.65 L393.1 171.65 Q409.05 174.25 425.1 188.35 427.4 190.4 428.15 193.45 428.9 196.45 427.8 199.4 427.1 201.2 425.85 202.6 L424.7 203.65 423.1 204.75 Q417.65 207.7 412.2 210.6 398.75 219.1 391.35 230.25 L391.4 230.2 Q380.4 247.25 373.9 274.65 366.45 305.5 359.15 325.35 L359.15 325.4 Q351.5 345.85 340.6 365.05 329.35 385.0 310.95 403.25 292.0 422.05 266.9 432.65 L266.85 432.7 Q242.4 442.9 216.0 444.8 L215.3 444.8 215.05 444.8 214.95 444.8 214.25 444.85 212.65 444.9 208.35 444.95 207.5 444.95 206.55 444.95 205.5 444.9 203.85 444.85 203.05 444.8 202.8 444.8 202.1 444.8 Q175.7 442.9 151.25 432.7 L151.2 432.65 Q126.1 422.05 107.15 403.25 88.75 385.0 77.5 365.05 66.6 345.85 59.0 325.4 L59.0 325.35 Q51.65 305.5 44.25 274.65 37.7 247.25 26.75 230.2 L26.75 230.25 Q16.65 215.1 -4.6 205.0 -7.2 203.7 -8.75 201.3 -10.3 198.85 -9.6 194.75 -8.95 190.65 -4.75 186.55 10.15 174.05 25.15 171.65 40.75 168.95 52.9 170.65 L52.95 170.65 Q65.05 172.3 75.25 176.5 L79.3 178.3 79.05 166.5 Q78.5 136.65 84.5 107.75 L84.55 107.75 Q88.75 87.85 95.5 73.5 L95.5 73.45 Q104.15 54.85 117.45 43.5 127.75 34.6 139.9 32.2 L139.95 32.2 Q148.25 30.4 157.45 32.45 159.1 24.7 161.75 18.6 152.7 12.25 145.4 4.2 137.3 -4.75 134.15 -13.3 130.55 -22.9 131.6 -31.9 132.25 -38.0 135.1 -43.05 138.1 -48.45 142.9 -51.35 148.25 -54.55 155.2 -54.3 161.65 -54.05 167.75 -51.0 173.05 -48.3 178.15 -43.4 182.15 -39.65 186.8 -33.7 194.05 -24.4 201.55 -12.5 L203.1 -10.05 209.1 -10.2 217.4 -9.85 Q232.55 -8.9 246.25 3.9 256.65 13.0 260.75 32.45 269.95 30.4 278.3 32.2 M357.35 258.95 Q358.9 253.6 360.6 248.7 L360.75 248.4 Q362.2 244.15 363.85 240.2 L366.95 233.15 Q369.85 227.0 373.15 221.75 L373.35 221.35 373.55 221.1 373.7 220.85 374.65 219.3 Q376.15 216.95 377.9 214.75 L379.35 212.9 380.15 211.95 398.7 195.55 399.25 195.2 399.2 195.2 399.65 194.9 Q394.65 192.3 389.65 191.35 377.5 189.25 368.05 190.45 364.4 190.95 360.95 191.8 355.45 193.05 350.55 195.05 L350.55 195.0 Q342.65 198.25 335.15 204.0 333.0 205.6 330.5 205.95 L329.5 206.05 Q326.4 206.2 323.75 204.55 321.1 202.85 319.85 200.0 L319.7 199.8 319.25 196.85 319.15 195.15 Q318.75 187.15 319.15 166.1 319.6 143.4 315.9 121.3 L315.9 121.35 315.7 120.2 314.25 112.65 314.1 111.85 314.15 111.9 311.2 99.9 Q309.55 94.25 307.7 89.3 L304.75 82.2 304.6 81.95 304.6 81.9 304.6 81.85 302.3 77.3 Q300.5 73.95 298.5 70.95 L296.1 67.65 294.35 65.45 292.9 63.75 287.75 58.65 Q282.6 54.2 276.8 52.45 L274.4 51.8 274.45 51.8 Q270.85 51.2 267.05 51.7 262.15 52.3 256.8 54.75 253.8 56.1 250.6 55.45 247.4 54.75 245.25 52.35 243.05 49.9 242.7 46.65 240.7 26.9 232.6 18.5 224.55 11.0 215.8 10.1 L215.65 10.05 213.6 10.0 215.3 16.7 217.1 25.75 217.75 30.25 219.55 32.0 Q222.15 34.95 222.9 38.7 223.6 42.4 222.35 46.1 221.1 49.85 218.3 52.3 215.55 54.8 211.7 55.6 L204.3 55.3 Q200.65 54.15 198.0 51.2 195.35 48.25 194.55 44.5 193.75 40.8 195.0 37.0 196.25 33.25 199.05 30.7 L199.1 30.7 198.5 29.05 Q196.15 22.3 192.05 13.65 188.8 15.55 185.65 18.5 177.5 26.9 175.5 46.65 175.15 49.9 173.0 52.35 L170.3 54.5 168.45 55.25 167.7 55.45 167.6 55.45 Q164.4 56.1 161.45 54.75 151.85 50.4 143.8 51.8 L143.85 51.8 Q136.65 53.3 130.5 58.65 120.3 67.5 113.65 81.9 L113.6 81.95 Q107.75 94.5 104.1 111.9 L104.1 111.85 103.5 114.8 103.4 115.5 Q102.4 120.4 101.7 125.4 98.65 145.5 99.05 166.1 99.35 181.1 99.25 189.45 99.1 199.35 98.35 200.0 L97.55 201.5 95.25 204.0 94.45 204.55 92.85 205.4 90.7 205.95 88.7 206.05 Q85.6 205.9 83.1 204.0 L81.95 203.15 Q79.55 201.35 77.15 199.9 L76.45 199.45 71.4 196.7 70.9 196.45 67.7 195.0 67.7 195.05 Q64.8 193.85 61.7 192.95 56.85 191.5 51.6 190.7 L50.2 190.45 50.25 190.45 Q40.75 189.25 28.55 191.35 24.6 192.1 20.65 193.9 L18.7 194.8 18.55 194.9 18.45 194.95 18.4 194.95 23.6 198.55 Q36.1 207.75 43.5 219.3 L45.4 222.3 49.35 229.35 51.7 234.2 52.5 236.0 54.2 239.9 55.15 242.35 60.0 256.25 60.15 256.75 60.15 256.7 60.2 256.95 60.4 257.6 60.55 258.2 60.65 258.5 61.4 261.05 61.9 262.9 63.7 270.0 63.7 270.05 Q70.75 299.5 77.75 318.45 L77.75 318.4 Q84.8 337.35 94.9 355.2 L95.1 355.6 Q98.45 361.45 102.5 367.15 L103.7 368.8 103.95 369.1 110.65 377.6 114.55 382.05 120.85 388.65 121.25 389.05 121.95 389.75 Q129.0 396.6 137.05 402.2 147.2 409.25 158.95 414.25 L159.0 414.25 Q180.25 423.1 203.15 424.8 L203.2 424.8 205.15 424.9 206.05 424.95 206.55 424.9 207.3 424.95 207.5 424.95 207.4 425.0 207.5 425.0 210.7 425.0 210.6 424.95 210.85 424.95 211.6 424.9 212.05 424.95 212.95 424.9 214.95 424.8 216.7 424.7 217.05 424.65 216.9 424.65 Q238.75 422.75 259.1 414.25 L259.15 414.25 Q280.6 405.15 296.85 389.05 313.15 372.9 323.2 355.2 333.3 337.35 340.4 318.4 L340.4 318.45 Q344.6 307.05 348.85 291.8 L348.85 291.75 348.85 291.8 348.85 291.75 Q351.65 281.7 354.45 270.0 355.8 264.25 357.35 258.95 M210.6 424.95 L210.15 424.95 210.35 424.95 210.6 424.95" fill="#000000" fill-rule="evenodd" stroke="none"/>
      <path d="M357.35 258.95 Q355.8 264.25 354.45 270.0 351.65 281.7 348.85 291.75 L348.85 291.8 348.2 292.95 348.65 292.15 Q324.6 346.8 303.95 369.85 283.3 392.9 256.6 406.5 232.75 418.6 203.2 424.8 L203.15 424.8 Q180.25 423.1 159.0 414.25 L158.95 414.25 Q147.2 409.25 137.05 402.2 180.2 372.85 230.8 340.05 276.25 310.55 357.35 258.95 M95.1 355.6 L94.9 355.2 Q84.8 337.35 77.75 318.4 L77.75 318.45 Q70.75 299.5 63.7 270.05 L63.85 270.5 Q107.25 238.6 152.3 208.6 181.95 188.9 241.65 150.05 279.55 124.6 308.2 102.25 L313.25 114.95 315.9 121.3 Q319.6 143.4 319.15 166.1 318.75 187.15 319.15 195.15 L156.15 311.6 95.1 355.6 M61.7 192.95 Q64.8 193.85 67.7 195.05 L67.7 195.0 70.9 196.45 71.4 196.7 76.45 199.45 77.15 199.9 Q79.55 201.35 81.95 203.15 65.15 216.4 53.05 226.3 L49.65 219.15 Q47.65 215.25 45.9 212.8 L41.2 207.15 36.15 202.2 Q32.5 199.1 28.45 196.85 40.75 192.9 53.75 192.6 L61.7 192.95 M99.25 189.45 Q99.35 181.1 99.05 166.1 98.65 145.5 101.7 125.4 106.6 109.75 113.3 94.7 117.15 86.0 120.65 80.2 125.2 72.6 130.5 67.4 136.6 61.4 143.95 58.35 151.9 55.0 159.65 55.95 L165.6 56.4 Q168.7 56.2 170.3 54.5 L173.0 52.35 Q175.15 49.9 175.5 46.65 177.5 26.9 185.65 18.5 188.8 15.55 192.05 13.65 196.15 22.3 198.5 29.05 L199.1 30.7 199.05 30.7 Q196.25 33.25 195.0 37.0 193.75 40.8 194.55 44.5 195.35 48.25 198.0 51.2 200.65 54.15 204.3 55.3 L211.7 55.6 Q215.55 54.8 218.3 52.3 221.1 49.85 222.35 46.1 223.6 42.4 222.9 38.7 222.15 34.95 219.55 32.0 L217.75 30.25 217.1 25.75 215.3 16.7 213.6 10.0 215.65 10.05 215.8 10.1 Q224.55 11.0 232.6 18.5 240.7 26.9 242.7 46.65 243.05 49.9 245.25 52.35 247.4 54.75 250.6 55.45 253.8 56.1 256.8 54.75 262.15 52.3 267.05 51.7 L268.95 52.25 Q270.35 52.55 271.95 53.35 L274.2 54.4 Q224.8 92.0 139.8 157.8 L99.25 189.45" fill="#645379" fill-rule="evenodd" stroke="none"/>
      <path d="M319.15 195.15 L319.25 196.85 319.7 199.8 319.85 200.0 Q321.1 202.85 323.75 204.55 326.4 206.2 329.5 206.05 L330.5 205.95 Q333.0 205.6 335.15 204.0 342.65 198.25 350.55 195.0 L350.55 195.05 Q355.45 193.05 360.95 191.8 364.4 190.95 368.05 190.45 377.5 189.25 389.65 191.35 394.65 192.3 399.65 194.9 L399.2 195.2 399.25 195.2 398.7 195.55 380.15 211.95 379.35 212.9 377.9 214.75 Q376.15 216.95 374.65 219.3 L373.7 220.85 373.55 221.1 373.35 221.35 373.15 221.75 Q369.85 227.0 366.95 233.15 L363.85 240.2 Q362.2 244.15 360.75 248.4 L360.6 248.7 Q358.9 253.6 357.35 258.95 276.25 310.55 230.8 340.05 180.2 372.85 137.05 402.2 129.0 396.6 121.95 389.75 L121.25 389.05 120.85 388.65 114.55 382.05 110.65 377.6 103.95 369.1 103.7 368.8 102.5 367.15 Q98.45 361.45 95.1 355.6 L156.15 311.6 319.15 195.15 M348.85 291.8 L348.85 291.75 348.85 291.8 Q344.6 307.05 340.4 318.45 L340.4 318.4 Q333.3 337.35 323.2 355.2 313.15 372.9 296.85 389.05 280.6 405.15 259.15 414.25 L259.1 414.25 Q238.75 422.75 216.9 424.65 L217.05 424.65 216.7 424.7 214.95 424.8 212.95 424.9 212.05 424.95 211.6 424.9 210.85 424.95 210.6 424.95 210.7 425.0 207.5 425.0 207.4 425.0 207.5 424.95 207.3 424.95 206.55 424.9 206.05 424.95 205.15 424.9 203.2 424.8 Q232.75 418.6 256.6 406.5 283.3 392.9 303.95 369.85 324.6 346.8 348.65 292.15 L348.2 292.95 348.85 291.8 M63.7 270.05 L63.7 270.0 61.9 262.9 61.4 261.05 60.65 258.5 60.55 258.2 60.4 257.6 60.2 256.95 60.15 256.7 60.15 256.75 60.0 256.25 55.15 242.35 54.2 239.9 52.5 236.0 51.7 234.2 49.35 229.35 45.4 222.3 43.5 219.3 Q36.1 207.75 23.6 198.55 L18.4 194.95 18.45 194.95 18.55 194.9 18.7 194.8 20.65 193.9 Q24.6 192.1 28.55 191.35 40.75 189.25 50.25 190.45 L50.2 190.45 51.6 190.7 Q56.85 191.5 61.7 192.95 L53.75 192.6 Q40.75 192.9 28.45 196.85 32.5 199.1 36.15 202.2 L41.2 207.15 45.9 212.8 Q47.65 215.25 49.65 219.15 L53.05 226.3 Q65.15 216.4 81.95 203.15 L83.1 204.0 Q85.6 205.9 88.7 206.05 L90.7 205.95 92.85 205.4 94.45 204.55 95.25 204.0 97.55 201.5 98.35 200.0 Q99.1 199.35 99.25 189.45 L139.8 157.8 Q224.8 92.0 274.2 54.4 L271.95 53.35 Q270.35 52.55 268.95 52.25 L267.05 51.7 Q270.85 51.2 274.45 51.8 L274.4 51.8 276.8 52.45 Q282.6 54.2 287.75 58.65 L292.9 63.75 294.35 65.45 296.1 67.65 298.5 70.95 Q300.5 73.95 302.3 77.3 L304.6 81.85 304.6 81.9 304.6 81.95 304.75 82.2 307.7 89.3 Q309.55 94.25 311.2 99.9 L314.15 111.9 314.1 111.85 314.25 112.65 315.7 120.2 315.9 121.35 315.9 121.3 313.25 114.95 308.2 102.25 Q279.55 124.6 241.65 150.05 181.95 188.9 152.3 208.6 107.25 238.6 63.85 270.5 L63.7 270.05 M101.7 125.4 Q102.4 120.4 103.4 115.5 L103.5 114.8 104.1 111.85 104.1 111.9 Q107.75 94.5 113.6 81.95 L113.65 81.9 Q120.3 67.5 130.5 58.65 136.65 53.3 143.85 51.8 L143.8 51.8 Q151.85 50.4 161.45 54.75 164.4 56.1 167.6 55.45 L167.7 55.45 168.45 55.25 170.3 54.5 Q168.7 56.2 165.6 56.4 L159.65 55.95 Q151.9 55.0 143.95 58.35 136.6 61.4 130.5 67.4 125.2 72.6 120.65 80.2 117.15 86.0 113.3 94.7 106.6 109.75 101.7 125.4 M210.6 424.95 L210.35 424.95 210.15 424.95 210.6 424.95" fill="#7f6b98" fill-rule="evenodd" stroke="none"/>
    </g>
    <g id="sprite1">
      <use ffdec:characterId="720" height="125.5" transform="matrix(1.0, 0.0, 0.0, 1.0, 0.0, 0.0)" width="177.7" xlink:href="#shape1"/>
    </g>
    <g id="shape1">
      <path d="M-82.1 -7.45 Q-81.15 -9.85 -79.0 -10.0 L-75.8 -9.95 Q-74.6 -10.2 -72.8 -12.0 -70.2 -14.85 -66.55 -20.45 -55.05 -37.35 -44.35 -47.55 -30.65 -60.8 -15.9 -65.8 -6.95 -68.95 2.75 -69.2 L4.45 -69.2 6.2 -69.2 7.9 -69.2 9.6 -69.2 Q19.3 -68.95 28.2 -65.8 43.0 -60.8 56.65 -47.55 67.4 -37.35 78.9 -20.45 82.55 -14.85 85.1 -12.0 86.95 -10.2 88.15 -9.95 L91.3 -10.0 Q93.45 -9.85 94.4 -7.45 L94.8 -6.45 94.85 -6.05 95.0 -5.25 95.0 -4.6 95.0 -4.35 95.0 -4.15 94.85 -3.25 94.55 -2.2 Q93.75 0.45 91.55 2.4 89.3 4.0 87.1 4.25 L86.6 4.25 86.3 4.25 83.7 3.65 82.1 2.85 81.2 4.0 79.8 6.1 78.9 7.45 Q67.4 24.3 56.65 34.5 43.0 47.75 28.2 52.8 19.3 55.9 9.6 56.15 L7.9 56.25 6.2 56.15 6.15 56.15 2.75 56.15 Q-6.95 55.9 -15.9 52.8 -30.65 47.75 -44.35 34.5 -55.05 24.3 -66.55 7.45 L-66.8 7.2 -66.95 7.0 -67.3 6.35 -68.85 4.05 -69.75 2.85 -71.3 3.65 -73.9 4.25 -74.05 4.25 -74.35 4.25 -74.75 4.25 Q-77.0 4.0 -79.2 2.4 -81.4 0.45 -82.25 -2.2 L-82.55 -3.25 -82.7 -4.15 -82.7 -4.35 -82.7 -4.5 -82.7 -5.3 -82.4 -6.7 -82.25 -6.95 -82.1 -7.45 M-38.3 -9.1 Q-38.8 3.9 -32.0 14.95 -25.1 25.95 -13.2 31.3 -6.1 34.6 1.65 35.05 L4.8 35.1 5.35 35.1 5.4 35.1 5.8 35.15 8.0 35.2 10.0 35.15 Q18.2 34.8 25.6 31.4 37.5 26.05 44.35 15.0 51.25 4.0 50.75 -9.05 50.4 -18.75 45.7 -27.65 40.9 -36.5 32.95 -42.2 23.85 -48.8 12.1 -49.95 L9.1 -50.15 7.65 -50.2 7.0 -50.2 5.7 -50.25 5.45 -50.25 3.2 -50.2 0.3 -50.0 Q-11.45 -48.85 -20.55 -42.3 -28.5 -36.6 -33.25 -27.7 -37.95 -18.8 -38.3 -9.1 M-7.65 5.45 Q-4.45 8.75 1.0 10.0 5.55 10.95 10.25 9.9 15.0 8.9 18.7 6.05 21.25 4.15 22.65 1.75 24.2 -1.05 23.85 -3.7 22.95 -9.2 15.35 -11.9 11.2 -13.3 8.55 -12.05 6.95 -11.25 6.4 -9.45 5.85 -7.55 7.1 -6.3 7.6 -5.75 9.0 -5.25 L11.05 -4.15 Q12.1 -3.35 12.15 -1.8 12.3 -0.4 11.45 0.85 9.9 3.15 6.65 3.15 2.4 3.3 -0.7 -0.3 -3.25 -3.45 -3.5 -8.05 -3.65 -11.8 -2.1 -14.85 -0.65 -17.75 2.2 -19.8 4.9 -21.7 8.3 -22.35 14.75 -23.45 21.3 -20.2 26.8 -17.5 30.15 -12.65 33.7 -7.45 33.45 -1.85 33.25 2.65 30.6 6.95 28.05 10.9 24.05 13.85 19.5 17.15 14.0 18.7 8.55 20.2 2.95 19.8 -6.05 19.1 -12.45 13.75 -16.65 10.25 -19.0 4.8 -21.2 -0.4 -21.35 -6.15 -21.65 -16.85 -14.75 -27.2 -8.55 -36.45 -0.05 -39.55 4.65 -41.2 9.65 -40.45 14.75 -39.75 18.2 -36.5 19.75 -35.2 20.05 -33.8 20.55 -31.85 19.0 -30.9 L16.95 -30.75 14.75 -31.6 Q9.7 -33.9 3.8 -31.5 -1.05 -29.6 -5.25 -24.85 -11.2 -18.1 -12.15 -11.0 -12.95 -6.25 -11.55 -1.35 -10.4 2.65 -7.65 5.45" fill="#000000" fill-rule="evenodd" stroke="none"/>
      <path d="M-38.3 -9.1 Q-37.95 -18.8 -33.25 -27.7 -28.5 -36.6 -20.55 -42.3 -11.45 -48.85 0.3 -50.0 L3.2 -50.2 5.45 -50.25 5.7 -50.25 7.0 -50.2 7.65 -50.2 9.1 -50.15 12.1 -49.95 Q23.85 -48.8 32.95 -42.2 40.9 -36.5 45.7 -27.65 50.4 -18.75 50.75 -9.05 51.25 4.0 44.35 15.0 37.5 26.05 25.6 31.4 18.2 34.8 10.0 35.15 L8.0 35.2 5.8 35.15 5.4 35.1 5.35 35.1 4.8 35.1 1.65 35.05 Q-6.1 34.6 -13.2 31.3 -25.1 25.95 -32.0 14.95 -38.8 3.9 -38.3 -9.1 M-7.65 5.45 Q-10.4 2.65 -11.55 -1.35 -12.95 -6.25 -12.15 -11.0 -11.2 -18.1 -5.25 -24.85 -1.05 -29.6 3.8 -31.5 9.7 -33.9 14.75 -31.6 L16.95 -30.75 19.0 -30.9 Q20.55 -31.85 20.05 -33.8 19.75 -35.2 18.2 -36.5 14.75 -39.75 9.65 -40.45 4.65 -41.2 -0.05 -39.55 -8.55 -36.45 -14.75 -27.2 -21.65 -16.85 -21.35 -6.15 -21.2 -0.4 -19.0 4.8 -16.65 10.25 -12.45 13.75 -6.05 19.1 2.95 19.8 8.55 20.2 14.0 18.7 19.5 17.15 24.05 13.85 28.05 10.9 30.6 6.95 33.25 2.65 33.45 -1.85 33.7 -7.45 30.15 -12.65 26.8 -17.5 21.3 -20.2 14.75 -23.45 8.3 -22.35 4.9 -21.7 2.2 -19.8 -0.65 -17.75 -2.1 -14.85 -3.65 -11.8 -3.5 -8.05 -3.25 -3.45 -0.7 -0.3 2.4 3.3 6.65 3.15 9.9 3.15 11.45 0.85 12.3 -0.4 12.15 -1.8 12.1 -3.35 11.05 -4.15 L9.0 -5.25 Q7.6 -5.75 7.1 -6.3 5.85 -7.55 6.4 -9.45 6.95 -11.25 8.55 -12.05 11.2 -13.3 15.35 -11.9 22.95 -9.2 23.85 -3.7 24.2 -1.05 22.65 1.75 21.25 4.15 18.7 6.05 15.0 8.9 10.25 9.9 5.55 10.95 1.0 10.0 -4.45 8.75 -7.65 5.45" fill="#ffffff" fill-rule="evenodd" stroke="none"/>
    </g>
  </defs>
</svg>
