<?xml version="1.0" encoding="UTF-8" standalone="no"?>
<svg xmlns:ffdec="https://www.free-decompiler.com/flash" xmlns:xlink="http://www.w3.org/1999/xlink" ffdec:objectType="frame" height="209.8px" width="437.9px" xmlns="http://www.w3.org/2000/svg">
  <g transform="matrix(1.0, 0.0, 0.0, 1.0, 144.6, -39.1)">
    <use ffdec:characterId="689" height="209.8" transform="matrix(1.0, 0.0, 0.0, 1.0, -144.6, 39.1)" width="437.9" xlink:href="#sprite0"/>
    <use ffdec:characterId="691" height="158.9" transform="matrix(1.0, 0.0, 0.0, 1.0, 101.75, 147.8)" width="138.25" xlink:href="#sprite1"/>
  </g>
  <defs>
    <g id="sprite0">
      <use ffdec:characterId="688" height="209.8" transform="matrix(1.0, 0.0, 0.0, 1.0, 0.0, 0.0)" width="437.9" xlink:href="#shape0"/>
    </g>
    <g id="shape0">
      <path d="M414.3 76.6 Q408.7 58.2 396.7 39.35 L392.85 33.6 392.5 33.1 392.3 32.8 392.25 32.75 392.05 32.4 391.05 31.0 385.85 24.0 384.8 22.65 Q382.25 20.3 380.65 19.4 379.0 18.45 373.8 17.8 L354.2 17.8 354.0 17.8 227.9 17.8 116.6 17.8 Q112.4 19.75 109.1 24.35 104.0 31.0 99.7 37.6 89.3 53.45 83.5 68.95 L84.1 69.45 84.75 70.0 87.75 72.65 Q91.4 76.1 94.55 80.05 L95.8 81.65 96.8 83.0 96.95 83.2 97.1 83.45 99.95 87.95 Q102.5 88.25 104.85 89.35 L105.05 89.45 108.7 92.05 Q110.15 93.4 111.3 95.15 L112.6 97.55 Q113.75 100.15 113.95 103.05 L113.95 104.9 114.0 105.6 113.95 106.75 Q113.65 111.0 111.3 114.65 108.8 118.35 105.05 120.35 101.25 122.2 96.9 122.0 L93.75 121.6 Q91.15 121.0 88.9 119.6 L88.85 119.55 Q85.3 117.3 83.2 113.3 L82.8 112.5 81.4 107.3 81.3 106.85 81.25 106.6 81.25 106.5 81.25 106.2 81.25 105.65 81.25 105.25 81.3 104.9 81.25 104.55 81.6 101.0 81.95 99.5 Q82.4 98.0 83.2 96.5 L84.0 95.15 82.75 93.55 81.45 92.05 80.7 91.2 80.55 91.0 78.0 88.35 Q77.5 91.0 77.15 93.7 76.7 96.6 76.5 99.55 L76.2 104.55 76.15 105.0 Q76.25 108.65 76.65 112.35 L77.35 117.65 77.4 118.0 Q78.2 123.25 79.6 128.55 L80.6 132.3 81.05 133.75 Q82.9 139.9 85.55 146.1 L87.55 150.55 Q96.35 169.6 112.0 189.15 114.8 191.1 116.05 191.45 L118.4 191.9 119.95 192.05 120.55 192.0 126.55 192.15 130.45 192.2 215.6 192.2 215.85 192.0 364.1 192.0 377.1 192.0 Q380.0 191.45 381.7 190.2 L384.1 188.1 Q417.85 145.35 419.05 105.0 418.65 90.95 414.3 76.6 M437.85 104.75 Q439.45 156.9 392.9 205.6 389.8 209.0 383.05 209.8 L115.9 209.8 Q108.0 210.0 102.5 205.8 62.25 163.75 57.85 119.15 L45.45 118.3 Q30.3 116.0 20.65 110.9 14.65 107.75 10.1 103.3 5.2 98.5 2.6 92.8 -0.15 86.75 0.0 80.1 0.15 73.25 3.45 67.8 7.3 61.45 15.1 57.65 21.8 54.4 30.5 53.4 40.05 52.35 49.6 53.85 58.0 55.15 65.85 58.4 76.35 32.1 99.95 6.75 100.35 6.1 102.9 3.5 105.4 0.9 111.85 0.0 L383.5 0.0 Q387.7 0.85 390.7 2.95 393.7 5.0 394.75 6.2 439.3 53.8 437.85 104.75 M43.95 71.4 Q34.6 70.35 25.95 72.65 17.7 74.9 16.7 80.05 16.05 83.5 18.95 87.6 25.05 96.1 36.4 98.6 46.45 100.85 57.3 101.95 57.25 88.8 60.3 75.9 52.45 72.4 43.95 71.4" fill="#000000" fill-rule="evenodd" stroke="none"/>
      <path d="M354.0 17.8 L354.2 17.8 353.9 18.0 353.85 18.0 354.0 17.8" fill="#c6c6c6" fill-rule="evenodd" stroke="none"/>
      <path d="M354.2 17.8 L373.8 17.8 Q379.0 18.45 380.65 19.4 382.25 20.3 384.8 22.65 L385.85 24.0 391.05 31.0 392.05 32.4 392.25 32.75 392.3 32.8 392.5 33.1 392.85 33.6 396.7 39.35 Q408.7 58.2 414.3 76.6 415.0 96.45 413.6 111.95 412.2 127.4 404.45 145.0 396.65 162.6 388.4 174.15 382.3 182.6 376.8 188.8 L364.1 192.0 215.85 192.0 Q246.9 165.65 288.45 132.65 334.15 96.4 349.5 83.35 376.45 60.45 396.7 39.55 L392.85 33.8 392.5 33.3 392.3 33.0 392.25 32.95 392.05 32.6 391.05 31.2 385.85 24.2 384.8 22.85 Q382.25 20.5 380.65 19.6 379.0 18.65 373.8 18.0 L354.2 18.0 353.8 18.3 354.0 18.0 353.9 18.0 354.2 17.8 M130.45 192.2 L126.55 192.15 126.55 192.1 Q118.35 190.35 115.3 186.3 L115.25 186.25 Q102.05 168.2 94.2 151.3 92.0 146.5 90.15 141.75 116.85 116.4 158.0 80.1 200.1 42.95 224.95 20.15 L227.9 17.8 354.0 17.8 353.85 18.0 329.3 18.0 Q301.3 41.15 269.75 68.55 241.55 93.1 180.7 147.5 L130.45 192.2 M94.55 80.05 Q91.4 76.1 87.75 72.65 90.95 62.95 95.7 53.55 104.35 36.35 117.2 21.9 L121.0 21.6 Q125.1 21.4 132.3 21.55 L157.1 21.95 172.75 21.3 Q139.2 45.75 106.55 70.75 L94.55 80.05" fill="#857348" fill-rule="evenodd" stroke="none"/>
      <path d="M414.3 76.6 Q418.65 90.95 419.05 105.0 417.85 145.35 384.1 188.1 L381.7 190.2 Q380.0 191.45 377.1 192.0 L364.1 192.0 376.8 188.8 Q382.3 182.6 388.4 174.15 396.65 162.6 404.45 145.0 412.2 127.4 413.6 111.95 415.0 96.45 414.3 76.6 M215.85 192.0 L215.6 192.2 130.45 192.2 180.7 147.5 Q241.55 93.1 269.75 68.55 301.3 41.15 329.3 18.0 L353.85 18.0 353.9 18.0 354.0 18.0 353.8 18.3 354.2 18.0 373.8 18.0 Q379.0 18.65 380.65 19.6 382.25 20.5 384.8 22.85 L385.85 24.2 391.05 31.2 392.05 32.6 392.25 32.95 392.3 33.0 392.5 33.3 392.85 33.8 396.7 39.55 Q376.45 60.45 349.5 83.35 334.15 96.4 288.45 132.65 246.9 165.65 215.85 192.0 M126.55 192.15 L120.55 192.0 119.95 192.05 118.4 191.9 116.05 191.45 Q114.8 191.1 112.0 189.15 96.35 169.6 87.55 150.55 L85.55 146.1 Q82.9 139.9 81.05 133.75 L80.6 132.3 79.6 128.55 Q78.2 123.25 77.4 118.0 L77.35 117.65 76.65 112.35 Q76.25 108.65 76.15 105.0 L76.2 104.55 76.5 99.55 Q76.7 96.6 77.15 93.7 77.5 91.0 78.0 88.35 L80.55 91.0 80.7 91.2 81.45 92.05 82.75 93.55 84.0 95.15 83.2 96.5 Q82.4 98.0 81.95 99.5 L81.6 101.0 81.25 104.55 81.3 104.9 81.25 105.25 81.25 105.65 81.25 106.2 81.25 106.5 81.25 106.6 81.3 106.85 81.4 107.3 82.8 112.5 83.2 113.3 Q85.3 117.3 88.85 119.55 L88.9 119.6 Q91.15 121.0 93.75 121.6 L96.9 122.0 Q101.25 122.2 105.05 120.35 108.8 118.35 111.3 114.65 113.65 111.0 113.95 106.75 L114.0 105.6 113.95 104.9 113.95 103.05 Q113.75 100.15 112.6 97.55 L111.3 95.15 Q110.15 93.4 108.7 92.05 L105.05 89.45 104.85 89.35 Q102.5 88.25 99.95 87.95 L97.1 83.45 96.95 83.2 96.8 83.0 95.8 81.65 94.55 80.05 106.55 70.75 Q139.2 45.75 172.75 21.3 L157.1 21.95 132.3 21.55 Q125.1 21.4 121.0 21.6 L117.2 21.9 Q104.35 36.35 95.7 53.55 90.95 62.95 87.75 72.65 L84.75 70.0 84.1 69.45 83.5 68.95 Q89.3 53.45 99.7 37.6 104.0 31.0 109.1 24.35 112.4 19.75 116.6 17.8 L227.9 17.8 224.95 20.15 Q200.1 42.95 158.0 80.1 116.85 116.4 90.15 141.75 92.0 146.5 94.2 151.3 102.05 168.2 115.25 186.25 L115.3 186.3 Q118.35 190.35 126.55 192.1 L126.55 192.15" fill="#b19c68" fill-rule="evenodd" stroke="none"/>
    </g>
    <g id="sprite1">
      <use ffdec:characterId="690" height="158.9" transform="matrix(1.0, 0.0, 0.0, 1.0, 0.0, 0.0)" width="138.25" xlink:href="#shape1"/>
    </g>
    <g id="shape1">
      <path d="M-4.0 -76.65 L-2.35 -79.0 -0.85 -81.0 -0.4 -81.65 0.2 -82.2 Q1.1 -82.95 1.9 -83.05 L1.95 -83.1 4.65 -83.05 4.7 -82.95 6.15 -82.25 6.65 -81.8 8.95 -79.0 10.55 -76.65 Q15.85 -68.8 27.85 -62.3 38.4 -56.65 46.25 -55.25 L51.55 -54.45 56.65 -54.25 58.25 -54.3 60.95 -54.25 Q61.6 -54.2 62.7 -53.2 63.75 -52.3 65.0 -50.15 L66.55 -47.3 67.15 -46.1 Q72.7 -33.7 72.4 -16.15 72.1 1.2 66.35 17.9 60.6 34.6 50.15 48.45 37.9 64.95 25.45 70.5 13.85 75.6 3.15 75.65 -7.4 75.5 -18.85 70.5 -31.3 64.95 -43.6 48.45 -54.05 34.6 -59.75 17.9 -65.5 1.2 -65.85 -16.15 -66.1 -33.7 -60.55 -46.1 L-59.95 -47.3 -58.4 -50.15 Q-57.15 -52.3 -56.1 -53.2 -55.0 -54.2 -54.35 -54.25 L-51.7 -54.3 -50.05 -54.25 -44.95 -54.45 -39.65 -55.25 Q-31.85 -56.65 -21.25 -62.3 -9.25 -68.8 -4.0 -76.65 M2.85 -59.6 Q16.9 -46.9 28.75 -41.4 36.0 -38.25 44.15 -37.3 50.25 -36.65 51.45 -34.95 53.45 -32.55 53.45 -22.3 53.45 15.7 34.95 38.2 27.6 47.05 18.45 51.95 10.3 56.25 3.0 56.25 L2.6 56.25 Q-4.7 56.25 -12.85 51.95 -22.0 47.05 -29.35 38.2 -47.85 15.7 -47.85 -22.3 -47.85 -32.55 -45.95 -34.95 -44.65 -36.65 -38.55 -37.3 -30.4 -38.25 -23.15 -41.4 -11.3 -46.9 2.75 -59.6 L2.8 -59.55 2.85 -59.6 M-15.15 -54.45 Q-33.3 -44.2 -50.45 -43.8 L-51.2 -42.3 Q-56.2 -32.2 -56.05 -16.8 -55.8 -0.95 -50.65 14.25 -45.5 29.5 -36.0 42.25 -25.95 55.75 -16.45 60.65 -7.0 65.55 -1.5 66.1 L3.25 66.55 3.3 66.55 8.1 66.1 Q13.55 65.55 23.05 60.65 32.55 55.75 42.6 42.25 52.05 29.5 57.2 14.25 62.35 -0.95 62.65 -16.8 62.75 -32.2 57.8 -42.3 L57.0 -43.8 Q39.85 -44.2 21.7 -54.45 10.1 -61.1 3.05 -69.35 -4.0 -60.85 -15.15 -54.45" fill="#000000" fill-rule="evenodd" stroke="none"/>
      <path d="M-15.15 -54.45 Q-4.0 -60.85 3.05 -69.35 10.1 -61.1 21.7 -54.45 39.85 -44.2 57.0 -43.8 L57.8 -42.3 Q62.75 -32.2 62.65 -16.8 62.35 -0.95 57.2 14.25 52.05 29.5 42.6 42.25 32.55 55.75 23.05 60.65 13.55 65.55 8.1 66.1 L3.3 66.55 3.25 66.55 -1.5 66.1 Q-7.0 65.55 -16.45 60.65 -25.95 55.75 -36.0 42.25 -45.5 29.5 -50.65 14.25 -55.8 -0.95 -56.05 -16.8 -56.2 -32.2 -51.2 -42.3 L-50.45 -43.8 Q-33.3 -44.2 -15.15 -54.45 M2.85 -59.6 L2.8 -59.55 2.75 -59.6 Q-11.3 -46.9 -23.15 -41.4 -30.4 -38.25 -38.55 -37.3 -44.65 -36.65 -45.95 -34.95 -47.85 -32.55 -47.85 -22.3 -47.85 15.7 -29.35 38.2 -22.0 47.05 -12.85 51.95 -4.7 56.25 2.6 56.25 L3.0 56.25 Q10.3 56.25 18.45 51.95 27.6 47.05 34.95 38.2 53.45 15.7 53.45 -22.3 53.45 -32.55 51.45 -34.95 50.25 -36.65 44.15 -37.3 36.0 -38.25 28.75 -41.4 16.9 -46.9 2.85 -59.6" fill="#ffffff" fill-rule="evenodd" stroke="none"/>
    </g>
  </defs>
</svg>
