<?xml version="1.0" encoding="UTF-8" standalone="no"?>
<svg xmlns:ffdec="https://www.free-decompiler.com/flash" xmlns:xlink="http://www.w3.org/1999/xlink" ffdec:objectType="frame" height="268.1px" width="350.9px" xmlns="http://www.w3.org/2000/svg">
  <g transform="matrix(1.0, 0.0, 0.0, 1.0, 52.3, 122.0)">
    <use ffdec:characterId="699" height="268.1" transform="matrix(1.0, 0.0, 0.0, 1.0, 67.05, -45.95)" width="350.9" xlink:href="#sprite0"/>
    <use ffdec:characterId="701" height="143.55" transform="matrix(0.8172, 0.0, 0.0, 0.8172, 74.45, -3.05)" width="143.5" xlink:href="#sprite1"/>
  </g>
  <defs>
    <g id="sprite0">
      <use ffdec:characterId="698" height="268.1" transform="matrix(1.0, 0.0, 0.0, 1.0, 0.0, 0.0)" width="350.9" xlink:href="#shape0"/>
    </g>
    <g id="shape0">
      <path d="M3.45 -8.65 L14.0 -8.65 14.8 -10.7 Q12.05 -12.4 9.3 -15.35 1.65 -23.35 -3.1 -35.05 -8.4 -47.95 -6.5 -58.2 -5.3 -64.25 -1.6 -68.9 2.4 -73.9 7.95 -75.4 14.15 -77.05 21.05 -74.4 26.7 -72.15 32.2 -67.15 42.6 -58.0 52.0 -40.9 L54.85 -35.45 Q63.8 -35.45 74.05 -32.25 81.0 -29.6 86.75 -24.7 93.55 -18.9 97.2 -11.2 L98.2 -8.65 108.75 -8.65 109.2 -9.55 Q116.2 -22.55 127.5 -31.6 139.4 -41.15 153.3 -43.9 158.95 -45.1 164.85 -45.05 L171.95 -44.65 Q181.15 -43.6 190.2 -40.15 199.5 -36.6 206.35 -31.2 216.45 -23.1 222.0 -10.1 226.9 1.4 227.4 14.3 L227.35 14.3 227.4 15.9 227.4 18.0 Q227.3 27.4 225.15 36.15 222.6 46.45 217.35 54.6 211.75 63.2 203.45 68.75 L199.95 70.8 195.6 72.85 Q199.95 73.95 204.1 76.2 L207.6 78.25 Q215.9 83.8 221.5 92.4 226.75 100.55 229.3 110.85 231.45 119.6 231.55 129.05 L231.55 131.15 231.5 132.7 231.55 132.7 Q231.05 145.6 226.15 157.15 220.6 170.1 210.5 178.2 203.65 183.6 194.35 187.15 185.3 190.6 176.1 191.65 L169.0 192.05 Q163.1 192.05 157.45 190.95 143.55 188.15 131.65 178.65 120.35 169.55 113.35 156.55 L112.9 155.7 -0.7 155.7 -1.15 156.55 Q-8.15 169.55 -19.45 178.65 -31.35 188.15 -45.25 190.95 -50.9 192.05 -56.8 192.05 L-63.9 191.65 Q-73.1 190.6 -82.15 187.15 -91.45 183.6 -98.3 178.2 -108.4 170.1 -113.95 157.15 -118.85 145.6 -119.35 132.7 L-119.3 132.7 -119.35 131.15 -119.35 129.05 Q-119.25 119.6 -117.1 110.85 -114.55 100.55 -109.3 92.4 -103.7 83.8 -95.4 78.25 L-91.9 76.2 Q-87.75 73.95 -83.4 72.85 L-87.75 70.8 -91.25 68.75 Q-99.55 63.2 -105.15 54.6 -110.4 46.45 -112.95 36.15 -115.1 27.4 -115.2 18.0 L-115.2 15.9 -115.15 14.3 -115.2 14.3 Q-114.7 1.4 -109.8 -10.1 -104.25 -23.1 -94.15 -31.2 -87.3 -36.6 -78.0 -40.15 -68.95 -43.6 -59.75 -44.65 L-52.65 -45.05 Q-46.75 -45.1 -41.1 -43.9 -27.2 -41.15 -15.3 -31.6 -4.0 -22.55 3.0 -9.55 L3.45 -8.65 M25.45 -24.7 Q31.2 -29.6 38.15 -32.25 L40.45 -33.1 Q35.5 -42.6 28.7 -50.75 22.55 -58.1 17.0 -60.65 14.25 -61.95 12.15 -61.5 10.25 -61.1 8.9 -59.25 7.7 -57.65 7.3 -55.4 6.6 -51.6 8.3 -45.55 11.35 -34.25 17.6 -26.6 L22.05 -21.65 22.15 -21.55 25.45 -24.7 M48.8 6.7 L47.6 4.8 Q46.1 1.85 46.5 -1.2 46.9 -3.75 48.5 -5.9 L49.85 -7.35 Q48.7 -12.6 47.0 -17.7 42.0 -16.45 38.1 -13.65 35.95 -12.1 33.65 -9.65 31.55 -6.25 31.2 -1.25 30.8 3.7 28.2 6.25 26.85 7.5 25.3 8.15 L21.9 8.8 0.25 8.8 -2.3 8.45 Q-4.45 8.05 -6.4 6.05 L-9.35 1.95 Q-23.85 -20.7 -42.3 -25.2 L-47.05 -26.05 -51.7 -26.3 -55.65 -26.2 -58.6 -25.9 -58.85 -25.9 -65.45 -24.6 Q-70.55 -23.3 -75.1 -21.0 L-76.7 -20.1 -78.9 -18.8 -81.45 -16.95 Q-85.15 -14.05 -87.9 -10.4 -92.15 -4.7 -94.05 2.8 L-94.1 3.05 -95.55 13.45 -95.55 13.65 -95.6 14.3 -95.55 14.3 -95.55 18.0 -95.45 20.9 -95.3 22.65 -93.8 32.7 -93.65 33.35 -93.65 33.3 Q-92.5 37.8 -90.65 41.4 -87.45 47.65 -81.3 53.3 -77.2 57.05 -70.85 61.25 L-69.05 62.45 -66.5 64.35 Q-57.0 72.0 -66.5 78.45 -79.0 86.45 -85.3 92.9 L-86.25 93.9 -87.25 94.95 -94.5 105.1 -94.8 105.65 Q-98.9 113.6 -99.6 126.1 L-99.7 129.05 -99.7 132.7 -99.75 132.7 Q-99.55 140.2 -97.6 146.35 L-97.5 146.7 -97.45 146.8 -97.35 147.05 -94.85 152.95 -94.85 153.05 -94.75 153.2 -94.45 153.7 -93.1 155.95 -92.05 157.45 -89.95 159.95 -89.45 160.55 -88.9 161.1 -87.75 162.2 -83.95 165.2 Q-81.75 166.7 -79.25 168.0 L-73.9 170.3 -72.05 170.95 -69.85 171.6 -63.0 172.9 Q-53.9 174.05 -46.45 172.25 L-41.8 170.8 -41.15 170.55 -40.45 170.25 -39.75 169.95 -36.1 168.1 Q-23.8 161.15 -13.5 145.05 L-10.55 141.0 Q-8.6 138.95 -6.45 138.6 L-3.9 138.25 13.4 138.25 97.2 138.25 116.1 138.25 118.65 138.6 118.7 138.6 118.75 138.65 119.0 138.7 119.15 138.7 Q120.0 138.9 120.8 139.4 121.8 140.0 122.75 141.0 L123.15 141.45 124.0 142.5 124.3 142.95 124.4 143.1 124.55 143.25 124.9 143.8 125.7 145.05 129.4 150.45 Q135.8 159.15 142.95 164.55 150.4 170.2 158.65 172.25 166.1 174.05 175.2 172.9 184.0 171.75 191.45 168.0 199.4 163.9 204.25 157.45 211.5 147.7 211.95 132.7 L211.9 132.7 211.9 129.05 211.8 126.1 Q211.1 113.6 207.0 105.65 L206.65 104.95 206.35 104.4 204.15 100.85 203.25 99.6 Q200.8 96.25 197.5 92.9 194.55 89.9 190.25 86.55 L189.3 85.8 187.65 84.55 186.7 83.85 186.6 83.75 186.45 83.65 183.8 81.85 183.0 81.3 182.05 80.65 181.9 80.55 180.75 79.8 179.55 79.0 179.4 78.9 178.95 78.6 178.7 78.45 178.0 77.95 177.65 77.7 177.2 77.35 176.55 76.75 Q175.2 75.5 174.55 74.15 172.25 69.55 178.7 64.35 L181.25 62.45 Q188.85 57.55 193.5 53.3 199.65 47.65 202.85 41.4 206.4 34.5 207.4 24.3 L207.65 20.9 207.75 18.0 207.75 14.3 207.8 14.3 Q207.35 -0.7 200.1 -10.4 197.65 -13.7 194.35 -16.4 191.2 -19.0 187.3 -21.0 183.7 -22.8 179.8 -24.0 L175.2 -25.2 171.05 -25.9 170.8 -25.9 160.3 -26.15 158.9 -26.0 158.25 -25.9 156.6 -25.65 154.95 -25.3 154.5 -25.2 Q136.05 -20.7 121.55 1.95 L118.6 6.05 Q116.65 8.05 114.5 8.45 L111.95 8.8 90.3 8.8 86.9 8.15 Q85.35 7.5 84.0 6.25 81.65 3.95 81.1 -0.3 L81.0 -1.25 80.9 -2.5 80.85 -2.75 Q80.3 -6.8 78.55 -9.65 76.25 -12.1 74.1 -13.65 L73.1 -14.35 Q69.1 -16.95 64.0 -18.0 L63.2 -18.15 61.4 -18.25 Q62.7 -12.9 62.95 -7.85 L64.2 -6.75 64.25 -6.65 64.35 -6.55 65.7 -4.5 65.95 -4.05 66.15 -3.55 Q67.3 -0.65 66.55 2.55 65.8 5.75 63.45 7.8 61.15 9.9 57.85 10.3 54.6 10.65 51.8 9.2 L51.75 9.2 50.9 8.7 48.8 6.7" fill="#000000" fill-rule="evenodd" stroke="none"/>
      <path d="M-47.05 -26.05 L-42.3 -25.2 Q-23.85 -20.7 -9.35 1.95 L-6.4 6.05 Q-4.45 8.05 -2.3 8.45 L0.25 8.8 21.9 8.8 25.3 8.15 Q26.85 7.5 28.2 6.25 30.8 3.7 31.2 -1.25 31.55 -6.25 33.65 -9.65 35.95 -12.1 38.1 -13.65 42.0 -16.45 47.0 -17.7 48.7 -12.6 49.85 -7.35 L48.5 -5.9 Q46.9 -3.75 46.5 -1.2 46.1 1.85 47.6 4.8 L48.8 6.7 45.2 9.9 Q13.55 38.1 -30.05 80.45 L-90.8 139.7 -91.55 134.7 Q-92.3 127.75 -91.45 122.4 -90.3 115.05 -86.15 106.05 -82.0 97.0 -79.25 91.75 -76.5 86.45 -73.2 83.4 -75.4 84.7 -78.7 87.55 L-86.25 93.9 -87.25 94.95 -86.25 93.9 -85.3 92.9 Q-79.0 86.45 -66.5 78.45 -57.0 72.0 -66.5 64.35 L-69.05 62.45 -70.85 61.25 Q-78.25 53.9 -82.0 46.1 -85.8 38.3 -86.8 27.1 -87.8 15.85 -84.4 4.2 -81.05 -7.45 -71.5 -14.45 -62.0 -21.5 -47.05 -26.05 M175.2 -25.2 L179.8 -24.0 Q183.7 -22.8 187.3 -21.0 191.2 -19.0 194.35 -16.4 197.65 -13.7 200.1 -10.4 207.35 -0.7 207.8 14.3 L207.75 14.3 207.75 18.0 207.65 20.9 207.4 24.3 206.85 24.8 Q194.45 36.9 170.45 61.9 L97.2 138.25 13.4 138.25 45.25 105.0 Q97.75 50.7 175.2 -25.2 M189.3 85.8 L190.25 86.55 Q194.55 89.9 197.5 92.9 200.8 96.25 203.25 99.6 L204.15 100.85 Q204.8 102.5 206.45 109.3 208.05 116.05 207.85 125.75 207.65 135.4 203.85 145.15 200.0 154.85 193.05 159.15 186.05 163.4 178.2 165.35 170.35 167.3 161.2 167.35 152.05 167.45 142.95 164.55 135.8 159.15 129.4 150.45 L154.85 124.05 190.25 86.55 189.3 85.8" fill="#fffbb5" fill-rule="evenodd" stroke="none"/>
      <path d="M50.9 8.7 L51.75 9.2 51.8 9.2 51.75 9.2 50.9 8.7 M64.25 -6.65 L64.2 -6.75 62.95 -7.85 Q62.7 -12.9 61.4 -18.25 L63.2 -18.15 64.0 -18.0 Q69.1 -16.95 73.1 -14.35 L64.2 -6.75 64.25 -6.65 M156.6 -25.65 L158.25 -25.9 158.9 -26.0 160.3 -26.15 170.8 -25.9 171.05 -25.9 170.8 -25.9 160.3 -26.15 158.9 -26.0 157.1 -24.35 Q157.5 -25.15 158.25 -25.9 L156.6 -25.65 M177.2 77.35 L177.65 77.7 178.0 77.95 177.65 77.7 177.2 77.35 M179.55 79.0 L180.75 79.8 181.9 80.55 182.05 80.65 183.0 81.3 183.8 81.85 183.0 81.3 182.05 80.65 181.9 80.55 180.75 79.8 179.55 79.0 M186.7 83.85 L187.65 84.55 186.7 83.85 M124.9 143.8 L124.55 143.25 124.4 143.1 124.55 143.25 124.9 143.8 M-93.1 155.95 L-94.45 153.7 -94.75 153.2 -94.45 153.7 -93.1 155.95 M-94.85 153.05 L-94.85 152.95 -97.35 147.05 -97.45 146.8 -97.35 147.05 -94.85 152.95 -94.85 153.05" fill="url(#gradient0)" fill-rule="evenodd" stroke="none"/>
      <path d="M48.8 6.7 L50.9 8.7 51.75 9.2 51.8 9.2 Q54.6 10.65 57.85 10.3 61.15 9.9 63.45 7.8 65.8 5.75 66.55 2.55 67.3 -0.65 66.15 -3.55 L65.95 -4.05 65.7 -4.5 64.35 -6.55 64.25 -6.65 64.2 -6.75 73.1 -14.35 74.1 -13.65 Q76.25 -12.1 78.55 -9.65 80.3 -6.8 80.85 -2.75 L80.9 -2.5 81.0 -1.25 81.1 -0.3 Q81.65 3.95 84.0 6.25 85.35 7.5 86.9 8.15 L90.3 8.8 111.95 8.8 114.5 8.45 Q116.65 8.05 118.6 6.05 L121.55 1.95 Q136.05 -20.7 154.5 -25.2 L154.95 -25.3 156.6 -25.65 158.25 -25.9 Q157.5 -25.15 157.1 -24.35 L158.9 -26.0 160.3 -26.15 170.8 -25.9 171.05 -25.9 175.2 -25.2 Q97.75 50.7 45.25 105.0 L13.4 138.25 -3.9 138.25 -6.45 138.6 Q-8.6 138.95 -10.55 141.0 L-13.5 145.05 Q-23.8 161.15 -36.1 168.1 L-39.75 169.95 -40.45 170.25 -41.15 170.55 -41.8 170.8 -46.45 172.25 Q-53.9 174.05 -63.0 172.9 L-69.85 171.6 -72.05 170.95 -73.9 170.3 -79.25 168.0 Q-81.75 166.7 -83.95 165.2 L-87.75 162.2 -88.9 161.1 -89.45 160.55 -89.95 159.95 -92.05 157.45 -93.1 155.95 -94.45 153.7 -94.75 153.2 -94.85 153.05 -94.85 152.95 -97.35 147.05 -97.45 146.8 -97.5 146.7 -97.6 146.35 Q-99.55 140.2 -99.75 132.7 L-99.7 132.7 -99.7 129.05 -99.6 126.1 Q-98.9 113.6 -94.8 105.65 L-94.5 105.1 -87.25 94.95 -86.25 93.9 -78.7 87.55 Q-75.4 84.7 -73.2 83.4 -76.5 86.45 -79.25 91.75 -82.0 97.0 -86.15 106.05 -90.3 115.05 -91.45 122.4 -92.3 127.75 -91.55 134.7 L-90.8 139.7 -30.05 80.45 Q13.55 38.1 45.2 9.9 L48.8 6.7 M207.4 24.3 Q206.4 34.5 202.85 41.4 199.65 47.65 193.5 53.3 188.85 57.55 181.25 62.45 L178.7 64.35 Q172.25 69.55 174.55 74.15 175.2 75.5 176.55 76.75 L177.2 77.35 177.65 77.7 178.0 77.95 178.7 78.45 178.95 78.6 179.4 78.9 179.55 79.0 180.75 79.8 181.9 80.55 182.05 80.65 183.0 81.3 183.8 81.85 186.45 83.65 186.6 83.75 186.7 83.85 187.65 84.55 189.3 85.8 190.25 86.55 154.85 124.05 129.4 150.45 125.7 145.05 124.9 143.8 124.55 143.25 124.4 143.1 124.3 142.95 124.0 142.5 123.15 141.45 122.75 141.0 Q121.8 140.0 120.8 139.4 120.0 138.9 119.15 138.7 L119.0 138.7 118.75 138.65 118.7 138.6 118.65 138.6 116.1 138.25 97.2 138.25 170.45 61.9 Q194.45 36.9 206.85 24.8 L207.4 24.3 M204.15 100.85 L206.35 104.4 206.65 104.95 207.0 105.65 Q211.1 113.6 211.8 126.1 L211.9 129.05 211.9 132.7 211.95 132.7 Q211.5 147.7 204.25 157.45 199.4 163.9 191.45 168.0 184.0 171.75 175.2 172.9 166.1 174.05 158.65 172.25 150.4 170.2 142.95 164.55 152.05 167.45 161.2 167.35 170.35 167.3 178.2 165.35 186.05 163.4 193.05 159.15 200.0 154.85 203.85 145.15 207.65 135.4 207.85 125.75 208.05 116.05 206.45 109.3 204.8 102.5 204.15 100.85 M-70.85 61.25 Q-77.2 57.05 -81.3 53.3 -87.45 47.65 -90.65 41.4 -92.5 37.8 -93.65 33.3 L-93.65 33.35 -93.8 32.7 -95.3 22.65 -95.45 20.9 -95.55 18.0 -95.55 14.3 -95.6 14.3 -95.55 13.65 -95.55 13.45 -94.1 3.05 -94.05 2.8 Q-92.15 -4.7 -87.9 -10.4 -85.15 -14.05 -81.45 -16.95 L-78.9 -18.8 -76.7 -20.1 -75.1 -21.0 Q-70.55 -23.3 -65.45 -24.6 L-58.85 -25.9 -58.6 -25.9 -55.65 -26.2 -51.7 -26.3 -47.05 -26.05 Q-62.0 -21.5 -71.5 -14.45 -81.05 -7.45 -84.4 4.2 -87.8 15.85 -86.8 27.1 -85.8 38.3 -82.0 46.1 -78.25 53.9 -70.85 61.25" fill="#fffcd2" fill-rule="evenodd" stroke="none"/>
    </g>
    <linearGradient gradientTransform="matrix(0.0558, 0.0967, -0.866, 0.5, 98.4, 93.2)" gradientUnits="userSpaceOnUse" id="gradient0" spreadMethod="pad" x1="-819.2" x2="819.2">
      <stop offset="0.0" stop-color="#ebe7a3"/>
      <stop offset="1.0" stop-color="#d8d5a0"/>
    </linearGradient>
    <g id="sprite1">
      <use ffdec:characterId="700" height="143.55" transform="matrix(1.0, 0.0, 0.0, 1.0, 0.0, 0.0)" width="143.5" xlink:href="#shape1"/>
    </g>
    <g id="shape1">
      <path d="M0.75 77.5 Q-6.25 66.45 -8.8 53.35 -11.45 40.3 -9.3 27.4 -7.15 14.55 -0.4 3.05 6.3 -8.45 16.5 -16.6 27.95 -25.9 42.55 -29.9 57.2 -33.85 71.8 -31.8 86.4 -29.65 99.3 -21.65 112.2 -13.7 120.6 -1.55 128.9 10.6 131.85 25.5 134.75 40.35 131.6 54.75 127.05 75.5 110.9 90.95 94.7 106.4 73.8 110.05 52.9 113.65 32.5 104.6 12.1 95.45 0.75 77.5" fill="#000000" fill-rule="evenodd" stroke="none"/>
      <path d="M44.65 37.5 L44.55 40.35 44.7 41.0 Q45.35 45.1 47.9 49.0 L48.6 50.15 Q50.55 52.3 53.25 53.8 57.8 56.0 64.25 55.95 68.65 55.95 72.5 54.8 L74.9 53.85 75.2 53.8 75.55 53.6 76.85 53.0 78.4 52.05 79.05 51.85 79.4 51.65 80.2 51.35 Q81.35 50.75 82.5 50.65 L86.45 50.9 Q88.4 51.4 89.9 52.65 91.25 54.0 92.0 55.75 92.65 57.55 92.3 59.35 91.55 63.05 87.4 65.8 L84.15 67.5 83.85 67.6 83.1 67.9 Q77.55 70.1 71.25 70.9 L71.3 74.4 71.5 79.95 Q71.5 82.25 71.3 82.8 71.0 84.55 69.8 86.05 68.45 87.5 66.65 88.2 62.8 89.85 59.0 88.2 55.15 86.5 54.15 82.8 53.75 81.4 53.85 77.8 54.05 74.85 53.7 71.85 L53.65 70.6 Q49.6 69.75 46.1 68.25 38.1 64.8 33.0 57.75 27.9 50.9 27.1 42.8 26.8 39.5 27.1 36.1 L27.2 35.9 27.25 34.55 Q28.05 26.4 33.15 19.5 38.2 12.5 46.2 9.05 49.65 7.5 53.5 6.75 L53.55 5.45 Q53.85 2.5 53.75 -0.55 53.65 -4.2 54.05 -5.55 55.05 -9.3 58.85 -10.95 62.7 -12.65 66.55 -11.0 68.35 -10.25 69.7 -8.8 70.95 -7.3 71.25 -5.55 L71.3 -2.75 71.25 2.8 71.1 6.3 Q77.55 7.1 83.15 9.3 91.2 12.6 92.15 17.8 L92.2 18.5 92.3 19.15 92.2 19.75 91.85 21.45 Q91.2 23.25 89.7 24.55 88.35 25.85 86.3 26.4 L82.3 26.65 Q80.7 26.35 78.55 25.35 76.25 23.95 74.95 23.55 70.15 21.3 64.05 21.3 57.6 21.25 53.2 23.55 51.05 24.6 49.4 26.05 45.3 31.45 44.65 37.5" fill="#ffffff" fill-rule="evenodd" stroke="none"/>
    </g>
  </defs>
</svg>
