<?xml version="1.0" encoding="UTF-8" standalone="no"?>
<svg xmlns:ffdec="https://www.free-decompiler.com/flash" xmlns:xlink="http://www.w3.org/1999/xlink" ffdec:objectType="frame" height="392.65px" width="467.6px" xmlns="http://www.w3.org/2000/svg">
  <g transform="matrix(1.0, 0.0, 0.0, 1.0, 149.6, 63.45)">
    <use ffdec:characterId="729" height="392.65" transform="matrix(1.0, 0.0, 0.0, 1.0, -139.6, -11.2)" width="467.6" xlink:href="#sprite0"/>
    <use ffdec:characterId="731" height="152.2" transform="matrix(1.5671, 0.008, -0.008, 1.5671, 136.6, 156.6)" width="156.6" xlink:href="#sprite1"/>
  </g>
  <defs>
    <g id="sprite0">
      <use ffdec:characterId="728" height="392.65" transform="matrix(1.0, 0.0, 0.0, 1.0, 0.0, 0.0)" width="467.6" xlink:href="#shape0"/>
    </g>
    <g id="shape0">
      <path d="M68.6 7.0 Q69.2 -3.8 66.55 -17.25 63.9 -30.75 58.45 -28.95 52.95 -27.2 48.2 -9.65 43.45 7.9 44.35 17.25 L67.95 17.25 68.6 7.0 M96.0 244.7 Q96.0 240.95 98.5 238.15 101.0 235.3 104.7 234.8 154.65 228.25 156.0 195.9 154.5 164.7 105.85 163.95 101.75 163.9 98.9 161.0 96.0 158.05 96.0 153.95 L96.0 143.75 Q77.3 141.3 64.0 136.25 L63.95 136.25 Q46.75 129.8 31.35 115.45 L31.35 115.4 Q16.2 101.3 5.45 80.15 -5.15 59.45 -9.85 28.8 -10.35 25.9 -9.1 23.2 -7.9 20.45 -5.4 18.85 -2.95 17.25 0.0 17.25 L26.7 17.25 Q26.45 12.15 27.1 5.6 30.15 -24.9 44.05 -42.0 48.0 -46.85 52.35 -49.5 57.6 -52.7 62.7 -52.2 67.65 -51.7 72.5 -47.75 78.05 -43.15 81.5 -35.4 84.25 -29.15 85.85 -20.4 89.3 -1.9 87.1 17.25 L96.0 17.25 96.0 0.15 Q95.95 -4.0 98.9 -7.0 101.85 -10.0 106.0 -10.0 L447.6 -10.0 Q451.75 -10.0 454.7 -7.05 457.6 -4.15 457.6 0.0 L457.6 140.45 Q457.6 144.2 455.15 147.05 452.65 149.85 448.95 150.35 415.15 154.95 414.2 181.25 415.0 208.45 450.05 217.25 453.35 218.1 455.5 220.85 457.6 223.55 457.6 226.95 L457.6 330.4 Q457.6 334.55 454.7 337.5 451.75 340.4 447.6 340.4 L355.5 340.4 353.8 340.4 351.9 340.4 Q347.75 340.4 344.85 337.5 341.9 334.55 341.9 330.4 L341.9 314.0 208.0 314.0 208.0 330.4 Q208.0 334.55 205.1 337.5 202.15 340.4 198.0 340.4 L113.2 340.4 109.6 340.4 106.0 340.4 Q101.85 340.4 98.95 337.5 96.0 334.55 96.0 330.4 L96.0 244.7 M216.3 294.0 L350.8 294.0 Q352.95 294.0 354.8 294.8 357.15 295.5 359.0 297.35 361.9 300.25 361.9 304.4 L361.9 320.4 371.25 320.4 437.6 320.4 437.6 244.75 437.6 234.5 433.65 233.15 Q426.5 230.55 420.65 227.3 L416.75 224.9 416.35 224.65 Q411.2 221.2 407.25 217.1 L404.6 214.1 Q393.75 200.75 394.2 181.2 393.5 141.45 437.6 132.05 L437.6 102.1 437.6 10.0 375.5 10.0 284.3 10.0 198.7 10.0 188.35 10.0 116.15 10.0 116.4 28.15 116.35 28.4 116.35 28.6 116.25 29.15 116.3 28.8 116.0 30.15 Q115.3 32.4 113.5 34.25 110.55 37.25 106.4 37.25 L83.35 37.25 Q80.55 47.6 76.15 57.45 L73.55 62.5 73.6 62.6 Q74.95 66.2 74.5 70.1 74.1 74.1 71.95 77.25 69.5 80.95 65.15 82.9 60.85 84.8 56.4 84.15 52.0 83.5 48.4 80.45 44.8 77.4 43.45 73.1 42.15 68.8 43.35 64.25 44.55 59.7 47.85 56.65 51.15 53.6 55.8 52.75 L57.3 52.55 58.7 49.2 Q61.2 43.2 63.15 37.25 L61.4 37.25 12.0 37.25 12.8 40.9 13.2 42.7 21.5 67.4 21.85 68.1 22.0 68.5 22.2 68.9 22.4 69.3 22.6 69.7 23.0 70.5 23.1 70.7 23.3 71.1 Q29.55 83.45 37.6 93.0 41.1 97.15 45.0 100.8 57.35 112.3 71.05 117.55 77.85 120.1 86.25 121.85 L97.65 123.8 98.05 123.85 106.35 124.8 106.9 124.85 Q108.8 125.05 110.45 125.85 112.05 126.65 113.4 128.1 116.0 130.95 116.0 134.8 L116.0 144.4 117.45 144.5 128.65 145.85 131.15 146.3 Q137.65 147.5 143.25 149.4 176.95 160.8 176.0 195.9 176.3 206.25 173.5 214.9 164.3 242.8 122.0 252.1 L120.6 252.4 116.45 253.2 116.0 253.3 116.0 320.4 188.0 320.4 188.0 304.0 188.1 302.75 Q188.45 299.4 190.95 296.95 L191.6 296.3 191.9 296.05 192.4 295.7 192.9 295.4 196.3 294.15 196.65 294.1 198.0 294.0 216.3 294.0" fill="#000000" fill-rule="evenodd" stroke="none"/>
      <path d="M371.25 320.4 L371.35 320.2 378.2 320.2 408.55 318.35 Q433.15 316.5 432.7 315.75 433.05 302.6 434.7 280.7 436.5 256.85 437.45 246.55 L437.6 244.75 437.6 320.4 371.25 320.4 M188.35 10.0 L185.55 10.15 163.35 11.75 132.0 13.75 Q120.2 14.2 119.25 14.05 L116.4 28.35 116.35 28.4 116.4 28.15 116.15 10.0 188.35 10.0 M61.4 37.25 L61.35 37.3 48.25 39.6 22.15 44.25 23.8 49.45 28.2 64.2 Q33.75 81.2 41.95 91.6 52.05 104.45 62.4 110.65 72.75 116.85 77.85 118.9 L86.25 121.85 Q77.85 120.1 71.05 117.55 57.35 112.3 45.0 100.8 41.1 97.15 37.6 93.0 29.55 83.45 23.3 71.1 L23.1 70.7 23.0 70.5 22.6 69.7 22.4 69.3 22.2 68.9 22.0 68.5 21.85 68.1 21.5 67.4 13.2 42.7 12.8 40.9 12.0 37.25 61.4 37.25" fill="#a9ebd9" fill-rule="evenodd" stroke="none"/>
      <path d="M216.3 294.0 Q271.5 238.55 296.4 214.25 L374.0 139.85 Q407.75 107.45 432.75 82.35 L432.75 82.4 434.05 86.7 Q434.7 88.85 435.95 95.45 436.75 99.4 437.6 102.1 L437.6 132.05 Q393.5 141.45 394.2 181.2 393.75 200.75 404.6 214.1 L407.25 217.1 Q411.2 221.2 416.35 224.65 L416.75 224.9 420.65 227.3 Q426.5 230.55 433.65 233.15 L437.6 234.5 437.6 244.75 437.45 246.55 Q436.5 256.85 434.7 280.7 433.05 302.6 432.7 315.75 433.15 316.5 408.55 318.35 L378.2 320.2 371.35 320.2 371.25 320.4 361.9 320.4 361.9 304.4 Q361.9 300.25 359.0 297.35 357.15 295.5 354.8 294.8 352.95 294.0 350.8 294.0 L216.3 294.0 M375.5 10.0 L376.0 10.1 389.65 12.0 Q409.25 14.4 421.6 15.05 387.05 46.9 367.35 65.25 331.0 99.15 302.2 126.95 243.4 183.85 188.4 242.2 165.35 266.6 136.55 298.15 L120.45 315.85 120.5 314.25 121.8 283.9 Q122.4 268.4 122.35 260.7 L122.25 256.2 Q125.15 256.2 133.25 254.2 141.3 252.15 153.05 244.15 164.75 236.1 167.6 230.65 L171.15 223.55 173.5 214.9 Q176.3 206.25 176.0 195.9 176.95 160.8 143.25 149.4 L199.35 96.8 Q230.55 67.45 244.35 53.8 261.95 36.55 272.8 24.1 279.0 16.95 284.3 10.0 L375.5 10.0 M116.35 28.4 L116.4 28.35 119.25 14.05 Q120.2 14.2 132.0 13.75 L163.35 11.75 185.55 10.15 188.35 10.0 198.7 10.0 184.8 24.3 Q162.05 48.25 135.15 79.45 121.75 95.0 97.65 123.8 L86.25 121.85 77.85 118.9 Q72.75 116.85 62.4 110.65 52.05 104.45 41.95 91.6 33.75 81.2 28.2 64.2 L23.8 49.45 22.15 44.25 48.25 39.6 61.35 37.3 61.4 37.25 63.15 37.25 Q61.2 43.2 58.7 49.2 L57.3 52.55 55.8 52.75 Q51.15 53.6 47.85 56.65 44.55 59.7 43.35 64.25 42.15 68.8 43.45 73.1 44.8 77.4 48.4 80.45 52.0 83.5 56.4 84.15 60.85 84.8 65.15 82.9 69.5 80.95 71.95 77.25 74.1 74.1 74.5 70.1 74.95 66.2 73.6 62.6 L73.55 62.5 76.15 57.45 Q80.55 47.6 83.35 37.25 L106.4 37.25 Q110.55 37.25 113.5 34.25 115.3 32.4 116.0 30.15 L116.3 28.8 116.25 29.15 116.35 28.6 116.35 28.4" fill="url(#gradient0)" fill-rule="evenodd" stroke="none"/>
      <path d="M437.6 102.1 Q436.75 99.4 435.95 95.45 434.7 88.85 434.05 86.7 L432.75 82.4 432.75 82.35 Q407.75 107.45 374.0 139.85 L296.4 214.25 Q271.5 238.55 216.3 294.0 L198.0 294.0 196.65 294.1 196.3 294.15 192.9 295.4 192.4 295.7 191.9 296.05 191.6 296.3 190.95 296.95 Q188.45 299.4 188.1 302.75 L188.0 304.0 188.0 320.4 116.0 320.4 116.0 253.3 116.45 253.2 120.6 252.4 122.0 252.1 Q164.3 242.8 173.5 214.9 L171.15 223.55 167.6 230.65 Q164.75 236.1 153.05 244.15 141.3 252.15 133.25 254.2 125.15 256.2 122.25 256.2 L122.35 260.7 Q122.4 268.4 121.8 283.9 L120.5 314.25 120.45 315.85 136.55 298.15 Q165.35 266.6 188.4 242.2 243.4 183.85 302.2 126.95 331.0 99.15 367.35 65.25 387.05 46.9 421.6 15.05 409.25 14.4 389.65 12.0 L376.0 10.1 375.5 10.0 437.6 10.0 437.6 102.1 M284.3 10.0 Q279.0 16.95 272.8 24.1 261.95 36.55 244.35 53.8 230.55 67.45 199.35 96.8 L143.25 149.4 Q137.65 147.5 131.15 146.3 L128.65 145.85 117.45 144.5 116.0 144.4 116.0 134.8 Q116.0 130.95 113.4 128.1 112.05 126.65 110.45 125.85 108.8 125.05 106.9 124.85 L106.35 124.8 98.05 123.85 97.65 123.8 Q121.75 95.0 135.15 79.45 162.05 48.25 184.8 24.3 L198.7 10.0 284.3 10.0" fill="url(#gradient1)" fill-rule="evenodd" stroke="none"/>
    </g>
    <linearGradient gradientTransform="matrix(0.0774, 0.1333, -0.8636, 0.5014, 482.85, 15.7)" gradientUnits="userSpaceOnUse" id="gradient0" spreadMethod="pad" x1="-819.2" x2="819.2">
      <stop offset="0.0" stop-color="#8cedd2"/>
      <stop offset="1.0" stop-color="#6bdfbe"/>
    </linearGradient>
    <linearGradient gradientTransform="matrix(-0.0435, -0.1642, 0.9652, -0.2561, 51.75, 259.4)" gradientUnits="userSpaceOnUse" id="gradient1" spreadMethod="pad" x1="-819.2" x2="819.2">
      <stop offset="0.0" stop-color="#8cedd2"/>
      <stop offset="1.0" stop-color="#a9ebd9"/>
    </linearGradient>
    <g id="sprite1">
      <use ffdec:characterId="730" height="152.2" transform="matrix(1.0, 0.0, 0.0, 1.0, 0.0, 0.0)" width="156.6" xlink:href="#shape1"/>
    </g>
    <g id="shape1">
      <path d="M46.55 62.4 Q44.95 62.15 44.15 61.55 43.0 60.85 41.85 58.9 L41.05 57.4 Q40.0 54.75 40.9 51.7 41.95 48.6 44.75 46.95 46.55 45.95 48.35 45.85 51.65 45.75 53.8 48.2 55.95 50.5 55.75 53.9 L55.4 55.8 55.15 56.65 55.15 57.55 Q55.45 59.9 53.5 61.35 52.5 62.15 50.95 62.4 48.75 62.85 46.55 62.4" fill="#ffffff" fill-rule="evenodd" stroke="none"/>
      <path d="M42.15 55.75 L41.45 53.8 Q41.2 52.7 41.55 51.15 42.5 46.75 45.65 44.6 47.5 43.35 49.95 43.25 52.25 43.15 54.3 44.15 55.9 45.0 56.6 45.8 L57.8 47.7 Q59.3 51.1 58.1 54.75 L56.25 58.5 55.1 60.0 Q53.0 62.6 49.65 62.85 L46.6 62.35 Q45.1 61.7 44.1 60.5 L43.0 58.75 42.4 57.2 42.15 55.75" fill="#ffffff" fill-rule="evenodd" stroke="none"/>
      <path d="M52.75 -63.1 Q59.95 -57.05 64.35 -52.25 70.3 -45.85 74.0 -38.7 77.6 -31.6 78.75 -25.3 79.85 -19.0 78.3 -14.2 76.8 -9.55 74.75 -7.4 72.85 -5.4 72.25 -8.55 71.75 -12.15 70.3 -15.75 68.8 -19.75 67.7 -21.4 66.6 -23.25 64.5 -25.3 62.4 -27.4 57.5 -29.3 52.6 -31.3 46.65 -29.9 40.8 -28.7 37.5 -25.55 L37.05 -25.15 25.7 -36.65 Q27.5 -39.0 28.3 -42.2 L28.65 -43.75 28.7 -46.1 Q28.7 -47.4 28.1 -48.8 L26.95 -51.5 Q26.15 -53.05 22.55 -56.5 L18.25 -60.65 17.95 -60.4 15.75 -58.45 Q14.0 -57.45 12.95 -57.7 12.3 -57.7 11.35 -58.35 L11.1 -58.55 10.55 -59.0 9.95 -59.45 9.85 -59.6 Q6.9 -62.3 6.45 -63.5 L5.95 -65.0 6.05 -66.05 Q6.2 -67.15 7.15 -68.3 L7.15 -68.4 7.6 -68.75 8.0 -69.3 8.4 -69.8 19.7 -81.2 21.3 -82.5 Q22.55 -83.65 24.25 -83.55 25.95 -83.55 26.8 -82.7 L29.2 -80.05 31.5 -77.45 31.85 -76.55 Q31.95 -75.5 31.05 -73.75 L29.0 -71.55 28.8 -71.35 32.95 -67.15 Q35.35 -64.95 41.25 -66.3 47.15 -67.65 52.75 -63.1 M30.6 -78.75 L30.7 -78.65 30.8 -78.5 30.6 -78.75 M-64.1 49.8 L22.65 -34.1 34.65 -22.0 -49.15 64.75 Q-55.05 66.7 -60.5 61.25 -66.1 55.6 -64.1 49.8" fill="#000000" fill-rule="evenodd" stroke="none"/>
      <path d="M-59.9 -35.45 L-50.5 -34.75 -49.45 -35.75 -47.35 -37.9 -47.1 -38.15 -45.85 -39.4 -44.35 -40.9 -43.15 -42.1 -42.85 -42.4 -40.75 -44.45 -39.75 -45.45 -40.4 -54.9 -53.75 -68.3 Q-56.7 -71.95 -49.65 -72.35 L-46.35 -72.25 -41.4 -71.1 -37.45 -69.6 Q-35.95 -68.85 -33.0 -66.8 -28.55 -62.7 -25.4 -57.05 -23.9 -53.7 -23.2 -47.6 -23.1 -45.05 -23.4 -43.4 -23.75 -41.9 -24.45 -39.9 -25.2 -37.9 -26.4 -36.05 -27.6 -34.3 -29.6 -32.3 L-31.15 -30.75 -32.7 -29.25 -34.2 -27.7 -35.7 -26.2 -37.3 -24.65 Q-39.4 -22.5 -41.0 -21.45 -42.85 -20.25 -44.85 -19.5 L-48.4 -18.4 -52.6 -18.2 Q-58.65 -18.95 -62.05 -20.45 -67.8 -23.45 -71.75 -28.0 L-74.65 -32.5 -76.15 -36.45 -77.2 -41.4 -77.35 -44.65 Q-76.95 -51.75 -73.25 -48.8 L-59.9 -35.45 M-36.55 -19.75 L-36.35 -19.95 -24.8 -31.55 -24.6 -31.75 50.15 39.5 53.9 40.25 Q57.55 41.45 60.0 44.2 62.45 46.95 63.4 50.75 64.2 54.4 63.25 57.95 62.2 61.45 59.45 64.2 L59.3 64.35 Q56.55 67.1 53.05 68.15 49.55 69.1 45.85 68.3 42.0 67.35 39.3 64.9 36.55 62.45 35.35 58.8 34.65 56.85 34.6 55.05 L-36.55 -19.75 M46.65 49.2 L45.35 50.1 44.35 51.4 Q43.8 52.35 43.95 53.85 43.95 55.5 44.75 56.75 45.55 57.95 46.95 58.7 48.35 59.45 49.85 59.4 51.8 59.3 53.1 58.0 54.4 56.75 54.55 54.75 54.55 53.3 53.8 51.85 53.05 50.45 51.8 49.65 50.6 48.9 49.0 48.8 47.4 48.7 46.65 49.2" fill="#000000" fill-rule="evenodd" stroke="none"/>
    </g>
  </defs>
</svg>
